<svg transform="scale(1)" version="1.1" id="u1Noxfuuzi" xmlns="http://www.w3.org/2000/svg" xmlns:xlink="http://www.w3.org/1999/xlink" x="0px" y="0px" viewBox="0 0 500 500" xml:space="preserve" class="pbimage_pbimage__wrapper__image__0LEis false"><title>Busy 2</title><style type="text/css"> .st0{fill:#FFFFFF;} .st1{fill:#000005;} .st2{fill:#59BE4C;}
 .st2{fill:#ff3d3d;}
 .st1{fill:#000005;}
 .st0{fill:#FFFFFF;}</style><g id="hand-3"><path class="st0" d="M188.4,270.8c0,0-19.7-24-27.1-42.7c-6.6-16.8-17.7-35-19.9-38.6l-0.4-0.6c0,0-10.2,37.1-10.4,39.1
		s45.6,73.8,45.6,73.8S188.3,273.1,188.4,270.8z" fill="#FFFFFF"></path><path class="st1" d="M190.8,270.5c-6.1-7.4-11.6-15.2-16.8-23.3c-4-6-7.4-12.5-10.2-19.1c-3.3-8-7-15.8-11.1-23.4
		c-2.9-5.4-6-10.8-9.2-16c-0.4-0.7-4.8-0.6-5,0.3c-2.4,8.7-4.7,17.3-7.1,26c-1.1,4.1-2.3,8.2-3.2,12.4c-0.3,1.4,0.9,2.8,1.5,3.9
		c4.5,7.9,9.4,15.6,14.2,23.4c6.2,10,12.4,19.9,18.7,29.8l7.2,11.4c1.2,1.9,2.3,3.9,3.6,5.6c0.1,0.1,0.1,0.2,0.2,0.3
		c0.5,0.7,4.6,0.5,5-0.3c3.7-8.6,7.4-17.3,10.7-26.1c0.5-1.4,1.5-3.2,1.5-4.7c0-0.5-4.9-0.6-5,0.3c-0.2,1.4-0.6,2.7-1.2,4
		c-0.9,2.5-1.9,5-2.9,7.5c-2.1,5.3-4.4,10.6-6.6,15.9c-0.5,1.2-1,2.4-1.5,3.5l5-0.3l-8.9-14.1c-6.2-9.8-12.4-19.6-18.5-29.4
		c-5.2-8.4-10.4-16.7-15.4-25.2c-0.7-1.1-1.3-2.3-1.9-3.4c-0.3-0.5-0.6-1-0.8-1.6c0.1-0.9,0.2-1.8,0.6-2.7c0.5-2.1,1.1-4.3,1.6-6.4
		c2.6-9.8,5.3-19.6,8-29.4c0.1-0.2,0.1-0.4,0.2-0.6l-5,0.3c7.4,11.7,13.8,24,19.2,36.7c1.4,3.4,2.8,6.8,4.5,10.1s3.6,6.6,5.5,9.7
		c3.6,5.9,7.6,11.5,11.7,17.1c2.1,2.9,4.3,5.7,6.6,8.5c0.5,0.6,2.5,0.2,3.1,0.2C189.3,271.2,191.1,271,190.8,270.5z" fill="#000005"></path><path class="st2" d="M151.1,173.9c2.7-4.1,7.8-5.8,12.5-4.3l0,0c5.8,1.8,9,8,7.2,13.8c0,0,0,0,0,0l-3.9,12.3l-21-6.7l3.9-12.3
		C150,175.7,150.5,174.8,151.1,173.9z" fill="#ff3d3d"></path><path class="st0" d="M22.6,261.2c6.5,2.1,14.5-4.7,16.6-11.2l29.1-91.6c3-9.6,12.7-15.1,21.5-12.3l63.2,20.1l10.6,3.4
		c-4.7-1.5-9.7,0.3-12.5,4.3l0,0l-32.5,100.6c-2.9,8.9-12.4,13.8-21.3,11l-54.5-17.3l-8.5-2.7l-11.8-3.8
		C22.4,261.7,22.6,261.2,22.6,261.2z" fill="#FFFFFF"></path><path class="st1" d="M22.6,262.6c7,2.1,13.9-2.7,17.4-8.5c0.9-1.5,1.5-3.2,2-4.9l5.1-16.2l8.2-25.6l8.4-26.4l5.8-18.2
		c0.3-1.1,0.7-2.1,1-3.2c1.7-5.5,5.8-9.9,11.3-11.8c3-0.9,6.2-0.8,9.1,0.2l7,2.2l25,7.9l24,7.6l12.6,4l4.1,1.3l-0.1-2.9
		c-3.7-1.2-7.8-0.7-11.1,1.2c-1.5,0.9-2.8,2.1-3.6,3.7c-0.5,1.2-0.8,2.6-1.2,3.8l-6.1,18.8l-8.7,27l-8.8,27.2l-6.3,19.2
		c-0.4,1.4-0.9,2.8-1.3,4.1c-1.3,4.3-4.3,7.9-8.3,10c-3.7,1.8-7.9,2-11.7,0.7l-7.5-2.4l-26.6-8.5l-19.1-6.1l-16.9-5.4l-3.9-1.2
		l2.3,2.5l0.2-0.6L22.6,262.6L22.6,262.6c0.8,0.2,2.2,0.3,2.3-0.8s-1.6-1.9-2.4-2.1l0,0c-0.5-0.2-2-0.4-2.2,0.4l-0.2,0.6
		c-0.4,1.3,1.4,2.2,2.3,2.5l19.7,6.2l13.9,4.4l27.3,8.7l10.4,3.3c1.9,0.7,3.9,1.3,5.9,1.7c6.8,1.4,13.8-1.1,18.2-6.4
		c1.5-2,2.7-4.4,3.4-6.8l4.8-14.9l8.3-25.5l9-27.9l7.2-22.3l2.1-6.6c0.3-1.3,0.9-2.5,1.9-3.5c2.3-2.4,5.8-3.4,9.1-2.5
		c0.8,0.2,2.2,0.3,2.3-0.8s-1.6-1.9-2.4-2.1l-13.2-4.2l-20.9-6.7l-26.3-8.4c-4.4-1.4-8.8-2.9-13.3-4.2c-6.3-2-13.1-0.5-18,3.9
		c-2.8,2.6-4.8,5.9-5.9,9.5l-4.3,13.5l-7.9,24.7l-8.6,27l-6.5,20.3l-1.5,4.8c-1.1,3.6-3.3,6.7-6.3,8.9c-2.2,1.7-5.4,3.3-8.3,2.5
		c-0.8-0.2-2.2-0.3-2.3,0.8S21.8,262.4,22.6,262.6z" fill="#000005"></path><path class="st2" d="M74.8,204.1c6.9-3.4,14-7.1,20.1-11.9c1.5-1.2,6.3-4.9,3.5-7.1c-1.5-1.2-3.6-0.6-5.2,0.2
		c-1.9,1.1-3.6,2.6-4.9,4.4c-2.9,3.8-4.8,8.3-5.6,13c-0.2,1.6-0.2,3.5,1,4.7c1.7,1.7,5,0.9,7,0.5c3.7-0.8,7.1-2.3,10.1-4.6
		c1.6-1.3,4.2-3.8,3-6.1c-1.1-2-3.7-1.3-5.2-0.3c-1.8,1.3-3.3,3-4.3,5c-1.8,3.3-3.4,9.4,1.6,10.8c3.5,0.8,7.2,0.3,10.4-1.3
		c2.2-1,4.1-2.5,5.6-4.4c0.3-0.3,0.5-0.7,0.7-1.1c0.4-0.8-0.6-0.9-1.1-0.8c-0.9,0.1-1.7,0.6-2.2,1.4l-0.1,0.2c-0.2,0.2,0.2-0.2,0,0
		l-0.2,0.3c-0.4,0.5-0.8,1-1.3,1.4c-1.7,1.4-3.9,2.3-6.1,2.3c-1.9,0.1-4.3,0-5.2-2c-0.5-1.6-0.5-3.4,0.2-4.9
		c0.6-1.8,1.5-3.5,2.7-4.9c0.2-0.2,0.4-0.4,0.7-0.6l0.2-0.2c0.1-0.1,0.2-0.1,0,0s-0.4,0.2-0.5,0.1c0.2,0.1,0.3,0.2,0.5,0.3
		c1.4,1.5-0.7,3.5-1.8,4.3c-2.3,1.7-5,2.9-7.9,3.3c-1.5,0.2-3.2,0.6-4-0.8c-0.5-1.3-0.6-2.8-0.3-4.1c0.7-3.9,2.3-7.6,4.6-10.8
		c0.5-0.8,1.1-1.5,1.7-2.2c0.2-0.2,0.4-0.5,0.7-0.7c0.2-0.2,0.4-0.4,0.7-0.5c0.3-0.2,0.1-0.1,0.1-0.1c0.4-0.2-0.2,0,0.1-0.1
		s-0.3,0,0.1,0s-0.1-0.1,0.2,0c-0.2,0,0.4,0.1,0.4,0.1c0.2,0.1,0.4,0.2,0.6,0.4c0.4,0.5,0.1,1.3-0.3,1.7c-0.9,1.2-2,2.2-3.2,3
		c-5.4,4.1-11.6,7.2-17.6,10.3l-0.4,0.2c-0.5,0.2-1.7,0.9-1.3,1.6S74.4,204.3,74.8,204.1L74.8,204.1z" fill="#ff3d3d"></path><path class="st2" d="M61.6,236.6c2.4-0.8,4.9-1.8,7.2-2.8c3.3-1.4,7.4-2.9,9.8-5.8c2.6-3-1.8-6.2-4.8-5.8c-3.6,0.6-5.4,5.2-6,8.3
		c-0.7,3.8,0.1,8.4,4.2,9.7c2.7,0.9,6.2,0.1,8.8-0.8c2.8-0.9,5.3-2.4,7.5-4.4c1.4-1.4,2.6-3.4,1.6-5.4c-0.9-1.8-2.9-2.6-4.8-2
		c-3.3,1.3-5.4,5.8-6.1,9c-0.5,1.8-0.2,3.8,0.7,5.5c1.4,2.1,3.8,2.8,6.1,2.9c4.8,0.4,9.5-1.6,12.5-5.3c0.2-0.2,0.3-0.5,0.5-0.7
		c0.8-1.5-2.4-3.4-3.2-2c-1.3,2.1-3.3,3.6-5.6,4.4c-2.2,0.8-4.5,1-6.8,0.6c-0.5-0.1-0.6-0.2-0.8-0.6c0.2,0.3-0.2-0.5-0.1-0.3
		c-0.1-0.4-0.2-0.8-0.2-1.2c-0.1-2.9,1.6-6.1,3.4-8.2c0.4-0.4,0.8-0.8,1.3-1.1c0.2-0.1,0.3-0.2,0.5-0.3c0.1,0,0.2,0,0.2-0.1
		c0.2,0,0.3-0.2,0.3-0.4s-0.2-0.3-0.4-0.3c-0.2,0-0.3,0.2-0.3,0.4c0,0.1,0.1,0.2,0.3,0.3c-0.2-0.1-0.5-0.2-0.7-0.3
		c0,0,0.1,0.2,0.1,0.3c-0.1,0.8-0.4,1.5-0.9,2c-1.5,1.7-3.4,3-5.6,3.8c-2.4,1.1-4.9,1.7-7.5,1.7c-0.1,0-0.8-0.1-0.6-0.1
		c-0.5-0.1,0,0-0.4-0.2c0.2,0.1,0,0-0.2-0.2c-0.1-0.2-0.2-0.4-0.3-0.7c-0.4-1.3-0.5-2.7-0.2-4.1c0.4-2.4,1.6-6.1,3.9-7.2
		c0.3-0.2,0.7-0.2,1-0.1c-0.1,0-0.2-0.1,0.1,0.1S76,225,76,225.1s-0.1,0.1,0,0c0,0,0,0.2,0,0.3c0.1-0.3,0-0.1,0,0
		c-0.2,0.4-0.5,0.7-0.8,1c-2.6,2.3-6,3.7-9.2,5c-2.2,0.9-4.3,1.7-6.5,2.5C57.6,234.5,60.2,237.1,61.6,236.6L61.6,236.6z" fill="#ff3d3d"></path><path class="st0" d="M154.8,256.5c0,0-16.6-8.3-22.4-16.9s-2.4-19.9-2.4-19.9s-10.6-11.9-10-21.2s3.9-8.3,6.8-4.1
		c2.9,4.1,16.3,17.9,16.3,17.9" fill="#FFFFFF"></path><path class="st1" d="M155.6,255.1c-6.1-3-11.9-6.7-17-11.2c-3.6-3-6-7.1-6.9-11.7c-0.6-3.7-0.4-7.6,0.5-11.2
		c0.2-0.8-0.1-1.7-0.7-2.2c-0.8-1-1.6-1.9-2.3-2.9c-2.6-3.3-4.6-7-6-11c-0.7-2.2-1-4.6-0.7-6.9c0.1-1.2,0.3-2.3,0.7-3.4
		c0.1-0.3,0.3-0.7,0.5-1c0.1-0.2,0.4-0.3,0.5-0.5c0,0.2-0.2,0.1-0.4,0.1c0.5,0-0.5-0.1,0,0c-0.7-0.2-0.2-0.1-0.1,0h0.1
		c-0.3-0.2-0.3-0.2-0.1-0.1c0,0,0.6,0.5,0.1,0.1c0.3,0.3,0.6,0.7,0.9,1c0.8,1,1.7,2.2,2.6,3.3c4.5,5.3,9.4,10.4,14.3,15.3
		c0.8,0.8,2.1,1.6,3.3,1.1s0.9-1.6,0.2-2.3c-5.4-5.6-11.1-11.1-15.9-17.3l-0.3-0.4c0.4,0.6-0.3-0.4-0.4-0.5c-0.3-0.4-0.6-0.9-1-1.2
		c-0.8-0.9-1.9-1.7-3-2.2c-2.1-0.9-4.2-0.6-5.3,1.5c-1.4,2.6-1.5,6.1-1.2,9c0.4,3,1.4,5.8,2.8,8.4c2.1,4.1,4.6,7.9,7.7,11.3
		l-0.6-1.4c-1.9,6.4-1.3,14.1,2,19.8c2.1,3.6,5.3,6.6,8.5,9.1c3.2,2.5,6.6,4.8,10.1,6.8c1.9,1.1,3.8,2.2,5.7,3.2
		c0.8,0.4,2.4,0.8,2.9-0.2S156.4,255.5,155.6,255.1L155.6,255.1z" fill="#000005"></path><path class="st1" d="M242.4,355.6c0,0-44-108.9-58.4-108.9s-43,26.6-35.3,47.7s63.7,91.2,70.4,92.8S242.4,355.6,242.4,355.6z" fill="#000005"></path><path class="st1" d="M244.4,354.9c-2.1-5.3-4.4-10.5-6.6-15.8c-5-11.8-10.2-23.5-15.6-35.1c-5.8-12.4-11.8-24.8-18.6-36.7
		c-2.7-4.8-5.6-9.4-8.8-13.8c-2.2-3-4.7-6.2-8-8c-4.4-2.5-10.2,0.1-14.3,2.2c-7.4,4-13.9,9.5-18.9,16.3c-5,6.6-9,14.9-8.7,23.4
		c0.2,5.9,2.8,11.1,5.6,16.1c7,12.5,15.6,24.2,24.1,35.6c9,12.1,18.4,24,28.3,35.4c3.3,3.8,6.6,7.5,10.2,11c2.3,2.2,5.1,5.1,8.6,3.7
		c2.4-1,4.2-3,5.8-4.9c2.1-2.6,4-5.2,5.8-8c3.4-5.2,6.4-10.7,9.3-16.2c0.6-1.1,1.1-2.2,1.7-3.3s-0.6-2.6-1.6-3
		c-1-0.5-2.3-0.2-2.8,0.9c0,0,0,0.1-0.1,0.1l-0.4,0.8l-0.5,0.9l-0.3,0.6c-0.1,0.1-0.2,0.4,0.1-0.1l-0.2,0.4
		c-1.3,2.4-2.6,4.8-3.9,7.2c-3.3,5.8-6.7,11.7-11,16.8c-0.4,0.5-0.8,1-1.3,1.4l-0.6,0.7c-0.4,0.4,0.3-0.3-0.1,0.1l-0.4,0.3
		c-0.4,0.3-0.8,0.6-1.2,0.9c-0.2,0.1-0.4,0.2-0.6,0.4s0.1-0.1,0.2-0.1l-0.4,0.2c-0.1,0-0.7,0.2-0.3,0.1s-0.1,0-0.2,0
		c0.9,0.1,0.3,0,0.1,0c1.1,0.3,0.5,0.1,0.3,0.1c-0.1,0-0.2-0.1-0.2-0.1c-0.4-0.2,0.6,0.5,0.3,0.1c-0.2-0.2-0.4-0.3-0.6-0.4
		c-0.5-0.4-1-0.8-1.5-1.3c-0.2-0.2-1.1-1.1-0.5-0.4l-1.1-1c-1.6-1.6-3.2-3.2-4.7-4.9c-9.3-10.2-17.9-21-26.3-31.9
		c-9.1-11.7-17.9-23.7-25.6-36c-2.8-4.3-5.4-8.9-7.6-13.6c-0.2-0.4-0.4-0.9-0.5-1.3c-0.2-0.6,0.2,0.6-0.1-0.3
		c-0.2-0.5-0.4-1.1-0.5-1.6c-0.5-1.7-0.7-3.5-0.6-5.2c0.1-3.9,1-7.7,2.6-11.2c3.5-7.5,8.7-14.1,15.3-19.2c2.8-2.3,6-4.3,9.3-5.9
		c1.5-0.7,3-1.2,4.6-1.6c0.2,0,0.4-0.1,0.7-0.1c0.3-0.1,0.7-0.1,1-0.1c0.5,0,1,0,1.5-0.1c-0.5,0.1-0.6,0-0.2,0
		c0.1,0,0.2,0.1,0.3,0.1c0.4,0-0.6-0.3-0.2-0.1c0.1,0.1,0.3,0.1,0.4,0.2s0.2,0.1,0.4,0.2c0.5,0.2-0.3-0.2-0.1-0.1s0.5,0.4,0.8,0.6
		s0.5,0.4,0.8,0.6s0.3,0.2,0.4,0.4c0.4,0.3-0.5-0.5-0.2-0.1c0.1,0.1,0.2,0.2,0.2,0.2c0.6,0.6,1.2,1.2,1.8,1.9c1.4,1.6,2.6,3.3,3.8,5
		l0.5,0.7l0.2,0.4c-0.3-0.5-0.1-0.2-0.1-0.1c0.4,0.6,0.7,1.1,1.1,1.7c0.7,1.1,1.4,2.2,2.1,3.4c6.6,11.2,12.7,22.7,18.1,34.5
		c5.6,11.9,11,23.9,16.2,36c3,7,6,14,8.9,21.1c0.1,0.3,0.3,0.7,0.4,1C241.3,358.8,245.6,357.9,244.4,354.9z" fill="#000005"></path></g><g id="hand-2"><path class="st2" d="M465.9,241.5c0,0-55.6-62.2-57.8-61.9s-43.4,37.9-44.4,41.8s54.3,59.4,57.1,61.9S467,243.9,465.9,241.5z"></path><path class="st1" d="M460,243.5l-0.6-0.1l-2.4-0.3c-2.8-0.4-5.6-0.8-8.4-1.2c-7.2-1.3-14.6-2.9-21.3-5.9c-3-1.2-5.7-2.9-8.1-5.1
		c-3-3.1-5.5-6.7-7.1-10.7c-3.1-7.1-4-14.9-3.8-22.6c0.1-4.4,0.6-8.7,1.5-12.9c0.1-0.2-2.3-0.1-2.5-0.1c-0.4,0-2.4,0-2.5,0.5
		c-0.8,3.6-1.3,7.3-1.5,11c-0.6,7.6,0.4,15.3,2.9,22.5c2.7,7.2,7.3,13.6,14.3,17.1c6.7,3.3,14.2,5.1,21.6,6.5
		c4.8,0.9,9.6,1.6,14.4,2.1c1.2,0.1,2.4,0,3.5-0.3C460.8,243.7,461,243.5,460,243.5L460,243.5z"></path><path class="st1" d="M426.1,267.6l4.8-24.6l0.7-3.5c0.2-1.1-4.5-2.5-4.6-1.9l-4.8,24.6l-0.7,3.5C421.3,266.8,426,268.2,426.1,267.6
		z"></path><path class="st1" d="M405.1,211.3l-22.9,5.3l-3.3,0.8c-0.7,0.2,0.8,1.5,1,1.6c0.6,0.5,1.9,1.6,2.8,1.4l22.9-5.3l3.3-0.8
		c0.7-0.2-0.8-1.5-1-1.6C407.3,212.3,405.9,211.1,405.1,211.3L405.1,211.3z"></path><path class="st0" d="M439.7,298c0,0,5.5-16.6,6.7-18.3s28.8-30.9,30.9-33.7s-6.7-29.5-9.8-29.6s-3,23.8-3,23.8s-4.8-10.3-7.1-11.9
		s-26.4-2.4-27.7,0.5s12,6.4,12,6.4s-15.3,0.6-15.1,3.4s8.6,4.5,8.6,4.5s-10.1,1.2-8.9,3.3s11,5,11,5l1.1,4.8
		c0,0-14.3,5.5-18.8,13.5s-8.4,39.4-8.4,39.4S435.7,301.6,439.7,298z"></path><path class="st1" d="M442.2,298.3c1.3-3.9,2.6-7.8,4.1-11.7c0.7-2,1.5-4,2.4-6c0.1-0.3,0.3-0.6,0.5-0.8c0.3-0.4,0.6-0.8,1-1.1
		c6.7-7.4,13.6-14.7,20.4-22c2.8-3,5.6-6,8.3-9.2c0.7-0.6,1.1-1.4,1.3-2.3c0-1.9-0.2-3.8-0.7-5.6c-1.2-5.4-2.9-10.7-5-15.8
		c-0.8-2-1.7-3.9-2.8-5.7c-1.3-1.9-3.3-2.6-5.6-2.4c-1.7,0.1-2.2,1.5-2.5,3c-0.5,2.3-0.9,4.6-1,6.9c-0.4,4.5-0.5,9-0.5,13.4v0.8
		l4.9,0.4c-0.7-1.5-1.5-3-2.2-4.5c-1.1-2.4-2.5-4.6-4-6.6c-1.1-1.3-2.8-1.7-4.4-2c-2.3-0.4-4.7-0.7-7.1-0.8
		c-5.3-0.4-10.6-0.4-15.9,0.1c-1.7,0.2-8.6,1-5.1,4c2,1.7,4.7,2.6,7.1,3.4c1.7,0.6,3.4,1.1,5.2,1.6l0.1-1.1
		c-3.8,0.1-7.6,0.5-11.4,1.2c-1.4,0.3-4.1,0.6-4.9,2.1c-0.9,1.8,2.4,3.3,3.5,3.8c2.1,0.9,4.4,1.6,6.7,2l-1-1.2
		c-1.2,0.2-2.5,0.4-3.7,0.6c-1.8,0.2-3.6,0.8-5.2,1.6c-1.4,0.9-0.5,1.9,0.6,2.6c1.9,1.2,3.9,2.1,6,2.8c1.6,0.6,3.2,1.1,4.9,1.6
		l-1.2-0.7l1.2,4.8l0.4-0.3c-3.4,1.3-6.6,2.9-9.6,4.8c-4.3,2.7-8.5,6-10.5,10.9c-1.6,4.4-2.8,9-3.6,13.6c-1,5.1-1.9,10.2-2.6,15.3
		c-0.4,2.8-0.8,5.7-1.2,8.5c-0.1,1,4,1.1,4.6,0.9c8-2.3,15.9-5.1,23.5-8.4c1.9-0.7,3.6-1.6,5.1-2.8c0.6-0.5-1.4-0.9-1.6-1
		c-0.7-0.1-2.5-0.5-3.1,0c-1.3,1.1-2.8,1.9-4.3,2.6c-2.2,1-4.5,1.9-6.8,2.8c-4.6,1.7-9.2,3.3-13.9,4.7c-1,0.3-2.1,0.7-3.1,1l4.6,0.9
		c0.9-7.2,2-14.4,3.4-21.5c0.8-4.8,2-9.6,3.4-14.2c0.5-1.8,1.4-3.5,2.4-5.1c1.8-2.3,3.9-4.2,6.3-5.8c3.5-2.4,7.3-4.5,11.3-6
		c0.2,0,0.3-0.1,0.4-0.3l-1.1-4.9c-0.1-0.4-0.8-0.6-1.2-0.7l-0.5-0.1l-0.4-0.1c-0.2-0.1-0.2-0.1,0,0l-0.4-0.1
		c-1.1-0.4-2.1-0.7-3.2-1.1c-1.2-0.4-2.4-0.9-3.5-1.5c-0.5-0.3-1.8-0.8-2-1.4c-0.5-1.8,6.9-2.6,8.2-2.8c1.8-0.2-0.3-1.1-1-1.2
		l-0.3-0.1l-0.4-0.1c0.5,0.1,0.1,0-0.1,0c-0.9-0.2-1.8-0.5-2.7-0.8c-0.9-0.4-3.9-1.6-3.2-3.1c0.6-1.1,2.9-1.4,3.9-1.6
		c2-0.4,4.1-0.6,6.2-0.8l1.6-0.1h0.3c0.3,0-0.3,0,0,0h0.6h1.1c0.2,0,1.2,0,1.3-0.4s-0.9-0.6-1.2-0.7c-3.1-0.7-6.2-1.8-9-3.3
		c-0.8-0.4-2.6-1.6-1.8-2.5c0.7-0.8,2.3-0.9,3.2-1c4.3-0.5,8.7-0.6,13-0.3c1.1,0.1,2.2,0.1,3.3,0.2c0.2,0,0.8,0.1,0.3,0l0.7,0.1
		l1.3,0.2c0.2,0,0.8,0.1,0.1,0l0.5,0.1l0.5,0.1c0.1,0-0.5-0.1,0,0s-0.1,0,0,0c0.3,0.1-0.2-0.2,0,0c0.2,0.1,0.4,0.3,0.5,0.5
		c1.6,2,2.9,4.2,4,6.5c0.8,1.6,1.6,3.1,2.4,4.7c0.4,0.8,4.9,1.2,4.9,0.5c0-3.2,0-6.5,0.2-9.7c0.1-2.5,0.3-5.1,0.6-7.6
		c0.1-1.9,0.5-3.8,1.2-5.5c0.1-0.2,0.2-0.4,0.4-0.6c0-0.1,0.2-0.1,0.2-0.2c-0.3,0.4-3.6-0.1-3.8-0.4c-0.1-0.1,0.2,0.1,0.4,0.3
		c0.2,0.3,0.4,0.5,0.6,0.8c1.1,1.7,2,3.6,2.8,5.5c2.1,5,3.7,10.1,4.9,15.3c0.5,1.8,0.8,3.7,0.8,5.6c0,0.8-0.3,1.7-0.9,2.2
		c-2.5,2.9-5.1,5.7-7.7,8.6c-6.8,7.3-13.6,14.6-20.4,21.9c-0.7,0.7-1.4,1.5-2,2.2c-0.8,1.2-1.4,2.5-1.8,3.9c-1.7,4.5-3.3,9-4.8,13.6
		c-0.1,0.4-0.2,0.7-0.4,1C437,298.3,441.8,299.4,442.2,298.3z"></path><path class="st0" d="M455,245.8c0,0-2.3-6.3-4.3-8.5s-11.3-2.8-16-1.3"></path><path class="st1" d="M457.2,245.6c-0.7-1.8-1.4-3.6-2.2-5.3c-1.1-2.4-2.4-4.7-4.9-5.9c-2.6-1-5.4-1.5-8.1-1.5
		c-2.8-0.2-5.7,0.2-8.4,0.9c-1,0.4-1.5,1.5-1.1,2.5c0,0.1,0.1,0.2,0.2,0.3c0.6,1.1,1.9,1.7,3.2,1.4c1-0.3,2-0.5,3.1-0.6
		c1.3-0.1,2.6-0.2,3.9-0.1c1.1,0,2.2,0.1,3.3,0.3c0.5,0.1,1.1,0.2,1.6,0.3s-0.3-0.1,0.2,0.1c0.2,0.1,0.5,0.2,0.7,0.3
		c0.1,0,0.7,0.4,0.3,0.1s0.1,0.1,0.2,0.2c-0.6-0.4-0.2-0.2,0,0c0.4,0.4-0.1-0.2,0.2,0.2c0.6,1,1.1,2,1.6,3c0.2,0.5,0.5,1,0.7,1.6
		l0.4,0.8c-0.2-0.4,0,0.1,0.1,0.2c0.2,0.5,0.4,0.9,0.5,1.4c0.4,1.2,1.6,2.1,2.9,2.1c1,0,1.8-0.9,1.8-1.9
		C457.4,245.9,457.3,245.7,457.2,245.6L457.2,245.6z"></path><path class="st0" d="M447.3,250.2c0,0-0.8-5.8-2.7-7.1s-12.9,1-14.5,1.2"></path><path class="st1" d="M449.8,250.3c-0.2-1.3-0.4-2.6-0.8-3.8c-0.6-2-1.5-4.1-3.6-5c-1.9-0.6-3.8-0.7-5.8-0.4c-2,0.1-3.9,0.4-5.9,0.8
		c-1.5,0.2-3,0.6-4.5,0.8c-1,0.1-1.9,1-1.3,2c0.7,1,2,1.5,3.2,1.3c2.9-0.4,5.7-1,8.5-1.4l1.2-0.1l0.6-0.1h0.4c-0.1,0-0.4,0-0.1,0
		s0.7,0,1.1,0h0.5c0.5,0,0,0.1-0.1,0c0.1,0,0.3,0.1,0.4,0.1c0.5,0.1-0.5-0.2-0.2-0.1s-0.4-0.2-0.4-0.2c-0.2,0-0.1-0.2,0,0
		c0,0,0.3,0.4,0.1,0.1s0.1,0.2,0.2,0.3s0.2,0.4,0.3,0.5c0.2,0.3,0.3,0.7,0.4,1c0.4,1.3,0.7,2.7,0.9,4.1
		C445.2,252.3,450.1,252.7,449.8,250.3L449.8,250.3z"></path><path class="st1" d="M390.1,425c39.7-23.9,73.9-112.5,60.1-126.9c-4.5-4.7-11.2-5.8-18.4-5.2c-17.4,1.5-32.3,13.2-38.5,29.6
		l-14.6,31.5"></path><path class="st1" d="M391.5,425.4c7.4-4.7,14-10.4,19.7-17c6.5-7.4,12.2-15.4,17.3-23.8c10.2-16.5,18.1-34.3,23.4-53
		c2.1-7,3.4-14.2,3.7-21.5c0.1-4.3-0.1-9.5-3.2-12.9c-4.3-4.6-11.1-5.7-17.2-5.5c-6.1,0.2-12.2,1.6-17.8,4
		c-10.9,4.6-19.7,13.1-24.9,23.7c-1,2.1-1.9,4.3-2.9,6.4l-4.2,9.1l-8.6,18.5l-0.5,1.1c-0.4,0.9,1.7,0.6,2,0.5
		c0.9-0.2,2.3-0.6,2.7-1.5l14.3-30.7c1.4-3.5,3.1-6.8,5.1-10c3.1-4.6,7-8.6,11.5-11.8c4.3-3.1,9.3-5.2,14.5-6.3
		c5.5-1.1,11.9-1.4,17.1,1.2c2.9,1.4,5.1,3.3,6.1,6.2c0.7,2.2,1.1,4.4,1.1,6.7c0.2,6.6-1,13.2-2.6,19.6c-4.4,17.8-11.9,35-20.9,51
		c-4.7,8.4-10.1,16.5-16.1,24.1c-5.3,6.8-11.4,13-18.2,18.2c-1.4,1.1-2.9,2.1-4.4,3c-0.6,0.4-1.4,1.1-0.5,1.5
		S390.8,425.9,391.5,425.4L391.5,425.4z"></path><path class="st2" d="M396.3,165.8c-0.5-11.3-4-22.3-10.2-31.8c-3.1-4.8-6.8-9.9-11.9-12.7c-2.4-1.5-5.3-2-8.1-1.5
		c-2.4,0.7-4.5,2.4-5.7,4.6c-2.5,4-3.7,9.8,0.6,13c2.1,1.7,4.9,2.1,7.4,1.1c2.2-1,4-2.7,5.1-4.9c2.4-4.3,2.3-10,1.2-14.7
		c-1.2-5.1-3.7-9.8-7.1-13.7c-8.4-9.6-21.5-13.7-33.9-14.9c-0.9-0.1-2,0.2-1.8,1.4c0.5,1.2,1.5,2,2.8,2.1c9.1,0.9,18.4,3.2,25.7,8.9
		c6.6,5.2,11,13.7,10.3,22.2c-0.3,3.8-1.6,8.3-5.4,10.1c-1.4,0.7-2,0.6-2.4-0.9c-0.3-1.8,0-3.7,0.8-5.4c1.6-3.7,4.9-7.4,9.2-5
		c1.9,1.2,3.5,2.6,4.8,4.4c1.5,1.8,3,3.7,4.3,5.7c5.9,9,9.3,19.4,9.8,30.2c0.2,1.2,1.1,2.1,2.2,2.4
		C394.6,166.8,396.4,167,396.3,165.8L396.3,165.8z"></path><path class="st2" d="M316.6,89.3h-18.1c-0.9,0-3.8,0.6-2.1,1.8s4.5,1.5,6.7,1.5h18.1c0.9,0,3.8-0.6,2-1.8S318.7,89.3,316.6,89.3
		L316.6,89.3z"></path><path class="st2" d="M283.8,89.8h-2c-0.3,0-0.6,0-0.9,0.2c-0.3,0.1-0.6,0.2-0.9,0.4c-0.3,0.2-0.5,0.4-0.7,0.6
		c-0.2,0.2-0.3,0.4-0.4,0.7l-0.1,0.5c0,0.3,0.1,0.6,0.4,0.9l0.4,0.3c0.3,0.2,0.7,0.3,1.1,0.3h2c0.3,0,0.6,0,0.9-0.2
		c0.3-0.1,0.6-0.2,0.9-0.4c0.3-0.2,0.5-0.4,0.7-0.6c0.2-0.2,0.3-0.4,0.4-0.7l0.1-0.5c0-0.3-0.1-0.6-0.4-0.9l-0.4-0.3
		C284.6,89.8,284.2,89.8,283.8,89.8z"></path></g><g id="hand-1"><path class="st0" d="M184.6,67.6c-2.4-4.7-7.7-7.1-12.8-5.7c-11.1,3.1-34.6,8-32.9,15.7c1,4.5,27.2,72.3,33.5,76.6
		s33.4-6.6,34.9-9.6C208.6,142.1,194.7,87.8,184.6,67.6z"></path><path class="st1" d="M186.4,66.5c-1.7-3.2-4.6-5.6-8-6.7c-3.2-1-6.2-0.5-9.3,0.3c-5.5,1.5-11.1,2.9-16.5,4.7
		c-4.7,1.6-10.1,3.3-13.7,6.9c-2.2,2.2-2.4,4.9-1.5,7.7c2,6.1,4.4,12,6.7,17.9c3.6,9.1,7.3,18.2,11.1,27.3c3.4,8.1,6.9,16.2,11,23.9
		c1.1,2.3,2.5,4.6,4.2,6.6c2.2,2.5,5.7,2.7,8.8,2.4c5.1-0.5,10.1-1.7,14.9-3.5c4.3-1.4,8.5-3.2,12.5-5.5c1.2-0.6,2.3-1.5,3-2.7
		c0.3-0.9,0.3-1.8,0.2-2.7c-0.4-2.9-0.9-5.7-1.6-8.6c-2.3-10.3-5.1-20.4-8.1-30.5c-3-10.7-6.6-21.2-10.8-31.5
		C188.3,70.6,187.4,68.5,186.4,66.5c-0.6-1.1-1.9-1.5-3.1-1c-1.2,0.7-0.9,2.2-0.4,3.2c0.2,0.4-0.2-0.4,0.1,0.2l0.3,0.6l0.6,1.4
		c0.4,1,0.9,2,1.3,3c0.9,2.2,1.8,4.4,2.6,6.6c1.9,5.1,3.6,10.2,5.2,15.3c3.3,10.4,6.3,20.9,8.9,31.4c0.3,1.1,0.5,2.2,0.8,3.3
		c0.1,0.5,0.2,1,0.4,1.5c0.1,0.3,0.1,0.5,0.2,0.8c-0.1-0.4,0.1,0.4,0.1,0.5c0.4,1.7,0.8,3.4,1.1,5.1c0.2,1.3,0.5,2.5,0.7,3.8
		c0.1,0.4,0.1,0.8,0.1,1.2c0,0.2,0,0.7,0,0.2s0,0,0,0.1s0.1-0.6,0.3-0.7c-0.1,0-0.6,0.6-0.2,0.3s-0.3,0.2-0.4,0.3s-0.5,0.4-0.8,0.5
		c-1.5,0.9-3.2,1.8-4.8,2.5c-4.4,1.9-8.9,3.5-13.5,4.8c-2.2,0.6-4.5,1.1-6.8,1.4c-0.9,0.1-1.8,0.2-2.7,0.1c-0.4,0-0.8,0-1.2-0.1
		l-0.6-0.1c0.4,0.1,0,0-0.2,0s-0.6-0.2-0.9-0.3c0.8,0.3-0.3-0.1-0.2-0.2c0.2-0.2,0.6,0.6,0.3,0.2c-0.1-0.1-0.1-0.1-0.2-0.2
		s-0.2-0.3-0.4-0.4c-0.4-0.5,0.4,0.5,0,0l-0.4-0.6c-0.3-0.4-0.6-0.9-0.9-1.3c-0.7-1.2-1.4-2.4-2-3.6c-0.4-0.7-0.8-1.4-1.1-2.1
		c-0.2-0.4-0.4-0.7-0.6-1.1l-0.3-0.6l-0.1-0.3c-0.2-0.4,0.3,0.6,0,0c-1.8-3.8-3.6-7.6-5.2-11.4c-3.9-8.8-7.5-17.6-11.1-26.5
		c-2.9-7.2-5.7-14.4-8.3-21.6c-0.6-1.7-1.2-3.4-1.8-5.2c0-0.1,0-0.2-0.1-0.3s0.1,0.7,0.1,0.5c0-0.1,0-0.2,0-0.3c0-0.1,0-0.2,0-0.2
		c0,0.1,0,0.5,0,0.2c0-0.1,0.1-0.6,0-0.3s0.1-0.2,0.1-0.2s0.1-0.3,0.2-0.5c-0.2,0.4,0.1-0.1,0.2-0.2c0.2-0.3,0.5-0.6,0.8-0.9
		l0.2-0.2l0.7-0.5c0.9-0.6,1.8-1.2,2.7-1.7c4.7-2.5,10-4,15.1-5.4c2.6-0.7,5.3-1.4,8-2.1c2.5-0.7,5.1-1.7,7.7-1.2
		c2.7,0.5,5,2.2,6.2,4.7c0.6,1.1,2,1.6,3.1,1C187.1,69,186.9,67.5,186.4,66.5z"></path><path class="st2" d="M148,81.5c0,0,25.6,63.6,29.9,63.6s19.9-3.7,19.9-6.3s-18.1-63.3-22.2-65.6S148,79.4,148,81.5z"></path><path class="st0" d="M153.1,76.9c0,0,3,3.2,4.1,3.2s10.8-3.2,11.6-3.8s0.5-5.9,0.5-5.9L153.1,76.9z"></path><path class="st0" d="M229.1,152.7c0,0-6.6-38.2-13.1-53.4s-17.3-23.5-17-16.5c0,0-5.5-7.1-11.1-7.4l2.7,8.3c0,0,10.4,31,7.8,38.1
		c-2.6,7.1-11.6,2.9-15.8,1.5s-10-0.4-8.1,4.7s27.8,15.9,31,20.6s7.8,26.6,7.8,26.6S229.6,159.2,229.1,152.7z"></path><path class="st1" d="M231.5,152.4c-1.6-9.3-3.5-18.6-5.6-27.8c-3.3-14.2-6.9-29.3-16.7-40.6c-1.9-2.2-4.4-4.8-7.4-5.6
		s-5.4,1-5.3,4.2l4.6-0.6c-3.2-4.1-7.9-8.3-13.2-8.7c-1.3-0.1-2.9,0.9-2.4,2.4c2.1,6.5,4.3,12.9,6.1,19.5c1.7,5.6,3,11.2,4.1,16.9
		c0.4,2.2,0.6,4.4,0.6,6.6c0,0.4,0,0.9-0.1,1.3c0,0.6,0.1-0.2,0,0.2s-0.1,0.4-0.1,0.6c-0.3,1-0.9,1.9-1.9,2.5
		c-1,0.5-2.2,0.6-3.3,0.3c-1.4-0.2-2.7-0.5-4-1c-3-1-5.8-2.2-9-2s-6.5,2.1-6.2,5.7c0.3,2.2,1.5,4.2,3.3,5.5
		c4.4,3.6,9.6,6.2,14.5,8.9c2.6,1.4,5.2,2.9,7.8,4.4c1.1,0.6,2.1,1.3,3.2,2c0.4,0.3,0.9,0.6,1.3,0.9l0.3,0.2c0,0-0.4-0.3-0.1-0.1
		s0.4,0.3,0.6,0.5s0.5,0.5,0.8,0.8c0,0.1-0.3-0.5-0.1-0.1c0.1,0.2,0.2,0.4,0.3,0.6s0.2,0.4,0.3,0.6l0.1,0.3l-0.1-0.1
		c0.2,0.5,0.4,1.1,0.6,1.6c1,2.6,1.8,5.4,2.6,8.1c1.3,4.8,2.5,9.5,3.5,14.4l0.2,0.9c0.3,1.5,3,2.5,4.1,1.3c2-2,4-4.1,5.9-6.2
		c3.3-3.5,6.2-7.4,8.7-11.6c1-1.9,2.1-4,2-6.2c-0.1-2.6-5.1-3.3-4.9-0.5c0,0.2,0,1,0,0.8s-0.1,0.2-0.1,0.3s-0.1,0.4-0.2,0.6
		c-0.1,0.4-0.3,0.8-0.4,1.2c-0.1,0.2-0.2,0.4-0.3,0.6s-0.2,0.5-0.2,0.5c-1.1,1.9-2.3,3.8-3.7,5.6c-2.6,3.4-5.5,6.7-8.5,9.8
		c-0.5,0.5-1,1-1.5,1.5l-0.4,0.4c-0.3,0.3,0.4-0.4,0.2-0.2l4.1,1.3c-0.8-3.6-1.6-7.2-2.6-10.9c-1.3-5.2-2.6-10.9-5.1-15.6
		c-1-1.6-2.4-3-4-4c-2.1-1.4-4.3-2.8-6.5-4c-5.2-3-10.6-5.7-15.8-9c-1-0.6-2-1.3-2.9-2c0.4,0.3-0.1-0.1-0.2-0.2s-0.4-0.3-0.5-0.5
		c-0.3-0.3-0.6-0.6-0.9-0.9c-0.3-0.3,0.2,0.4,0,0c-0.1-0.1-0.1-0.2-0.2-0.3c-0.2-0.2,0.1,0.2,0.1,0.2c-0.1-0.1-0.1-0.3-0.1-0.4
		c-0.1-0.4-0.2-0.8-0.2-1.2c0.1-0.6,0.7-1.1,1.5-1.2c2.6-0.5,4.9,0.7,7.5,1.6c2.9,1,6.3,1.8,9.3,1.2c3-0.6,5.4-3,6-6
		c0.3-2.1,0.4-4.2,0.1-6.2c-0.8-5.7-1.9-11.4-3.5-16.9c-2-7.3-4.3-14.5-6.6-21.7l-0.6-1.8l-2.4,2.4c2.2,0.2,4.3,1.7,6.1,3.2
		c0.7,0.7,1.4,1.5,2.1,2.3c0.2,0.2,0.4,0.5,0.6,0.7c0.4,0.5-0.3-0.4,0,0c0.6,0.9,1.7,1.4,2.8,1.2c1-0.1,1.7-0.9,1.8-1.9
		c0-0.2,0-0.5,0-0.7s-0.2,0.2,0-0.2s-0.2,0.2,0,0s-0.2,0.1-0.2,0.1s-0.6,0.2-0.3,0.1c0,0-0.6,0-0.1,0c0.3,0-0.6-0.2,0,0
		s-0.4-0.3,0.3,0.1c0.4,0.2,0.8,0.5,1.2,0.8c0.3,0.2-0.3-0.2,0,0l0.4,0.3c0.3,0.2,0.6,0.5,0.8,0.7c1.1,1,2.1,2.1,3,3.3
		c4.3,5.6,7.5,12,9.6,18.7c3.9,12.1,6.5,24.7,8.9,37.2c0.6,3.2,1.2,6.3,1.8,9.5C227.2,155.6,232,155.3,231.5,152.4z"></path><path class="st0" d="M209.7,103.6c0,0-9.7-18.7-12.4-22.5"></path><path class="st1" d="M212.1,103c-3.2-6.1-6.4-12.2-9.8-18.2c-0.8-1.5-1.6-2.9-2.6-4.3c-0.8-1.1-5.2,0.8-4.9,1.2
		c2,3,3.7,6.1,5.3,9.3c2,3.6,3.9,7.2,5.8,10.9l1.2,2.3C207.8,105.4,212.4,103.7,212.1,103L212.1,103z"></path><path class="st1" d="M295.6,276.9c0,0-45.6-132.8-65.6-131.3s-30.9,23.9-30.1,47.1S265,314.5,265,314.5"></path><path class="st1" d="M298,276.5c-1.6-4.7-3.3-9.5-5-14.2c-4.1-11.2-8.3-22.3-12.6-33.3c-5.3-13.3-10.8-26.6-16.8-39.6
		c-5.2-11.1-10.6-22.3-17.5-32.4c-2.2-3.5-4.8-6.6-7.8-9.4c-1.3-1.2-2.7-2.1-4.3-2.8c-1.8-0.7-3.8-0.9-5.8-0.6
		c-20.6,2.5-29.9,24.6-30.8,42.9c-0.2,2.9-0.1,5.8,0.3,8.7c0.4,2.1,1,4.1,1.6,6.2c1.8,5.2,3.9,10.3,6.3,15.3
		c6.2,13.3,13.4,26.1,20.7,38.8c7.2,12.5,14.6,24.8,22.3,37c4.4,7,8.8,14,13.3,20.9l0.6,1c0.7,1,1.9,1.4,3.1,1.1
		c0.7-0.1,2.4-1,1.7-2c-3.1-4.8-6.2-9.6-9.2-14.4c-7-11.2-13.9-22.4-20.7-33.8c-7.6-12.9-15.1-25.9-21.9-39.2
		c-2.9-5.6-5.7-11.3-8.1-17.2c-1-2.4-2-4.8-2.8-7.2c-0.4-1.1-0.7-2.1-1-3.2c-0.1-0.5-0.3-0.9-0.4-1.4c-0.1-0.2-0.1-0.4-0.2-0.7
		s-0.2-0.9-0.1-0.5c-0.5-2.3-0.6-4.7-0.5-7.1c0-5.1,0.7-10.2,2-15.2c2.3-8.6,6.6-17.4,14.1-22.6c3.3-2.3,7.2-3.8,11.2-4.2
		c0,0,1-0.1,1,0c0,0.2-0.9-0.1-0.2,0c0.1,0,0.3,0.1,0.4,0.1c0.1,0-0.6-0.2-0.1,0l0.4,0.1l0.4,0.2c0.6,0.2-0.4-0.2,0,0
		c0.6,0.3,1.2,0.7,1.7,1.1c0.1,0.1,0.3,0.2,0.4,0.3c0.4,0.3-0.3-0.3,0.1,0.1s0.6,0.6,0.9,0.9c1.4,1.3,2.6,2.7,3.8,4.3
		c3,3.9,5.6,8,8,12.3c3.1,5.4,5.9,10.9,8.6,16.5c6.1,12.6,11.7,25.6,17,38.6c4.8,11.7,9.3,23.5,13.7,35.4c2.4,6.5,4.7,13,7,19.5
		c0.1,0.3,0.2,0.6,0.3,0.9c0.7,2,5.6,1.4,4.8-0.9L298,276.5z"></path></g><g id="character"><path class="st1" d="M292.3,272.5c0,0,22.6-23.3,55.5,0s67.8,118.5,50,144.5s-75.8,27.3-82.5,9.4c-2.4-6.4-64.7-4.5-64.7-4.5
		s-37.7,3-37.7-10.7S270.4,303.4,292.3,272.5z"></path><path class="st1" d="M294.3,273.9c1.3-1.2,2.6-2.3,4.1-3.3l1-0.6c-0.4,0.3,0.2-0.1,0.3-0.2l0.6-0.4c0.9-0.5,1.8-1,2.6-1.4
		c2-1,4.2-1.8,6.4-2.5c5.6-1.6,11.6-1.8,17.3-0.6c7.6,1.7,14.7,5.1,20.8,9.9l1.2,1l0.6,0.5l0.3,0.3l0.1,0.1c0.8,0.7,1.6,1.5,2.4,2.2
		c1.7,1.7,3.4,3.4,4.9,5.2c3.4,4,6.6,8.3,9.5,12.7c6.6,10.3,12.4,21.1,17.1,32.4c5,11.5,9,23.3,12.1,35.4c2.6,10.4,4.6,21.2,4.5,32
		c0,4.1-0.5,8.2-1.4,12.2c-0.2,0.9-0.5,1.8-0.8,2.7l-0.2,0.6c0,0.1-0.1,0.2-0.1,0.3c-0.2,0.4-0.4,0.8-0.5,1.2
		c-0.9,1.7-1.9,3.4-3.2,4.9c-6.7,8.2-17.1,12.9-27,15.5c-5.4,1.4-10.9,2.3-16.4,2.6c-2.7,0.2-5.5,0.2-8.2,0.1
		c-2.4-0.1-4.8-0.3-7.2-0.7c-1.2-0.2-2.3-0.4-3.5-0.7c-0.5-0.1-1.1-0.3-1.6-0.4l-0.8-0.2c-0.5-0.1-0.1,0,0,0l-0.5-0.2
		c-1-0.3-2-0.7-2.9-1.1c-0.5-0.2-0.9-0.4-1.4-0.6c-0.2-0.1-0.4-0.2-0.6-0.3c-0.5-0.2,0.2,0.1-0.4-0.2c-0.8-0.4-1.5-0.9-2.2-1.5
		l-0.5-0.4c-0.4-0.4,0.2,0.2-0.2-0.2s-0.6-0.6-0.9-0.9s-0.5-0.6-0.8-0.9s-0.3-0.5-0.1-0.1c-0.1-0.2-0.3-0.4-0.4-0.6
		c-0.4-0.6-0.6-1.2-0.9-1.8c-1.2-2.4-4.7-3.1-7-3.6c-3.9-0.8-7.9-1.3-11.9-1.5c-9.9-0.8-19.9-0.9-29.9-0.9c-6,0-12.1,0-18.2,0.2
		c-5.4,0.3-10.8,0.3-16.2,0l-1.6-0.1l-0.5,0c0.1,0,0.5,0,0,0l-0.9-0.1c-1.2-0.1-2.3-0.3-3.5-0.5c-1.2-0.2-2.3-0.4-3.5-0.7
		c-0.5-0.1-1.1-0.3-1.6-0.4c0.5,0.1-0.1,0-0.3-0.1s-0.5-0.2-0.8-0.3c-0.5-0.2-0.9-0.4-1.4-0.5l-0.6-0.3c-0.1-0.1-0.9-0.5-0.4-0.2
		c-0.4-0.2-0.7-0.4-1.1-0.7c-0.2-0.1-0.4-0.3-0.6-0.4s-0.6-0.5-0.2-0.2c-0.3-0.3-0.6-0.5-0.8-0.8c-0.1-0.2-0.3-0.3-0.4-0.5
		c0.3,0.4,0-0.1-0.1-0.2s-0.4-0.9-0.4-0.9c0.1,0.2-0.1-0.3-0.1-0.4s-0.1-0.5-0.1-0.7s0-0.4-0.1-0.6c0-0.4,0-0.2,0,0
		c0-0.2,0-0.4,0-0.5c0.1-0.4,0.1-0.8,0.2-1.3c0.2-1.1,0.5-2.1,0.9-3.1c0.2-0.7,0.5-1.3,0.7-2c0.1-0.4-0.1,0.2,0.1-0.1
		c0.1-0.2,0.1-0.3,0.2-0.5l0.4-1.1c0.7-1.6,1.4-3.2,2.1-4.9c4-8.7,8.6-17.1,13.2-25.4c5.8-10.5,11.8-20.9,18-31.2
		c6.3-10.6,12.8-21.2,19.4-31.6c5.6-9,11.4-17.9,17.3-26.7c2.2-3.2,4.4-6.5,6.6-9.6c1.5-2.1-3.2-3.8-4.5-1.9
		c-5.4,7.5-10.4,15.2-15.4,23c-6.6,10.1-13,20.4-19.2,30.7c-6.6,10.8-13,21.6-19.3,32.5c-5.5,9.6-10.9,19.2-15.9,29.1
		c-3.3,6.5-6.8,13.1-8.9,20.1c-0.7,2.4-1.1,4.8-0.2,7.2c1.5,3.8,5.7,6,9.4,7.2c8.6,2.8,18.1,3,27.1,2.7c3.5-0.1,7-0.3,10.5-0.3
		c9.3-0.2,18.6-0.2,27.9,0.1c5,0.1,9.9,0.4,14.8,0.8c0.1,0,1,0.1,0.4,0l0.7,0.1l1.6,0.2c1,0.1,2,0.2,2.9,0.4c1.6,0.3,3.2,0.6,4.8,1
		c0.6,0.1-0.3-0.1,0,0l0.4,0.1c0.3,0.1,0.5,0.2,0.8,0.3l0.3,0.1c0.4,0.2,0.1,0.1-0.1-0.1c0.2,0.1,0.3,0.3,0.5,0.4
		c-0.2,0-0.4-0.4,0,0c-0.4-0.5-0.2-0.2,0,0.1c0.3,0.7,0.7,1.4,1.1,2.1c2.3,3.4,5.8,5.6,9.5,7.2c9.5,4.1,20.8,4.5,31,3.5
		c11.5-1.1,23.2-4.2,33.1-10.4c4.7-2.9,8.8-6.6,12-11c2.1-3.1,3.5-6.6,4.1-10.2c2.1-9.5,1.2-19.6-0.4-29.1
		c-2.1-12.2-5.2-24.2-9.5-35.8c-4.2-12.1-9.5-23.9-15.6-35.1c-5.4-10-11.6-19.7-19.3-28.1c-8.9-9.7-21-17.4-34.2-19.4
		c-10.8-1.6-21.8,1-30.8,7.2c-1.4,0.9-2.8,2-4,3.2C288.4,273.3,292.6,275.5,294.3,273.9z"></path><path class="st0" d="M319.3,390.3c0,0-62-21-69.2-19.1s-23.8,16.7-20.4,19.4s20.2-9.6,20.2-9.6s-18.5,19.5-15.1,21
		s14.8-4.5,14.8-4.5s-9,10.2-4.5,11.1s14.9-8.5,14.9-8.5s-4.8,7.1,0.1,7.3c4.9,0.2,18-8.6,18-8.6s8.7,14.8,24.6,9.2
		c0,0,13.4,20.4,12.8,18.5C306.9,401.6,317.4,391.9,319.3,390.3z"></path><path class="st1" d="M317.8,389.3c-5.4-1.8-10.8-3.6-16.2-5.3c-10.5-3.4-21.1-6.7-31.8-9.6c-4.5-1.2-9-2.5-13.6-3.4
		c-2.5-0.5-5.5-1.4-8.1-1c-2.1,0.5-4.1,1.5-5.8,2.7c-2.6,1.6-5,3.5-7.3,5.5c-2.2,1.8-4.2,3.9-5.9,6.1c-0.9,1.1-2.4,3-2.1,4.5
		c0.2,1,1.4,1.5,2.2,1.9c1.2,0.7,2.6,1.2,4.1,1.3c2.1,0,4.2-1.1,6.1-2c4.2-2.2,8.3-4.7,12.1-7.5l0.8-0.5l-4.5-2.1
		c-4.1,4.2-7.9,8.7-11.5,13.3c-1,1.3-1.9,2.6-2.8,4c-0.6,0.9-1.1,1.9-1.2,2.9c0,0.3,0.1,0.5,0.3,0.7c0.3,0.3,0.7,0.6,1.1,0.8
		c1,0.5,2,1,3,1.3c1.8,0.5,3.6,0.4,5.4-0.2c3.5-1,6.9-2.4,10.1-4.2l-4.5-2.1c-1.1,1.3-2.2,2.6-3.2,4c-1,1.5-3.1,4.1-2.5,6.1
		c0.4,1.4,2.9,2.2,4,2.6c1.2,0.5,2.5,0.6,3.8,0.3c2.8-0.9,5.4-2.4,7.7-4.2c1.8-1.3,3.5-2.6,5.1-4.1l-4.5-2.1c-1,1.4-1.7,2.9-2,4.6
		c-0.2,0.9,0.1,1.9,0.9,2.5c1.6,1.2,3.5,2,5.5,2.3c2.2,0.2,4.6-1,6.6-1.9c2.6-1.2,5.1-2.6,7.6-4.1c1.4-0.9,2.9-1.8,4.3-2.7l-4.5-2
		c1.2,2,2.8,3.8,4.6,5.3c4.1,3.6,9.1,6,14.5,7c3.4,0.5,6.8,0.1,9.9-1.1l-4.5-2c1.7,2.6,3.4,5.2,5.2,7.8c2.3,3.4,4.5,7,7,10.2
		c0.7,0.9,4.7,3.3,5.1,2.5c0.2-0.3-0.7-2.1-0.8-2.5c-0.4-1.1-0.7-2.3-1-3.4c-0.5-2-0.9-4-1.2-6c-0.8-5.7-0.6-11.6,1.6-17
		c1.1-2.8,2.8-5.3,5-7.3c0.2-0.1-2-1.3-2.1-1.3c-0.4-0.2-2-1.1-2.4-0.8c-6.6,5.7-7.7,15.5-6.8,23.6c0.3,2.4,0.7,4.7,1.3,7
		c0.4,1.4,0.8,2.8,1.2,4.1c0.1,0.4,0.4,1.7,0.6,1.7l1.1,0.3l0,0l2.7,1.3c0.9,0.5,0.2,0.1-0.1-0.4s-0.7-1-1-1.4
		c-1.1-1.5-2.1-3-3.1-4.5c-2.2-3.2-4.3-6.4-6.5-9.7c-0.5-0.8-1-1.5-1.5-2.2s-1.8-1.1-2.4-1.4s-1.5-0.8-2.1-0.6
		c-3.2,1.2-6.6,1.5-9.9,1c-0.7-0.1-1.4-0.3-2-0.5c0,0-0.4-0.1-0.2-0.1c-0.7-0.2,0.4,0.3-0.2-0.1c-0.8-0.5-1.6-1-2.4-1.6
		c-2.1-1.6-3.9-3.6-5.3-5.9c-0.4-0.6-1.8-1.1-2.4-1.4c-0.4-0.2-1.7-0.9-2.1-0.6c-2.8,1.9-5.8,3.7-8.8,5.3c-2.1,1.2-4.3,2.1-6.6,2.9
		c-0.8,0.2-1.7,0.3-2.5,0.4h-0.1c-0.7-0.1-0.2,0.2,1.3,0.7l1.5,0.7l-0.1-0.1c0-0.2-0.2-0.4-0.3-0.6c-0.1-0.4-0.1-0.9,0-1.3
		c0.4-1.6,1-3.1,2-4.5c0.1-0.1-4-2.6-4.5-2.1c-3.1,2.9-6.5,5.3-10.2,7.3c-1.1,0.6-2.2,1-3.4,1.2c-0.2,0-0.4,0-0.6,0
		c-1.8,0.1,2.8,1.4,2.9,1.5c-0.2-0.3-0.3-0.6-0.3-0.9c0-2,1.6-4,2.6-5.5c1-1.4,2-2.8,3.2-4c0,0-3.8-2.5-4.5-2.1
		c-2.5,1.3-5,2.4-7.6,3.4c-1.8,0.7-3.6,1.2-5.6,1.3c-0.3,0-0.5-0.1-0.8-0.1l3.5,1.7l-0.1-0.1c0-0.1-0.1,0-0.1-0.1
		c0-0.3,0-0.6,0.1-0.9c0.7-2.5,2.8-4.9,4.3-6.9c2.2-2.8,4.5-5.5,6.8-8.1c1.4-1.6,2.8-3.1,4.2-4.6c0.2-0.2-2-1.2-2.1-1.3
		c-0.4-0.2-1.9-1.1-2.4-0.8c-2.8,2-5.7,4-8.7,5.7c-2.2,1.3-4.4,2.5-6.8,3.5c-0.9,0.4-1.8,0.6-2.8,0.7c-0.3,0-0.6,0-0.9,0
		c0.1,0,3.3,1.5,3.3,1.5s-0.1-0.1-0.1-0.1c0-0.1-0.1-0.2-0.1-0.4c-0.4-1.4,1.2-3.3,2-4.3c1.7-2.1,3.6-4.1,5.7-5.9
		c2.2-2,4.5-3.8,7-5.4c1.9-1.2,4-2.6,6.2-3.1s4.9,0.3,7.2,0.7c4.3,0.9,8.5,2,12.8,3.1c10.1,2.8,20.2,5.9,30.2,9.1
		c6.1,1.9,12.1,4,18.2,6l0.3,0.1c0.8,0.3,0.9,0,0.2-0.4C319.9,390.2,318.9,389.7,317.8,389.3z"></path><path class="st0" d="M259.6,387c0,0-11.3,10.8-13.3,13.9"></path><path class="st1" d="M257.2,387c-3.7,3.5-7.4,7.1-10.8,10.9c-0.9,0.9-1.7,1.9-2.4,3c-0.4,0.7,1.5,0.8,1.8,0.8
		c0.6,0,1.3-0.1,1.9-0.2c0.3-0.1,0.9-0.2,1.1-0.5c1.6-2.2,3.4-4.2,5.3-6.1c2.1-2.2,4.3-4.4,6.5-6.5c0.5-0.5,0.9-0.9,1.4-1.4
		c0.6-0.6-1.6-0.8-1.8-0.8C259.2,386.1,258.1,386.4,257.2,387L257.2,387z"></path><path class="st0" d="M268.9,392.7c0,0-9.9,6.6-10.9,11.4"></path><path class="st1" d="M267,391.2c-1.2,0.8-2.4,1.7-3.5,2.6c-2.2,1.7-4.2,3.6-5.9,5.8c-0.9,1.1-1.5,2.3-1.8,3.6
		c-0.1,0.4,0.4,1,0.6,1.2c0.5,0.5,1,0.8,1.6,1.1c0.8,0.3,2,0.6,2.3-0.5c0-0.2-0.1,0.2,0-0.1c0-0.1,0.1-0.2,0.1-0.3
		c0.1-0.2,0.2-0.5,0.3-0.7c0.3-0.5,0.6-1,1-1.5c0.4-0.5,0.8-1,1.2-1.5c0.1-0.1,0.2-0.2,0.3-0.3l0.2-0.2l0.8-0.8
		c1.7-1.6,3.5-3.1,5.4-4.5c0.4-0.3,0.8-0.6,1.2-0.9C272.4,393.2,268.4,390.3,267,391.2L267,391.2z"></path><path class="st0" d="M333.8,229.8c0,0,23.7-1.9,24.8-12s-12.7-3.9-12.7-3.9s11.5-23.3-12.4-20.3c0,0,15.1-19.4-3.6-28.4
		s-46.1,7.9-46.1,7.9s-4.9-20.5-27.5-11.4s-13.5,19.7-13.5,19.7s-14.5,5.7-13,12.8s13.5,6.7,13.5,6.7s9.8,18.8,29.3,10.2l26.6,19.6
		c0,0-4.4,11.1,5.8,18.4C315.2,256.2,338.5,242.4,333.8,229.8z"></path><path class="st1" d="M334.7,231.9c6.3-0.5,13-1.8,18.6-4.7c3.5-1.7,6.9-4.5,7.5-8.6c0.6-4.8-2.5-8.8-7.3-8.9c-3.1,0-6.1,0.7-9,2
		l3.5,3.4c3.4-6.9,5.2-17.7-2.8-22.2c-3.8-2.1-8.4-2.1-12.6-1.6l2.7,3.9c5.7-7.3,9.1-18.6,2.5-26.4c-5.4-6.4-14.1-8.7-22.2-8.6
		c-7.4,0.1-14.8,2.2-21.7,5c-4,1.6-7.9,3.5-11.6,5.7l3.6,2.3c-1.7-6.9-7.1-13.4-14-15.4c-7.4-2.1-15.2,0.4-21.8,3.9
		c-4.9,2.6-10.5,6.5-11.2,12.5c-0.3,2.8,0.5,5.6,2.2,7.9l0.3-2.8c-1.6,0.7-3.2,1.4-4.7,2.3c-2.9,1.4-5.4,3.5-7.4,6
		c-2.1,2.7-2.3,6.5-0.3,9.4c2,3,5.4,4.6,8.8,5.4c2.1,0.5,4.3,0.7,6.5,0.6l-2.9-1.9c3.9,7.5,11.8,13.6,20.3,14.3
		c4.3,0.2,8.5-0.6,12.4-2.4l-2.1-0.3l23.3,17.1l3.3,2.4l-1.3-3.1c-3.3,8.4,1,18.7,9,22.6c4.3,2.1,9.4,1.5,13.8,0.1
		c4.7-1.5,9-4.3,12.3-8c3.5-4,5.3-9.2,3.5-14.4c-0.5-1.2-1.6-2-2.9-1.9c-1.3,0.2-1.5,1.4-1.1,2.4c0.5,1.5,0.5,3.2,0.1,4.7
		c-0.5,1.8-1.4,3.4-2.5,4.8c-2.7,3.3-6.1,5.8-10,7.4c-3.4,1.5-7.9,2.4-11.1,1.4c-0.4-0.1-0.8-0.3-1.2-0.4c-0.1,0-0.5-0.2-0.2-0.1
		c-0.2-0.1-0.4-0.2-0.6-0.3c-1.1-0.7-2.1-1.5-2.9-2.5c-1.3-1.5-2.3-3.4-2.7-5.4c-0.4-1.9-0.4-3.8,0-5.6c0.1-0.4,0.1-0.8,0.2-1.1
		s-0.1,0.4,0,0c0-0.1,0.1-0.2,0.1-0.4s0.1-0.5,0.2-0.7c0.5-1.2-0.4-2.4-1.3-3.1l-21-15.4l-4.5-3.4c-0.3-0.2-0.6-0.5-1-0.7
		c-1.6-1-3.1,0.1-4.7,0.6c-3.3,1.2-6.8,1.4-10.2,0.8c-2.6-0.5-5-1.6-7.1-3.3l-0.4-0.3c-0.6-0.4,0.4,0.3-0.2-0.1
		c-0.3-0.2-0.6-0.4-0.8-0.7c-0.5-0.4-1-0.9-1.4-1.4c-0.2-0.2-0.4-0.4-0.6-0.6l-0.3-0.3c-0.3-0.4,0.2,0.3,0,0s-0.7-0.8-1-1.2
		c-0.5-0.6-0.9-1.3-1.4-2c-0.1-0.2-0.2-0.4-0.4-0.6c-0.2-0.4,0.4,0.6,0.2,0.3c-0.5-1.2-1.7-1.9-2.9-1.9H242c-0.2,0,0.6,0,0.1,0h-0.6
		c-1,0-2-0.1-3-0.3c-1.2-0.2-2.4-0.5-3.5-0.9c-0.5-0.2-0.9-0.4-1.4-0.7c-0.1-0.1-0.8-0.6-0.4-0.3c-0.2-0.2-0.5-0.4-0.7-0.6
		c0.3,0.4-0.2-0.3-0.3-0.4c-0.3-0.4-0.1-0.2-0.1-0.1c-0.1-0.1-0.1-0.3-0.2-0.4c-0.2-0.4-0.2-0.9-0.2-1.4c0.2-1,0.6-2,1.2-2.8
		c1.7-2.1,3.9-3.8,6.3-5c1.5-0.9,3.1-1.6,4.7-2.3c1.1-0.4,0.9-2.1,0.3-2.8c-0.1-0.1-0.2-0.2-0.3-0.4l-0.2-0.4
		c-0.4-0.7,0.1,0.4-0.1-0.1c-0.1-0.2-0.2-0.4-0.3-0.7s-0.3-1.1-0.2-0.4c-0.1-0.3-0.1-0.6-0.2-0.9l-0.1-0.4V177c0-0.4,0,0.3,0,0.1
		c0-0.4,0-0.7,0.1-1.1c0-0.2,0-0.4,0.1-0.6s0.2-0.7,0.1-0.3c0.3-0.9,0.7-1.8,1.2-2.7c0.6-0.9,1.4-1.7,2.1-2.4c1.2-1.1,2.4-2,3.8-2.9
		c5.6-3.5,12.9-6.6,19.7-5.5c0.5,0.1,1,0.2,1.5,0.3c0.6,0.2,1.1,0.4,1.6,0.6c0.2,0.1,0.5,0.2,0.7,0.3s-0.3-0.2,0,0l0.4,0.2
		c0.5,0.3,0.9,0.6,1.4,0.9c0.2,0.1,0.6,0.4,0.2,0.1l0.6,0.5c0.4,0.3,0.7,0.6,1.1,1c0.2,0.2,0.3,0.4,0.5,0.5c0.3,0.4-0.3-0.4,0.1,0.1
		c0.3,0.4,0.5,0.7,0.8,1.1s0.5,0.8,0.8,1.2l0.3,0.6c-0.2-0.4-0.1-0.2,0,0.1c0.3,0.6,0.6,1.3,0.9,2c0.2,0.5,0.3,1,0.5,1.4
		c0.1,0.3-0.2-0.6,0-0.1v0.1c0.3,1.3,2.1,3.2,3.6,2.3c2.7-1.6,5.5-3.1,8.4-4.4c6-2.8,12.5-4.7,19-5.7c6.8-0.9,14.4-0.3,20.1,4
		c2,1.5,3.5,3.7,4,6.1c0.4,2.4,0.3,4.8-0.4,7.1c-0.7,2.4-1.7,4.8-3,7c-0.2,0.4-0.5,0.8-0.7,1.2l-0.3,0.5c0.2-0.4,0-0.1-0.1,0.1
		s-0.4,0.5-0.5,0.8c-1.3,1.7,0.9,4.1,2.7,3.9c1.8-0.3,3.7-0.3,5.6-0.2c1.3,0.1,2.5,0.4,3.6,0.9c0.4,0.1-0.5-0.3,0,0
		c0.1,0.1,0.2,0.1,0.3,0.2c0.2,0.1,0.4,0.3,0.7,0.4s-0.5-0.4-0.1,0l0.2,0.2c0.2,0.2,0.6,0.8,0.2,0.2l0.5,0.6
		c0.4,0.5-0.1-0.2,0.1,0.1s0.2,0.5,0.3,0.7s0.3,0.9,0.1,0.3c0.1,0.5,0.2,0.9,0.3,1.4c0,0.2,0,0.5,0.1,0.7s0,0.5,0,0
		c0,0.2,0,0.3,0,0.5c0,1-0.1,2-0.2,2.9c-0.1,0.5-0.2,0.9-0.3,1.4c0,0.3-0.1,0.5-0.2,0.8c0.1-0.4-0.1,0.2-0.1,0.4
		c-0.2,0.8-0.5,1.6-0.8,2.4c-0.3,0.9-0.7,1.8-1.1,2.6c-0.9,1.8,1.8,4.1,3.5,3.4c0.6-0.3,1.2-0.5,1.9-0.7c1.3-0.5,2.6-0.8,3.9-0.9
		c0.6-0.1,1.3-0.1,1.9-0.1c0.2,0,1,0.2,0.5,0.1l0.5,0.2c0.3,0.1-0.3-0.3,0.2,0.1s-0.5-0.3,0,0s-0.4-0.4,0,0s-0.2-0.4,0,0.1
		c0.1,0.1,0.1,0.2,0.1,0.4c-0.2-0.5,0,0.2,0,0.2c0,0.2,0.1,0.5,0.1,0.7c0,0.5,0,1-0.1,1.5c0,0.3-0.1,0.5-0.2,0.7
		c-0.1,0.3-0.3,0.7-0.4,1c-0.4,0.7-0.9,1.2-1.4,1.8c-1.2,1.1-2.6,2-4,2.6c-3.4,1.5-7,2.6-10.6,3.3c-2.2,0.5-4.4,0.8-6.7,1
		c-1.2,0.1-1.5,1.5-1.1,2.4C332.1,231.3,333.4,232.1,334.7,231.9z"></path><path class="st0" d="M257.5,268.6c-17.2-14.3-11.5-64.8-11.5-64.8c17-0.7,39.1-23.4,39.1-23.4C281,197.6,302,222,302,222
		c3.3-15.3,18.2-18.2,20-4.4s-10.9,18.1-10.9,18.1s16.4,41.5,16.2,47.2s-29.8,19.1-44.1-5.4C283.2,277.5,272.5,281.1,257.5,268.6z"></path><path class="st1" d="M259.5,267.3c-3.6-3-5.9-7.3-7.5-11.6c-1.8-5.2-3-10.5-3.6-16c-1.1-10-1.3-20-0.6-30c0.1-2.1,0.3-4.2,0.5-6.3
		l-3,2.4c8-0.4,15.6-4.4,22.1-8.6c5.7-3.8,11.2-8.1,16.2-12.8c1-1,2.1-1.9,3.1-3l-4-0.6c-1.8,7.5,0.6,15.4,3.8,22.2
		c2.9,6.1,6.5,11.9,10.7,17.2c0.9,1.1,1.7,2.2,2.6,3.3c1.1,1.2,4-0.1,4.3-1.5c0.5-2.3,1.3-4.5,2.5-6.6c0.9-1.5,2.1-2.8,3.5-3.8
		l0.6-0.4c-0.4,0.2-0.1,0,0,0l0.6-0.3c0.1,0,0.8-0.3,0.2-0.1c0.3-0.1,0.7-0.2,1-0.2c-0.4,0.1,0.6,0,0.8,0c0.5,0.1,0.9,0.1,1.4,0.3
		c0.6,0.2,1.2,0.6,1.8,1.1c3,2.7,3.5,7.6,3,11.4c-0.5,3.3-2.2,6.4-4.9,8.5c-0.3,0.3,0.5-0.3-0.1,0l-0.6,0.5
		c-0.3,0.2-0.6,0.4-0.9,0.6s-0.6,0.3-0.8,0.5c0.7-0.4-0.1,0.1-0.3,0.1c-0.4,0.2-0.8,0.4-1.1,0.5s-1.1,0.4,0.1,0
		c-1,0.3-2.8,1.3-2.3,2.7c4.6,11.6,9.1,23.3,13,35.1c1,2.9,1.9,5.9,2.7,8.8c0.1,0.3,0.1,0.5,0.2,0.8c0.1,0.4-0.1-0.4,0,0.1
		c0,0.1,0,0.2,0.1,0.4c0.1,0.4,0.1,0.8,0.2,1.2c0,0.1,0,0.3,0,0.4c0,0.4,0.2-0.3,0,0c-0.1,0.2-0.4,0.7,0,0.1l-0.4,0.6
		c-0.3,0.4,0.3-0.3-0.2,0.2l-0.5,0.5c-0.1,0.1-0.9,0.7-0.3,0.2c-0.3,0.2-0.6,0.4-0.9,0.6c-0.5,0.4-1,0.7-1.6,1
		c0.6-0.4-0.4,0.2-0.6,0.3c-0.3,0.2-0.7,0.3-1,0.5c-0.8,0.3-1.5,0.6-2.3,0.9c0.6-0.2-0.5,0.2-0.7,0.2c-0.5,0.1-0.9,0.3-1.4,0.4
		c-0.9,0.2-1.8,0.4-2.7,0.6c-0.3,0.1-0.5,0.1-0.8,0.1c-0.6,0.1-1.1,0.1-1.7,0.2c-4.4,0.4-8.7-0.4-12.7-2.2c-5-2.4-9.1-6.4-11.8-11.2
		c-0.5-0.7-1.5-1-2.3-0.7c-0.2,0.1-0.3,0.1-0.5,0.1l-0.6,0.1c-0.2,0-0.5,0,0.2,0l-0.5,0.1c-0.7,0.1-1.4,0.1-2.2,0.1h-0.6
		c0.5,0-0.4,0-0.4,0c-0.5,0-1-0.1-1.5-0.2C270.5,275.1,264.5,271.5,259.5,267.3c-1.7-1.3-5.9,1.3-4.1,2.8c5.6,4.6,12.1,8.5,19.4,9.5
		c2.8,0.5,5.7,0.4,8.4-0.3l-2.3-0.7c2.7,4.7,6.5,8.6,11.2,11.4c4,2.2,8.5,3.5,13.1,3.6c7.2,0.3,15.4-1.6,21.1-6.2
		c1.7-1.4,3.6-3.2,3.4-5.6c-0.4-2.6-1-5.1-1.9-7.5c-2.5-7.9-5.4-15.7-8.3-23.5c-2-5.3-4-10.7-6.1-16l-2.3,2.7
		c6.3-2.1,11.8-7.4,13.1-14c0.9-4.6,0.4-10.6-3.2-14.1c-3-3-7.7-2.9-11.3-1.1c-5.4,2.7-8.7,8.2-10,13.9l4.3-1.5
		c-2.4-2.8-4.6-5.8-6.6-8.9c-4-6.1-7.7-12.8-9.5-19.9c-1.1-3.7-1.3-7.7-0.5-11.5c0.6-2.4-3-1.6-4-0.6c-2.6,2.6-5.3,5.1-8.1,7.4
		c-5.4,4.7-11.4,8.6-17.9,11.8c-3.4,1.7-7,2.7-10.8,3c-1.4,0-2.7,1-3,2.4c-0.6,6-1,12-0.9,18.1c0,11.2,0.7,22.8,4.2,33.5
		c1.7,5.2,4.3,10.4,8.6,14C257.1,271.4,261.3,268.8,259.5,267.3z"></path><path class="st0" d="M269.7,249.9c0,0-27.9,18.5-40.6,5.4s5.3-30.6,28.3-25.6"></path><path class="st1" d="M268.9,249.8l-0.6,0.4c-0.2,0.1-1.1,0.6-0.2,0.1l-1,0.6l-1.1,0.6l-0.7,0.4l-0.3,0.2c-0.1,0.1,0.4-0.2-0.1,0
		c-1.1,0.6-2.3,1.2-3.5,1.7c-2.5,1.2-5.2,2.2-7.8,3c-3,1-6.1,1.5-9.2,1.7c-6.4,0.2-12.4-2.3-15.6-8c-3-5.3-1.3-11.5,3-15.5
		c2.5-2.2,5.7-3.7,9-4.2c4.8-0.9,9.8-0.9,14.6,0.2c0.8,0.2,2.2-0.8,2.8-1.2c0.2-0.1,1.8-1.3,1.2-1.4c-9.2-2-18.7-0.3-26.7,4.6
		c-5.6,3.4-11,9.2-9.8,16.2c1.2,6.8,7.7,11.3,14.2,12c7,0.7,14.1-1.7,20.4-4.4c4.5-1.9,8.8-4.2,12.9-6.8c0.3-0.2,1.7-1,1.2-1.4
		S269.2,249.6,268.9,249.8L268.9,249.8z"></path><path class="st0" d="M292.4,241.7c0,0-3.7,1.9-7,7.4"></path><path class="st1" d="M290.1,240.9c-0.5,0.3-1,0.6-1.5,1c-1.2,1-2.4,2.1-3.4,3.3c-0.9,1-1.6,2.1-2.3,3.3c-0.2,0.3,0.4,0.7,0.5,0.8
		c0.5,0.3,1.1,0.6,1.6,0.7c0.6,0.2,1.2,0.2,1.8,0.2c0.4,0,0.7-0.1,0.9-0.4c0.3-0.5,0.7-1.1,1-1.6l-0.1,0.2c1.2-1.7,2.5-3.2,4.1-4.5
		c0.6-0.5,1.2-0.9,1.9-1.3c0.3-0.2,0.1-0.6-0.1-0.8c-0.4-0.4-0.8-0.6-1.3-0.8C292.2,240.6,291.1,240.5,290.1,240.9L290.1,240.9z"></path><path class="st0" d="M280.6,223.4c0,0,4.1-9.2-3-15.6"></path><path class="st1" d="M283,223.8c0.8-1.9,1.2-3.9,1.2-5.9c0.2-4.2-1.5-8.2-4.5-11c-0.9-0.8-2.3-1.1-3.4-0.6
		c-0.8,0.3-1.8,1.4-0.9,2.2c2.7,2.4,4.1,5.9,3.8,9.5c0,0.7-0.1,1.4-0.2,2.1c0,0.1,0,0.3-0.1,0.4c0,0.3,0.1-0.3,0,0.2
		c-0.1,0.2-0.1,0.5-0.2,0.7c-0.1,0.5-0.3,1-0.5,1.5C277.2,225.1,282.2,225.8,283,223.8L283,223.8z"></path><path class="st1" d="M270.3,218.1c0,0,1.2,2.4-1.3,3.4s-3.6-2.1-1.8-3.6c0.8-0.8,2-0.8,2.8-0.1C270.1,218,270.2,218,270.3,218.1z"></path><path class="st1" d="M259.9,221.3c0,0,1.2,2.5-1.3,3.4s-3.6-2.1-1.8-3.6c0.8-0.8,2-0.8,2.8-0.1
		C259.8,221.1,259.9,221.2,259.9,221.3z"></path></g><g id="device"><path class="st2" d="M221.6,412.6c0,0,83,0.3,85.3,3.8s6.8,10.7,6.8,10.7l-80.9-0.5L221.6,412.6z"></path><path class="st2" d="M51.2,425.8c0,0-24.7-133.8-18.3-139.3s205.4-5.6,210.2,2.4s-5.6,135.4-10.4,137.7S65.5,428.1,51.2,425.8z"></path><path class="st0" d="M118.4,366.5c1.7,1.4,3.6,2.5,5.7,3.2c1.9,0.7,4,1,6,1c2.2,0,4.3-0.2,6.5-0.6c2.3-0.3,4.6-0.8,6.8-1.6
		c3.3-1.2,6.8-3.4,7.6-7.1c0.6-2.8-0.4-5.6-1.6-8c-0.8-1.6-1.8-3.1-3-4.5c-0.2-0.3-1.3-0.1-1.5-0.1c-1.2,0.1-2.4,0.2-3.5,0.4
		c-1.2,0.2-2.3,0.4-3.5,0.7c-0.1,0-1.5,0.5-1.4,0.6c2.5,2.7,4.2,6.1,4.8,9.7c0.4,2.7-0.7,5.4-2.9,7.1c-0.7,0.6-1.5,1.1-2.3,1.5
		c-0.4,0.2-0.8,0.4-1.2,0.5c-0.9,0.3,0.5-0.1-0.4,0.1c1.2-0.3,2.5-0.5,3.7-0.6c1.5-0.1-0.5,0,0.4,0h-0.7c-0.4,0-0.8-0.1-1.1-0.1
		c-0.9-0.1-1.7-0.3-2.6-0.6c-2.2-0.7-4.2-1.7-5.9-3.2c-0.3-0.3-1.2-0.1-1.5-0.1c-1.2,0.1-2.4,0.2-3.5,0.4c-1.2,0.2-2.3,0.4-3.5,0.7
		C119.7,366,118.3,366.5,118.4,366.5L118.4,366.5z"></path></g></svg>