<svg transform="scale(1)" version="1.1" id="Z3w4yFDqW7" xmlns="http://www.w3.org/2000/svg" xmlns:xlink="http://www.w3.org/1999/xlink" x="0px" y="0px" viewBox="0 0 500 500" xml:space="preserve" class="pbimage_pbimage__wrapper__image__0LEis false"><title>Empty Cart</title><style type="text/css"> .st0{fill:#FFFFFF;} .st1{fill:#000005;} .st2{fill:#59BE4C;}
 .st2{fill:#59BE4C;}
 .st1{fill:#000005;}
 .st0{fill:#FFFFFF;}</style><g id="cart"><path class="st0" d="M91.6,381.7c0,0,1.8,14,0,14.5s-37.6,7.9-37.2,4.9s25.1-21.2,25.1-21.2L91.6,381.7z" fill="#FFFFFF"></path><path class="st1" d="M89.2,381.5c0.3,2.7,0.6,5.5,0.7,8.2c0.1,1.6,0.1,3.3-0.1,5c0,0.4-0.2,0.9-0.4,1.2c-0.1,0.2,0.2-0.1,0,0
		c-0.1,0-0.2,0.1-0.3,0.1c-5.7,1.3-11.5,2.4-17.2,3.4c-3.6,0.6-7.2,1.2-10.8,1.6c-0.8,0.1-1.5,0.2-2.3,0.2c-1,0.1-1,0.1-1.8,0.1
		c-0.2,0-1,0-0.3,0h-0.4c-0.5,0,0.7,0,0.2,0s0.4,0,0.5,0.1s0.3,0.1,0.2,0c0.2,0.2-0.1-0.1-0.1-0.2c0-0.2,0.1-0.5,0.2-0.7
		c0.6-0.8,1.2-1.6,2-2.2c2.5-2.5,5.3-4.7,8-6.9c4.8-3.9,9.8-7.7,14.8-11.4l-3.7,0l12,1.8c0.9,0.1,2.6,0.4,3.4,0s-0.5-0.5-0.9-0.6
		l-10.6-1.5c-1.6-0.2-3.8-0.8-5.2-0.1c-0.7,0.5-1.4,1-2.1,1.6c-6.9,5.1-13.9,10.3-20.2,16.2c-1,0.8-1.9,1.8-2.7,2.9
		c-0.4,0.7-0.2,1,0.6,1.3c1.8,0.5,3.7,0.6,5.5,0.5c1.9,0,3.7-0.2,5.6-0.4c8.7-1,17.3-2.6,25.9-4.4c1.1-0.2,2.3-0.5,3.4-0.7
		c1-0.2,1.4-0.5,1.6-1.5c0.2-2.1,0.2-4.2,0-6.2c-0.1-2-0.3-4-0.5-6.1l-0.1-1C94,381,89.1,381.2,89.2,381.5z" fill="#000005"></path><path class="st0" d="M139.9,376c0,0-1.8,14,0,14.5s39.3,0.5,38.8-2.5s-26.8-13.8-26.8-13.8L139.9,376z" fill="#FFFFFF"></path><path class="st1" d="M137.5,375.4c-0.5,3.4-0.7,6.9-0.8,10.4c0,1.8-0.1,4,1.1,5.5c1,1,2.4,1.5,3.8,1.4c8,0.3,16.1,0.2,24.1-0.3
		c3.8-0.1,7.5-0.4,11.2-1.1c1.2-0.1,2.4-0.5,3.4-1.2c1.2-1,0.6-2.4-0.2-3.4c-1.2-1.2-2.5-2.2-4-3c-1.8-1.1-3.6-2-5.4-2.9
		c-4.1-2-8.3-3.9-12.5-5.7c-1.4-0.6-2.9-1.2-4.4-1.8c-0.9-0.5-2-0.8-3.1-0.8c-3.6,0.4-7.2,1-10.8,1.6l-1.1,0.2
		c-0.8,0.1-1.4,0.8-1.3,1.6c0,0.2,0.1,0.4,0.2,0.6c0.7,1.1,1.9,1.7,3.2,1.6l12-1.8l-1.8-0.3c4.9,2,9.7,4.1,14.5,6.4
		c1.7,0.8,3.4,1.6,5.1,2.5c0.7,0.4,1.5,0.8,2.2,1.2l0.9,0.5c0.2,0.1,1.4,0.8,0.7,0.4c0.5,0.3,1,0.6,1.4,1c0.2,0.1,0.3,0.3,0.5,0.4
		c0.4,0.2-0.4-0.4-0.1-0.1c0.1,0.1,0.1,0.1,0.2,0.2c0.2,0.3-0.2-0.3-0.2-0.5c0,0.2,0-0.5,0.1-0.6c-0.1,0.3,0.4-0.5,0.1-0.1
		c0.1-0.1,0.4-0.2,0,0c-0.1,0-0.3,0.1-0.4,0.2c-0.5,0.2,0.4-0.1-0.2,0s-1,0.2-1.6,0.3c-1.3,0.2-2.7,0.4-4,0.5
		c-3.5,0.3-7,0.5-10.3,0.6c-6.3,0.2-12.7,0.4-19,0.1l-1.1-0.1h-0.4c0-0.2,0.8,0.2,0.5,0.1c0.7,0.2,1.2,0.6,1.6,1.2
		c-0.2-0.3,0.1,0.5,0,0.1c0-0.2-0.1-0.4-0.1-0.5s0-0.2-0.1-0.3c0-0.1,0-0.3-0.1-0.4c-0.1-1,0-1.9,0-2.9c0.1-3.1,0.4-6.1,0.8-9.2
		C142.5,374.4,137.8,372.8,137.5,375.4z" fill="#000005"></path><path class="st1" d="M76.3,242.1c0,0-10.6,138.6-8,139.1s28.9,2.5,29.9,0s11.7-100.9,11.7-100.9s23.3,102.4,26.4,102.4
		s21.8-4,23.8-8.1s-17.2-128.8-17.2-128.8L76.3,242.1z" fill="#000005"></path><path class="st1" d="M74.4,241.3c-0.3,4.2-0.7,8.5-1,12.7c-0.8,10.4-1.5,20.7-2.2,31c-0.9,12.8-1.8,25.5-2.6,38.3
		c-0.8,11.6-1.5,23.2-2,34.8c-0.3,6.8-0.9,13.7-0.5,20.5c0,0.9,0.2,1.8,0.5,2.7c0.7,1.8,2.1,2.2,3.8,2.4c6,0.7,12.1,1,18.2,1
		c2.8,0.1,5.5,0,8.3-0.3c1.3-0.2,2.8-0.5,3.2-2c0.5-2.2,0.8-4.4,1-6.6c1.3-10.5,2.5-20.9,3.7-31.4c1.4-12.7,2.9-25.3,4.2-38
		c0.9-7.9,1.7-15.7,2.6-23.6c0-0.4,0.1-0.8,0.1-1.1l-3.7-1.7c1.1,4.8,2.2,9.5,3.3,14.3c2.5,10.8,5.1,21.6,7.6,32.3
		c2.8,11.5,5.6,22.9,8.6,34.3c1.1,4.3,2.3,8.6,3.6,13c0.7,2.7,1.6,5.4,2.7,8c0.4,1.2,1.3,2.3,2.4,3c0.7,0.2,1.4,0.3,2.1,0.1
		c1.2-0.1,2.3-0.4,3.5-0.6c3.3-0.6,6.5-1.5,9.7-2.5c3-0.8,5.8-2,8.4-3.6c1.2-0.7,2-1.9,2.1-3.3c0-0.8,0-1.5,0-2.3
		c-0.1-2.9-0.4-5.9-0.8-8.8c-1.1-10-2.4-20-3.8-30c-1.7-12.2-3.4-24.4-5.2-36.6c-1.6-10.9-3.2-21.8-4.9-32.6
		c-0.9-5.9-1.8-11.8-2.7-17.7c0-0.3-0.1-0.5-0.1-0.8c-0.1-1-1.2-2.5-2.3-2.6l-22.5-1.2l-35.8-2l-8.2-0.5c-2.6-0.1-0.9,4.4,1,4.5
		l22.5,1.3l35.8,2l8.2,0.5l-2.3-2.6c0.6,4,1.2,8.1,1.9,12.1c1.5,9.8,3,19.6,4.4,29.4c1.8,12,3.5,24,5.2,36
		c0.8,5.7,1.6,11.5,2.4,17.2c0.7,5.1,1.2,9.5,1.9,14.7c0.7,5.9,1.7,12,1.6,18c0,0.1-0.1,0.6,0,0.2s0,0,0,0.1
		c-0.2,0.4,0.4-0.4,0.1-0.1s-0.2,0.4-0.6,0.8c-2.2,1.8-5.1,2.7-7.7,3.5c-3.1,1-6.3,1.8-9.6,2.5c-1.2,0.3-2.4,0.5-3.7,0.7l-1.1,0.1
		c-0.3,0-0.5-0.1,0.1,0c0.3,0.1,0.6,0.2,0.8,0.4c0.3,0.2,0.5,0.4,0.7,0.7c-0.3-0.4,0.1-0.4,0.1,0.2c-0.1-0.4-0.3-0.7-0.5-1
		c-0.2-0.5-0.4-1-0.5-1.4c-0.1-0.3-0.2-0.6-0.3-0.9l-0.1-0.2c0.1,0.5-0.1-0.2-0.1-0.3c-1.2-3.6-2.2-7.3-3.2-10.9
		c-2.9-10.7-5.6-21.6-8.2-32.4c-2.7-11.2-5.4-22.4-8-33.6c-1.5-6.5-3-13-4.5-19.5l-0.2-0.9c-0.2-1-0.9-1.9-1.8-2.4
		c-0.6-0.3-1.7-0.2-1.8,0.7c-0.6,5.5-1.2,11-1.8,16.5c-1.3,11.9-2.7,23.9-4,35.8c-1.3,11.6-2.6,23.3-4,34.9
		c-0.4,3.6-0.9,7.2-1.4,10.7c-0.1,0.9-0.3,1.7-0.4,2.6s-0.1,0,0.2,0c-0.1,0-0.2,0.1-0.2,0.2c-0.4,0,0,0-0.1,0.1
		c-0.4,0.1-0.8,0.2-1.2,0.3c-2.7,0.3-5.3,0.5-8,0.4c-3.3,0-6.6-0.2-9.9-0.4c-2.6-0.2-5.2-0.3-7.8-0.6l-1.1-0.1c-0.1,0-0.2,0-0.3,0
		c-0.6,0,0.5,0.3,0.7,0.4c0.4,0.4,0.8,0.8,1.1,1.4c0.4,0.9,0.2,0.6,0.1,0.3c-0.1-0.5,0,0.1,0,0.2c0-0.2,0-0.3,0-0.5
		c0-0.4,0-0.8-0.1-1.3c0-1.2,0-2.4,0-3.6c0-3.6,0.2-7.3,0.3-11c0.5-10.8,1.1-21.7,1.8-32.5c0.8-12.7,1.6-25.3,2.5-38
		c0.8-11,1.6-22,2.4-33c0.4-5.9,0.9-11.8,1.3-17.6l0.1-0.8C78.3,241.1,74.7,238.3,74.4,241.3z" fill="#000005"></path><path class="st0" d="M70.1,244.2c0,0,25.9-95.7,54-79.6c49.8,28.4,39.3,92.9,39.3,92.9S85.2,270.2,70.1,244.2z" fill="#FFFFFF"></path><path class="st1" d="M72.6,243.9c0.7-2.6,1.5-5.1,2.3-7.7c1.9-6.3,4-12.5,6.3-18.6c2.8-7.8,5.9-15.4,9.5-22.9
		c3.3-7.2,7.3-14,12-20.4c2-2.6,4.2-5,6.7-7.2c1.1-0.9,2.3-1.7,3.5-2.5c0.5-0.3,1.1-0.6,1.6-0.8c0.5-0.2,1-0.4,1.5-0.5
		c0.3-0.1-0.4,0.1,0.1,0c0.1,0-0.5,0.1,0,0l-0.4,0.1c0,0-0.5,0.1-0.2,0c0.1,0-0.3,0,0,0s0.1,0,0.2,0l1,0.1c1.2,0.2,2.4,0.5,3.5,1
		c2.2,1,4.2,2.3,6.2,3.6c2.4,1.6,4.8,3.4,7,5.3c7.9,6.8,14.3,15.2,18.8,24.7c3.9,8.3,6.6,17.1,8.1,26.2c1.2,7.2,1.7,14.6,1.5,21.9
		c0,3.8-0.3,7.6-0.8,11.4c0,0.2-0.1,0.3-0.1,0.5l2.4-0.7c-0.7,0.1-1.4,0.2-2.1,0.3l-1.1,0.1c0.5-0.1,0.5-0.1,0,0l-0.8,0.1l-3.3,0.4
		c-1.3,0.2-2.7,0.3-4,0.5l-0.9,0.1c-0.1,0-0.7,0.1-0.1,0l-0.6,0.1l-2.4,0.2c-3.5,0.3-7.1,0.6-10.4,0.8c-8,0.5-16.1,0.5-24.2,0
		c-8-0.4-15.9-1.7-23.5-4C83.2,253.6,76.3,250.2,72.6,243.9c-0.2-0.4-2.1,0-2.5,0.1c-0.2,0-2.5,0.5-2.4,0.7
		c3.3,5.6,9.2,9.1,15.2,11.3c7.5,2.8,15.6,4,23.5,4.7c15.5,1.3,31.2,0.4,46.6-1.3c3.5-0.4,7-0.8,10.5-1.4c0.3,0,2.4-0.2,2.4-0.7
		c0.4-2.7,0.7-5.5,0.8-8.3c0.3-6.9,0.1-13.8-0.7-20.6c-1-9-3.3-17.9-6.7-26.3c-3.9-9.7-9.7-18.6-17.1-26c-4.1-4.1-8.7-7.6-13.6-10.6
		c-2.8-1.7-5.5-3-8.8-3.1c-6.7-0.1-13.1,2.7-17.6,7.5c-5.3,5.3-9.3,11.9-12.9,18.5c-4,7.6-7.5,15.4-10.6,23.4
		c-2.7,6.9-5.2,13.9-7.4,21c-1.2,3.8-2.4,7.6-3.4,11.4l-0.2,0.6c0,0.2,2.3-0.1,2.5-0.1C70.6,244.5,72.4,244.4,72.6,243.9z" fill="#000005"></path><path class="st0" d="M79.2,115.3c1.4-4.7,5.8-17.8,13.1-19.3s14.8,0.6,15.4,3.7c0,0,5.5-0.5,6.9,3.1c3.2,0.7,5.7,3,6.7,6.2
		c1.6,5.3,0.6,17.4-3.4,17.4s-4-11-4-11s-2,2.3-4.4,1.6c0,0,1.8,4-1.4,6.8s-8.5,1.3-8.5,1.3s-29.6,31.6-27.9,32.7s20.2,3.6,20.2,3.6
		s-12.1,26.6-17.4,26.8S30.7,175.1,36,157S79.2,115.3,79.2,115.3z" fill="#FFFFFF"></path><path class="st1" d="M81.4,116.2c1.2-4.2,2.9-8.2,5-11.9c1.2-2.1,2.7-3.9,4.6-5.3c2.3-1.6,5.4-1.7,8.1-1.6c1.6,0,3.2,0.3,4.8,0.9
		l0.7,0.3l0.4,0.2l0.3,0.2c-0.2-0.1,0.1,0.1,0.1,0.1c-0.2-0.2,0-0.1,0,0.1c-0.1-0.2,0,0.1,0,0.2c0.5,1.4,1.8,2.3,3.2,2.3
		c0.3,0,0.6,0,0.9,0c0.7,0,1.4,0.1,2,0.3c0.3,0,0.6,0.2,0.8,0.5c0.5,1.1,1.5,2,2.7,2.3l0.3,0.1c0.6,0.2-0.4-0.2,0.2,0
		c0.3,0.1,0.6,0.2,0.8,0.3s-0.5-0.3,0.1,0.1c0.2,0.1,0.4,0.2,0.6,0.4c-0.3-0.2,0.5,0.4,0.7,0.6s0.4,0.5,0.5,0.7
		c0.5,0.9,0.9,1.8,1,2.8c0.7,3.8,0.6,7.8-0.4,11.6c-0.3,1.3-1,2.5-2,3.3c0.2-0.2,0,0.1,0,0h-0.2c0.1,0,0.3,0,0.4,0
		c-0.4-0.1,0.8,0.5,0.7,0.4c0.2,0.1-0.1-0.1-0.1-0.1c-0.2-0.3-0.4-0.7-0.5-1c-0.8-2.5-1.2-5-1.1-7.6c0-1.8-3-3.8-4.4-2.2
		c0.2-0.2,0.2-0.2,0,0c-0.2,0.2-0.5,0.4-0.8,0.6c-0.5,0.4-1.2,0.6-1.9,0.5c-1.3-0.3-2.2,0.5-1.7,1.8c0.1,0.1,0.1,0.3-0.1-0.2
		c0.1,0.2,0.1,0.4,0.2,0.6c0.1,0.5,0.2,0.9,0.2,1.4c0,1.6-0.9,3.1-2.3,3.9c-1.9,1-4.2,1.2-6.2,0.5c-0.6-0.2-1.3,0-1.7,0.5
		c-5.9,6.4-11.8,12.9-17.5,19.4c-3.3,3.6-6.4,7.3-9.2,11.2c-0.7,1-1.6,2.2-1,3.4c1.1,2.1,4.4,2.5,6.5,2.9c5.3,1,10.8,1.8,16.2,2.5
		l-2.6-3c-1.3,2.9-2.8,5.8-4.2,8.6c-2.4,5-5.2,9.7-8.5,14.2c-0.6,0.8-1.3,1.5-2,2.2c-0.3,0.3-0.6,0.5-0.9,0.8l-0.4,0.3
		c0.8-0.5,1-1.6,0.4-2.4c-0.5-0.8-1.6-1-2.4-0.4s-1,1.6-0.4,2.4c0.5,0.7,1.5,0.9,2.2,0.5c-0.1,0.1-0.2,0.1-0.4,0.1
		c-0.1,0,0.5,0,0.1,0s-0.9-0.1-0.2,0c-0.7-0.1-1.4-0.2-2-0.4c-0.9-0.2-1.8-0.4-2.7-0.7l-0.7-0.2l-0.3-0.1l-1.7-0.6
		c-2.5-0.9-4.9-1.8-7.3-2.9c-5-2.2-9.7-5-13.9-8.5c-3.3-2.8-6.5-6.6-6.7-11.2c-0.2-5.1,3.2-10,6.2-13.8c4.1-5.1,8.7-9.7,13.7-13.8
		c7.3-6.1,15-11.7,22.9-16.9l0.4-0.3c1.8-1.2-2-4.2-3.7-3.2c-7.2,4.5-14.1,9.5-20.7,14.9c-5.4,4.3-10.4,9.1-15,14.2
		c-3.6,4.2-7.4,9.3-8.3,14.9c-0.8,5.3,2,10.3,5.5,14.1c4.3,4.4,9.3,8,14.9,10.6c5,2.6,10.1,4.7,15.5,6.2c3,0.9,6.5,2.1,9.2-0.2
		c1.7-1.6,3.2-3.4,4.5-5.4c1.7-2.5,3.1-5,4.6-7.6c2.2-4,4.3-8.1,6.2-12.3l0.3-0.7c0.6-1.4-1.3-2.9-2.5-3.1c-4.4-0.6-8.9-1.2-13.3-2
		c-1.3-0.2-2.7-0.5-4-0.8c-0.5-0.1-1-0.2-1.4-0.3l-0.6-0.2c0.4,0.1,0.3,0.2,0,0c0.7,0.5,1.3,1.1,1.7,1.8c-0.1-0.2,0.1,0.5,0,0.3
		s0,0,0,0.1c0-0.1,0.1-0.2,0.1-0.3c0.3-0.5,0.6-1,0.9-1.4c2.7-3.7,5.7-7.3,8.8-10.7c3.7-4.3,7.5-8.5,11.4-12.7
		c2.2-2.4,4.4-4.8,6.6-7.2l-1.7,0.5c3,0.8,6.8,0.8,9.4-1c2.9-2,3.5-5.7,2.1-8.8l-1.7,1.8c2.3,0.6,4.7-0.2,6.2-2l-4.4-2.2
		c0,2.4,0.2,4.7,0.8,7c0.8,3.2,3.3,7.7,7.4,6.7c3.2-0.8,4-5.5,4.3-8.2c0.5-3.9,0.5-8.4-1.1-12c-1.7-3.5-4.9-6-8.7-6.8l2.5,1.8
		c-1.5-3.7-6.2-5.3-9.9-5l3.2,2.3c-0.8-3.3-4.6-5-7.5-5.8c-4-1.1-8.1-1.1-12.1-0.1c-5.4,1.5-8.6,7.6-10.7,12.3
		c-1.1,2.5-2,5.1-2.8,7.8C76.4,116.2,80.8,118.4,81.4,116.2z" fill="#000005"></path><path class="st1" d="M105.5,105.2c-0.1,3.3-2.1,6.2-5,7.6c-1.3,0.7-2.8,1-4.3,1c0.2,0,0.1,0-0.2,0c0.1,0,0.2,0,0.3,0.1
		c0,0-0.4-0.1-0.1,0c0,0-0.3-0.1-0.2-0.1c-0.5-0.2-1-0.5-1.4-0.8c-1.4-1.2-2.4-3.5-0.8-4.9c0.7-0.6,1.4-0.9,2.3-1.1
		c0.3-0.1,0.7-0.2,1-0.2s0.6-0.1,0.1,0c0.1,0,0.8,0,0.8-0.3l0.1-1.9c0.1-1-4.9-1.6-4.9-0.9l-0.1,1.9l0.8-0.3
		c-1.6,0.1-3.1,0.6-4.5,1.4c-2.1,1.5-1.4,4.2,0.4,5.7c1.4,1.1,3,1.9,4.7,2.3c2.1,0.6,4.4,0.8,6.6,0.6c3.2-0.2,6.1-1.9,7.9-4.5
		c0.9-1.3,1.4-2.9,1.5-4.5C110.4,105.2,105.5,104.7,105.5,105.2L105.5,105.2z" fill="#000005"></path><path class="st1" d="M114.1,111.6c-0.5,1-1,2-1.8,2.9c-0.6,0.8-1.4,1.5-2.2,2.1c-0.2,0.1-0.4,0.3-0.6,0.4l-0.4,0.2l-0.2,0.1
		c-0.2,0.1,0.3-0.1,0,0s0.4-0.1,0,0c0.4-0.1,1.3-0.3,1.6-0.3c-0.2,0,0.2,0,0.2,0c-0.3,0,0,0,0,0h-0.5c-1.8-0.3-3.5-1-4.9-2.2
		c-0.2-0.1-0.5-0.1-0.8-0.1c-0.6,0-1.2,0.1-1.8,0.3c-0.6,0.1-1.1,0.3-1.7,0.4c-0.1,0-0.8,0.3-0.7,0.4c1.5,1.2,3.2,2,5.1,2.3
		c2.5,0.2,4.9-0.2,7.2-1.1c2.3-0.9,4.2-2.7,5.4-4.8c0.3-0.5,0.5-1,0.8-1.5c0.1-0.1-0.9-0.1-0.8-0.1c-0.6,0-1.2,0.1-1.8,0.3
		c-0.6,0.1-1.1,0.3-1.7,0.4C114.5,111.4,114.2,111.4,114.1,111.6L114.1,111.6z" fill="#000005"></path><path class="st1" d="M94.8,112.4c-1,0-2,0.2-2.9,0.6c-1.7,0.9-2.8,2.8-2.6,4.8c0.1,3.6,3.3,5.8,6.4,6.9c0.9,0.4,1.9,0.6,2.8,0.8
		c1.1,0.2,2.7-0.2,3.1-1.5c0.2-1.1-0.5-2.3-1.6-2.5c0,0-0.1,0-0.1,0c-0.5-0.1-1.1-0.3-1.6-0.4s0.5,0.2,0.2,0.1L98,121l-0.8-0.3
		l-0.8-0.4l-0.4-0.2l-0.1-0.1c-0.5-0.3,0.4,0.3,0.1,0.1s-0.4-0.3-0.7-0.5s-0.2-0.2-0.3-0.3c-0.1-0.1-0.1-0.1-0.2-0.2
		c0,0.1,0.4,0.5,0.2,0.2s-0.3-0.5-0.5-0.7s0-0.3,0.1,0.3c0-0.1-0.1-0.2-0.1-0.2c-0.1-0.1-0.1-0.3-0.1-0.4c0-0.1-0.1-0.2-0.1-0.2
		c0,0,0.1,0.6,0.1,0.3s0-0.4,0-0.6c0-0.2,0-0.4,0-0.6c0-0.3,0,0.2,0,0.2s0.1-0.3,0.1-0.4s0.1-0.2,0.1-0.4s-0.3,0.5-0.1,0.2l0.1-0.1
		l0.1-0.2c0.1-0.2-0.2,0.3-0.2,0.3l0.3-0.3c0.2-0.2-0.4,0.2-0.3,0.2c0.1,0,0.1-0.1,0.2-0.1l0.1-0.1c0.3-0.2-0.3,0.1-0.4,0.1
		c0.2,0,0.4-0.1,0.6-0.1c-0.1,0-0.8,0.1-0.4,0h0.4c1.3,0.1,2.4-0.9,2.5-2.1C97.3,113.1,96.1,112.4,94.8,112.4L94.8,112.4z" fill="#000005"></path><path class="st0" d="M90.2,199.5c0,0-50.9-10-56.8-33.1s37.4-50.8,40.5-50.4s21,14.8,20.2,17s-15.9,20.6-15.9,20.6
		s46.3,6.3,47.4,16" fill="#FFFFFF"></path><path class="st1" d="M91.1,197.5c-0.8-0.2-1.7-0.4-2.5-0.6l-1.2-0.3l-0.8-0.2l-0.5-0.1c-1.2-0.3-2.4-0.6-3.7-1
		c-6.7-1.8-13.2-4-19.6-6.7c-6.9-2.9-13.7-6.5-19.3-11.5c-4.8-4.3-8.7-10.1-8.4-16.6c0.3-7.3,4.6-13.9,9.1-19.4
		c5.1-6,11-11.4,17.4-16.1c0.7-0.5,1.3-1,2-1.5l1-0.7l0.1-0.1l0.6-0.4c1.2-0.8,2.4-1.6,3.6-2.3c1-0.6,1.9-1.1,2.9-1.6L73,118
		c0.3-0.1-0.7,0.2-0.1,0l0.5-0.2c0.6-0.3-0.6,0,0,0c-0.4,0-0.7,0-0.4,0c-0.7,0-0.4-0.1-0.3-0.1s0.5,0.2,0.7,0.3
		c1.1,0.5,2.1,1.1,3,1.8c3.1,2.1,6,4.4,8.9,6.8c1.3,1.2,2.7,2.3,3.9,3.6c0.5,0.5,1,1,1.5,1.6l0.3,0.3c0.2,0.2-0.3-0.3,0,0.1
		c0.2,0.2,0.3,0.4,0.5,0.7s0.2,0.4,0.3,0.6s0-0.4,0,0c0-0.2,0.2-0.8,0.1-0.6c-0.1,0.2-0.2,0.3-0.3,0.5c0.2-0.4,0.1-0.1-0.1,0.2
		l-0.4,0.6c-0.4,0.6-0.9,1.2-1.3,1.8c-4,5.4-8.2,10.6-12.5,15.7l-1,1.2c-0.6,0.6-0.7,1.6-0.1,2.2c0.3,0.3,0.6,0.4,1,0.5
		c5.1,0.7,10.2,1.6,15.3,2.6c8.4,1.7,17.1,3.5,24.9,7.2c1.5,0.6,2.9,1.5,4.2,2.6c0.3,0.2,0.5,0.5,0.8,0.7l0.1,0.1
		c0.3,0.3-0.2-0.2,0,0c0.1,0.1,0.2,0.2,0.2,0.3c0.2,0.3,0.3,0.5,0.4,0.8c0.1,0.3-0.1-0.4,0,0c0,0.2,0.1,0.3,0.1,0.5
		c0.3,2.6,5,0.8,4.7-1.5c-0.4-2.9-3.3-4.8-5.6-6.1c-3.6-1.9-7.5-3.4-11.4-4.5c-8.5-2.4-17.1-4.3-25.8-5.6c-2-0.3-3.9-0.6-5.9-0.9
		l0.9,2.7c3.8-4.6,7.5-9.1,11.1-13.8c1.9-2.2,3.6-4.5,5-7c1.2-2.3-1.4-4.5-2.9-6c-2.8-2.7-5.7-5.2-8.8-7.6c-2.5-2.1-5.3-4-8.2-5.5
		c-1.9-0.9-3.6-0.2-5.3,0.6c-2.3,1.1-4.4,2.4-6.5,3.8c-6.7,4.4-12.9,9.4-18.5,15c-5.8,5.9-11.4,12.7-14.1,20.7
		c-1.3,3.6-1.6,7.4-1.1,11.1c0.7,3.4,2.1,6.7,4.3,9.4c4.7,6.3,11.5,10.6,18.5,14.2c11.1,5.5,22.9,9.5,35.1,12l0.7,0.1
		C91.5,201.9,94.1,198.1,91.1,197.5L91.1,197.5z" fill="#000005"></path><g id="cart-2"><path class="st0" d="M118.2,399.4c0,0,139.8,34.3,157.8,34.3s148.8-35.2,160.5-47.8s30.7-133.5,30.7-133.5l-374.2,4.5
			C92.9,256.9,108.2,383.2,118.2,399.4z"></path><path class="st2" d="M118.4,401.5c8.7,2.1,17.4,4.2,26.1,6.3c18.9,4.5,37.8,8.9,56.7,13.3c18.3,4.2,36.6,8.3,55,11.8
			c5.7,1.1,11.5,2.2,17.3,2.8c3.9,0.3,7.9,0,11.7-0.8c16.9-2.8,33.5-7.2,50-11.5c20.7-5.5,41.4-11.4,61.7-18
			c8.2-2.7,16.4-5.5,24.4-8.8c5.1-2,10.5-4.2,15-7.4c3.4-2.5,5-6.8,6.4-10.6c2.6-7.4,4.8-14.9,6.6-22.5c4.9-19.6,8.7-39.5,12.3-59.4
			c2.5-13.7,4.9-27.4,7.1-41.1l0.3-2.1c0.1-1.7-1.1-3.1-2.8-3.3l-10.1,0.1l-27.1,0.3l-40.4,0.5l-49,0.6l-54,0.7l-54.1,0.6l-50.8,0.6
			l-42.7,0.5l-30.9,0.4c-4.8,0-9.7,0-14.5,0.2H92c-0.8,0-1.4,0.6-1.4,1.4c0,0.1,0,0.2,0,0.2c1.8,14.7,3.7,29.3,5.8,44
			c3.5,25.1,7.2,50.2,12.5,75c1.1,5.1,2.2,10.2,3.7,15.3c0.8,3.3,2,6.4,3.6,9.4c0.5,0.9,1.8,2,2.9,1.6s1-1.9,0.5-2.7
			c-0.3-0.4-0.5-0.9-0.7-1.3s0.2,0.4-0.2-0.4c-0.2-0.4-0.3-0.7-0.4-1c-0.6-1.5-1.1-3.1-1.6-4.6c-1.3-4.2-2.3-8.5-3.2-12.8
			c-2.6-11.5-4.6-23.1-6.5-34.7c-3.9-23.6-7.2-47.3-10.3-71c-0.7-5.2-1.3-10.3-2-15.5l-1.3,1.6l10.1-0.1l27.2-0.3l40.4-0.5l49-0.6
			l54-0.6l54.1-0.6l50.8-0.6l42.7-0.5l30.9-0.4c4.8-0.1,9.7,0.1,14.5-0.2h0.6l-2.8-3.3c-1.5,9.9-3.2,19.7-5,29.6
			c-3.4,19.7-7.1,39.3-11.4,58.8c-2,8.8-4,17.5-6.5,26.1c-1.6,5.6-3.2,11.5-6.2,16.5c-0.2,0.4-0.5,0.7-0.7,1.1
			c-0.4,0.5,0,0.1-0.5,0.6c-0.6,0.5-1.2,1-1.8,1.5c-1.8,1.2-3.8,2.3-5.8,3.2c-6.6,3.1-13.5,5.8-20.4,8.1
			c-19.5,6.9-39.3,12.7-59.2,18.2c-18.4,5.1-36.9,9.9-55.6,13.8c-5.1,1.2-10.3,2.1-15.5,2.5c-4.2,0.2-7.9-0.6-11.9-1.2
			c-16.8-2.8-33.4-6.5-50-10.2c-19.7-4.4-39.3-8.9-58.9-13.6c-12-2.9-24-5.8-36-8.7l-1.8-0.4C115,396.5,116.2,401,118.4,401.5z"></path><path class="st2" d="M92.9,256.9c0,0,199.3-27.1,212.8-27.1s162.3,13.5,161.4,22.6c-0.9,9-165,34.3-187.1,34.3
			S82.1,266.9,92.9,256.9z"></path><path class="st2" d="M93.3,259.1l14.9-2c12.5-1.7,24.9-3.3,37.4-5c16.5-2.2,32.9-4.4,49.4-6.6c16.7-2.2,33.3-4.3,50-6.5
			c13.5-1.7,27.1-3.4,40.6-5c6.6-0.8,13.4-1.9,20-1.9c9,0,18,1.1,26.9,1.9c16.1,1.4,32.2,3,48.3,4.8c16.6,1.8,33.3,3.8,49.8,6.4
			c6.5,1,13,2.1,19.4,3.4c2.5,0.5,5,1.1,7.4,1.7c1,0.2,1.9,0.5,2.9,0.8l1.3,0.4l0.5,0.2c0.6,0.2-0.3-0.1,0.1,0.1
			c0.6,0.2,1.2,0.5,1.8,0.8l0.6,0.4c0,0-0.3-0.4,0.1,0.1s-0.3-0.5,0-0.1c-0.1-0.2-0.1-0.4-0.1-0.6c0-0.3,0.2-0.5,0.4-0.7
			c-0.1,0.1-0.3,0.2-0.4,0.4c-0.4,0.4,0.6-0.3-0.2,0.1c-0.5,0.3-1.1,0.6-1.6,0.8c-0.3,0.1-0.6,0.3-1,0.4l-0.6,0.2
			c-0.6,0.3,0.4-0.1-0.1,0.1c-0.9,0.3-1.8,0.6-2.6,0.9c-11.8,3.8-24,6.2-36.1,8.6c-17,3.4-34.1,6.4-51.2,9.2
			c-16.9,2.8-33.8,5.3-50.8,7.7c-11.6,1.6-23.3,3.2-35,4.1c-7.3,0.5-14.6-0.2-21.9-0.8c-14-1.2-27.9-2.6-41.8-4.2
			c-17.2-2-34.3-4.1-51.5-6.5c-15.5-2.2-31-4.5-46.4-7.4c-5.7-1.1-11.5-2.3-17.1-3.7c-2.1-0.5-4.2-1.1-6.2-1.8l-1.2-0.4l-0.6-0.2
			l-0.3-0.1c-0.7-0.3-1.3-0.5-1.9-0.8c-0.5-0.2-0.9-0.5-1.4-0.8c-0.3-0.2,0.5,0.2-0.1-0.1c-0.1-0.1-0.2-0.3-0.3-0.4
			c0.5,0.5,0.2,0.4,0.1,0.1c0.3,0.7,0.2,0.5,0.1,0.3s0,0.6,0,0.4c-0.1,0.3-0.2,0.5-0.4,0.7c2.3-2.2-0.9-5.2-3.1-3.1
			c-6,5.6,8.2,9.1,11.2,9.9c12.4,3.4,25.3,5.5,38,7.5c17,2.8,34.1,5.1,51.2,7.3c16.7,2.1,33.3,4,50,5.8c11.2,1.1,22.4,2.3,33.7,2.9
			c7.8,0.4,15.7-0.6,23.5-1.5c15.3-1.8,30.6-4,45.8-6.2c17.9-2.7,35.7-5.6,53.6-8.8c15.4-2.8,30.9-5.7,46.2-9.3
			c5.1-1.2,10.3-2.5,15.3-4.2c2.8-0.9,6.3-1.9,8.5-4c6.3-6-10.2-9.2-13.1-9.9c-14-3.2-28.2-5-42.4-6.9c-17.5-2.3-35-4.2-52.5-6
			c-14.1-1.4-28.2-2.7-42.4-3.8c-5.8-0.6-11.6-0.7-17.4-0.3c-10.4,1-20.7,2.3-31,3.6c-15.8,1.9-31.7,3.9-47.5,6
			c-17.3,2.3-34.7,4.5-52,6.8c-15.2,2-30.4,4-45.6,6.1l-27.9,3.8l-3.8,0.5c-1.3,0.3-2.1,1.5-2,2.8C90.7,258.9,92.1,259.3,93.3,259.1
			z"></path><path class="st0" d="M365.5,284.2c0,0,77.4-80.2,75.1-90.6S340,156.3,327.7,162s-78.9,74.4-78.9,74.4l-20.1,2.6
			c0,0,83.9-87.8,99-90.2s125.1,18.4,128.9,37.8s-58.3,98.6-74.5,114.9S357.8,295.1,365.5,284.2z"></path><path class="st2" d="M367.4,284c4.8-4.9,9.5-9.9,14.1-14.9c9.9-10.6,19.7-21.4,29.4-32.3c9-10.2,18.1-20.6,25.9-31.8
			c2.2-3.1,4.7-6.6,5.8-10.3c0.8-2.7-0.9-4.3-2.9-5.7c-3.9-2.8-8.5-4.6-12.9-6.4c-6.5-2.6-13.1-4.9-19.8-7.1
			c-15.2-4.9-30.6-8.9-46.1-12.2c-6.4-1.3-12.8-2.5-19.2-3.2c-4-0.4-8.4-0.9-12.4,0.2s-7.3,4.1-10.4,6.7c-4.8,4-9.5,8.2-14,12.4
			c-11.6,10.8-22.9,21.9-34.1,33.1c-7.6,7.6-15.1,15.2-22.6,22.9l-1.1,1.1l3.1-1.6l-20,2.6l0.6,1.2l4.8-5c4.1-4.3,8.3-8.5,12.5-12.8
			c5.8-5.9,11.6-11.7,17.4-17.5c6.4-6.4,12.9-12.7,19.5-18.9c6.3-6,12.6-11.9,19.1-17.6c2.8-2.5,5.6-4.9,8.5-7.2c1.3-1,2.5-2,3.8-3
			l1.8-1.4c0.2-0.1,1-0.8,0.5-0.4l0.9-0.6c1-0.7,2-1.4,3.1-2.1c0.5-0.3,0.9-0.6,1.4-0.9l-0.2,0.1l0.4-0.2l0.6-0.3
			c0.2-0.1,0.4-0.2,0.6-0.3s0.9-0.4,0.4-0.2s0.1,0,0.2-0.1l0.5-0.2c0.2-0.1-0.6,0.2,0,0c0.1,0,0.6-0.1,0.2-0.1s0.1,0,0.2,0l0.5-0.1
			l1.2-0.1h0.6h0.4c1.1,0,2.2,0.1,3.3,0.1c2.9,0.2,5.8,0.5,8.7,0.8c7.8,0.9,15.6,2.2,23.4,3.6c9.2,1.7,18.4,3.6,27.5,5.8
			c9.1,2.2,18.1,4.6,27,7.4c7.5,2.3,14.8,5.1,21.9,8.5c4.3,2.1,9.5,4.8,12.1,8.9c2.3,3.6,0.7,8.6-0.7,12.4
			c-2.5,7.1-6.2,13.9-10,20.4c-4.9,8.4-10.3,16.6-15.9,24.6c-5.8,8.3-11.8,16.5-17.9,24.5c-5.5,7.1-11,14.2-16.8,21
			c-3.9,4.7-7.8,9.4-12.2,13.7c-1,1-2.2,1.9-3.4,2.7c-0.7,0.4-1.4,0.8-2.1,1c-1.5,0.3-3.1,0.1-4.4-0.7c-3.2-1.9-4.7-6-5.1-9.5
			c-0.5-4.1,0.4-8.2,2.7-11.6c0.7-0.9-0.9-0.9-1.4-0.8c-1.2,0.3-2.2,0.9-2.9,1.9c-2.4,3.7-3.5,8.1-2.9,12.4
			c0.4,3.8,1.8,7.9,5.1,10.1c4.1,2.8,9.5,0.8,13.2-1.6c3.2-2.2,6.1-4.9,8.6-7.9c5-5.5,9.7-11.2,14.3-17c6.2-7.7,12.2-15.5,18.1-23.4
			c6.2-8.4,12.3-17,18.1-25.7c5.1-7.7,9.8-15.6,14-23.8c2.9-5.6,6-11.8,6.8-18.2c0.4-1.9,0.1-3.9-0.6-5.7c-1-1.9-2.4-3.5-4.1-4.7
			c-5-4.1-11.2-6.7-17.2-9.1c-8.3-3.2-16.7-6-25.2-8.3c-9.4-2.6-18.8-4.9-28.3-7c-8.9-1.9-17.8-3.6-26.8-5c-6.7-1-13.4-2-20.1-2.4
			c-2.1-0.2-4.3-0.2-6.5-0.1c-1.9,0.2-3.8,0.8-5.6,1.7c-5,2.4-9.5,6.1-13.8,9.5c-6.2,5-12.1,10.2-18,15.6
			c-6.9,6.3-13.7,12.8-20.4,19.3c-6.5,6.3-13,12.7-19.4,19.1c-5.3,5.3-10.6,10.7-15.8,16c-3.1,3.1-6.1,6.3-9.2,9.4
			c-0.4,0.4-0.8,0.9-1.2,1.3c-0.6,0.7-0.3,1.4,0.6,1.2l17.9-2.3c2.1-0.3,3.9-0.5,5.5-2.1l2.2-2.3c8.8-9.1,17.8-18.1,26.8-27
			c11.5-11.4,23-22.7,35.1-33.5c2.3-2,4.5-4,6.9-5.9c0.9-0.8,1.9-1.5,2.9-2.3c0.1-0.1,0.9-0.7,0.3-0.2l0.6-0.4
			c0.4-0.3,0.8-0.5,1.1-0.8s0.7-0.4,1-0.6s-0.7,0.4-0.1,0.1c0.2-0.1,0.3-0.2,0.5-0.2c0.4-0.3-0.7,0.3-0.2,0.1s-0.6,0.1-0.1,0
			l0.5-0.1h0.2c0.5-0.1-0.4,0-0.1,0c0.9-0.1,1.7-0.2,2.6-0.2h1.2c0.6,0,1.1,0,1.7,0c6.3,0.4,12.5,1.3,18.6,2.5
			c7.9,1.5,15.8,3.3,23.6,5.3c15.5,3.9,31,8.4,45.8,14.4c4.7,1.9,9.7,3.9,13.8,6.9c1.1,0.6,1.9,1.5,2.5,2.6c0,0.1,0.1,0.2,0.1,0.3
			c0,0.2,0-0.3,0,0.1c0,0.3,0,0.5,0,0.8c0,0.3-0.1,0.5-0.2,0.8l-0.1,0.4c-0.1,0.4,0-0.1-0.1,0.3c-1.7,4-4.5,7.9-6.9,11.2
			c-4.1,5.6-8.5,10.9-12.9,16.2c-10.3,12.3-21.1,24.2-32,36c-7,7.7-14.2,15.3-21.3,22.9l-1.1,1.1c-0.7,0.7-0.3,1.3,0.6,1.2
			C365.4,285.5,366.5,284.9,367.4,284z"></path><path class="st2" d="M373.1,286.5c-1.3,0.6-2.3,1.6-3.1,2.8c-1.3,2-1.1,4.6,0.3,6.5c1,1.1,2.6,1.2,3.9,1c2-0.1,3.9-0.9,5.3-2.3
			c1.8-1.7,2.3-4.3,1.4-6.6c-0.3-1-1-1.8-1.9-2.3c-1.1-0.4-2.2-0.5-3.4-0.2c-1.1,0.1-2.1,0.5-3,1.2c-0.2,0.2-0.4,0.3-0.2,0.6
			c0.4,0.2,0.8,0.2,1.2,0.2c0.6,0,1.3-0.1,1.9-0.2c0.5-0.1,1-0.3,1.4-0.6c0.1-0.1,0.2-0.2,0.4-0.3s-0.4,0.2-0.1,0.1
			c-0.3,0.1-0.5,0.2-0.8,0.3c-0.5,0.1-1,0.2-1.5,0.2c0,0-0.6,0-0.3,0c-0.1,0-0.4-0.1-0.2,0c0,0,0.1,0,0.2,0.1c-0.1,0-0.2-0.1-0.1,0
			l0.2,0.1c0.1,0.1,0.2,0.1,0.3,0.2c0.2,0.2,0.4,0.4,0.6,0.6l-0.1-0.2c1,1.4,1.3,3.2,0.8,4.9l0.1-0.2c-0.2,0.7-0.5,1.4-1,2
			c-0.1,0.2-0.3,0.4-0.5,0.5l-0.2,0.2c-0.1,0.1,0.1-0.1,0,0s-0.3,0.2-0.5,0.4l-0.2,0.1c-0.1,0.1,0.4-0.2,0.1,0l-0.2,0.1
			c0.4-0.1,0.5-0.2,0.3-0.1h-0.1l0.4-0.1c-0.1,0-0.1,0,0.2,0c0.3-0.1,0.6-0.1,0.9-0.1c0.5,0,0.2,0,0.1,0c0.7,0,0.4,0,0.2,0
			c0.1,0,0.4,0.1,0.1,0l-0.2,0c-0.2,0,0,0,0,0c-0.1,0-0.1-0.1-0.2-0.1c-0.1-0.1-0.2-0.1-0.3-0.2c-0.2-0.2-0.4-0.4-0.6-0.6l0.1,0.2
			c-0.9-1.4-1.1-3.1-0.6-4.7l0,0.2c0.2-0.6,0.4-1.1,0.8-1.6c0.1-0.2,0.3-0.4,0.5-0.6l0.3-0.3l0.1-0.1c0.2-0.2-0.1,0.1,0,0
			c0.3-0.2,0.6-0.5,0.9-0.6l0.3-0.2l-0.2,0.1c0.1-0.1,0.7-0.3,0.6-0.6s-0.6-0.3-0.8-0.4c-0.6,0-1.2,0-1.8,0.1
			C374.3,286.1,373.6,286.3,373.1,286.5z"></path><path class="st0" d="M303.6,230.4v50.5c0,0.6,1.2,1.5,1.6,2c0.4,0.4,0.9,0.8,1.3,1.2c0.1,0,0.7,0.4,0.7,0.4v-50.5
			c0-0.6-1.2-1.5-1.6-1.9c-0.4-0.4-0.9-0.8-1.3-1.2C304.2,230.8,303.6,230.3,303.6,230.4L303.6,230.4z"></path><path class="st2" d="M277.5,287c0,5.1-0.3,10.2-0.4,15.4c-0.3,11.6-0.6,23.2-1,34.8l-1.1,41.7c-0.3,12.1-0.7,24.2-1,36.2
			c-0.1,4.1-0.2,8.2-0.3,12.2c0,2.1-0.2,4.1-0.2,6.2c0,0.1,0,0.3,0,0.4c0,1.3,1.7,1.8,2.7,1.7c1.2-0.1,2.2-1.1,2.2-2.3
			c0-5.1,0.3-10.2,0.4-15.4c0.3-11.6,0.7-23.2,1-34.8c0.4-13.9,0.8-27.8,1.2-41.7c0.3-12.1,0.7-24.2,1-36.2l0.3-12.2
			c0.1-2.1,0.2-4.1,0.2-6.2c0-0.1,0-0.3,0-0.4c0-1.3-1.7-1.8-2.7-1.7C278.6,284.7,277.6,285.8,277.5,287L277.5,287z"></path><path class="st1" d="M373.9,275.5c0,0-11.9-5.8-22.4,15.7s42.9,95.6,47.1,95.6s39.2-22.2,39.2-27.1s-46.4-68.5-46.4-68.5l-4.3,4.6
			c0,0,11.1,17.6,5.1,24.8s-26.2,13.9-32.8-9s6.1-27.2,6.1-27.2L373.9,275.5z"></path><path class="st1" d="M375.2,273.5c-2.5-1-5.3-1.2-8-0.5c-6.7,1.4-11.7,7-15.1,12.6c-1.8,2.6-3.1,5.5-3.9,8.5
			c-0.4,1.8-0.5,3.6-0.4,5.4c0.3,4.7,1.2,9.4,2.8,13.9c3.8,11.5,9.5,22.4,15.5,32.8c5.8,10,12.1,19.7,19,29c2.4,3.3,4.9,6.6,7.6,9.6
			c1.3,1.5,3,3.8,5,4.2c1.3,0.1,2.6-0.2,3.7-0.8c2-0.9,4-1.9,5.9-3c5.2-2.9,10.2-6,15.1-9.4c4.8-3.1,9.3-6.5,13.6-10.3
			c2-1.8,5-4.5,4-7.4c-1.1-2.7-2.5-5.3-4.2-7.7c-2.5-4.1-5.2-8.1-7.9-12c-6.5-9.6-13.2-19.1-20-28.6c-4.5-6.3-9.1-12.7-13.7-19
			c-0.2-0.3-0.5-0.6-0.7-0.9c-0.8-1.1-2.4-1.3-3.5-0.5c-0.1,0.1-0.2,0.2-0.3,0.3l-4.3,4.6c-0.8,0.7-1,1.8-0.6,2.7
			c1.3,2.2,2.5,4.5,3.6,6.8c1.7,3.8,3.4,8.3,3,12.3c0,0.9-0.3,1.7-0.7,2.5c0.2-0.3-0.1,0.1-0.1,0.2s-0.3,0.4-0.4,0.5
			c-0.3,0.5,0.3-0.3,0,0l-0.4,0.5c-0.5,0.5-1.1,1-1.6,1.4c-0.4,0.3,0.1,0,0,0l-0.5,0.3c-0.4,0.2-0.8,0.5-1.1,0.7
			c-0.7,0.4-1.5,0.8-2.2,1.1c-0.5,0.2,0.3-0.1-0.1,0.1l-0.7,0.3c-0.4,0.1-0.9,0.3-1.3,0.4s-0.8,0.2-1.2,0.3l-0.6,0.1l-0.3,0.1
			c-0.4,0.1,0.4,0,0,0c-0.9,0.2-1.8,0.2-2.8,0.3h-1.1h-0.5l-0.9-0.1c-0.4-0.1-0.9-0.1-1.3-0.3l-0.6-0.2c-0.1,0-0.3-0.1-0.4-0.1
			c-1.8-0.6-3.4-1.6-4.8-2.9c-4.1-3.7-5.9-9.3-7-14.6c-0.6-2.8-0.9-5.7-0.8-8.6c0-2,0.4-3.9,1-5.8c0.1-0.4,0.3-0.8,0.5-1.1
			c0.1-0.2,0.2-0.4,0.2-0.5c0.2-0.4-0.2,0.3,0.1-0.2c0.4-0.6,0.8-1.2,1.2-1.8l0.3-0.4c0.1-0.1-0.4,0.4,0,0s0.4-0.4,0.6-0.6
			s0.4-0.4,0.6-0.5s0.8-0.5,0.1-0.1c0.5-0.3,1.1-0.6,1.7-1c0.1-0.1-0.8,0.3-0.3,0.1c0.6-0.2,1.1-0.6,1.5-1l7.3-7.7l0.7-0.7
			c0.9-0.8,1.1-2.1,0.3-3c0,0-0.1-0.1-0.1-0.1c-1-0.8-2.5-0.7-3.4,0.2l-8.4,8.8l1.1-0.7c-3.9,1.3-6.8,5-8.3,8.7
			c-1.7,4.1-1.8,8.8-1.4,13.1c0.6,5.6,2.2,11.7,5.2,16.5c2.2,3.7,5.6,6.5,9.5,8c3.6,1.2,7.5,1.4,11.2,0.5c6.4-1.4,14.2-5.8,15-12.9
			c0.5-4.8-1.2-9.7-3.1-14.1c-1.1-2.6-2.4-5.1-3.9-7.5l-0.6,2.7l4.3-4.6l-3.8-0.2c3.1,4.3,6.3,8.6,9.4,13c6.5,9,12.8,18,19.2,27.1
			c5.4,7.7,10.8,15.4,15.5,23.5c0.6,1.1,1.3,2.2,1.8,3.3c0.1,0.2,0.2,0.4,0.2,0.6s-0.3-0.6,0,0c0,0,0,0.3,0.1,0.3s0-0.6,0-0.4
			c0,0.4,0.2-0.6,0-0.2c-0.2,0.7,0.3-0.4-0.1,0.2c-0.2,0.3-0.4,0.5-0.6,0.8s-0.3,0.4,0,0l-0.4,0.4c-0.3,0.3-0.7,0.7-1,1
			c-1.7,1.6-3.5,3.1-5.3,4.5c-2.2,1.7-4.1,3-6.6,4.8s-5.1,3.4-7.7,5.1c-4.1,2.7-8.5,5.2-12.9,7.4l-0.5,0.2c-0.7,0.3,0.2-0.1-0.1,0
			s-0.6,0.2-0.9,0.4c-0.2,0.1-0.5,0.1-0.7,0.2c-0.3,0.1,0.7-0.1,0.3-0.1s0.1,0,0.4,0c-0.3,0,0.7,0.3,0.3,0.1s0.1,0.1,0.1,0.1
			c-0.2-0.3-0.6-0.5-0.9-0.7c-0.9-0.8-1.7-1.7-2.4-2.6c-0.5-0.6-1-1.2-1.5-1.8c-0.3-0.3-0.5-0.6-0.8-1l-0.2-0.2c0,0,0.3,0.4,0,0.1
			l-0.5-0.6c-6.3-8.1-12.1-16.5-17.5-25.2c-6.5-10.1-12.3-20.6-17.2-31.5c-2.1-4.7-3.8-9.5-5.1-14.5c-0.5-2.1-0.9-4.2-1.1-6.4
			l-0.1-0.7c0-0.1,0-0.2,0-0.3c0-0.3,0,0.4,0,0c0-0.5,0-1,0-1.5c0-0.9,0.1-1.8,0.2-2.6c0.1-0.4,0.1-0.8,0.2-1.2
			c-0.1,0.6,0.1-0.5,0.2-0.7c0.4-1.1,0.9-2.3,1.5-3.3c1.8-3.6,4.3-6.8,7.2-9.5l0.8-0.7c0,0,0.4-0.3,0.1-0.1l0.4-0.3
			c0.6-0.4,1.2-0.8,1.8-1.1l0.8-0.4c-0.5,0.2,0.1-0.1,0.3-0.1c0.5-0.2,1.1-0.4,1.6-0.5l0.7-0.1c-0.5,0.1-0.1,0,0.2,0
			c0.4-0.1,0.9-0.1,1.3-0.1h0.5c0.4,0-0.6-0.1,0,0c0.3,0,0.6,0.1,1,0.1s0.5,0.1,0.7,0.2c0.1,0,0.2,0.1,0.3,0.1
			c0.2,0-0.6-0.3-0.3-0.1c0.1,0.1,0.3,0.1,0.5,0.2C374.9,278.6,377.9,274.8,375.2,273.5z"></path><path class="st0" d="M400.5,340.5c-2.2-0.8-4.8-1.1-6.9,0.3c-1.8,1.2-2.9,3.1-3,5.3c-0.3,4.6,2.7,9,5.6,12.4s8.2,5.9,12.6,4.3
			s6.1-6,5.3-10.2c-1-5.3-5.6-8.9-10.1-11.4c-1-0.6-2.2-0.9-3.3-0.9c-1,0.2,0.2,0.9,0.6,1.1c3.2,1.6,5.7,4.2,7.3,7.3
			c1.5,3.3,1.5,7.3-1,10.1c-1.1,1.2-2.5,2-4.1,2.3c-0.3,0-0.6,0-0.9,0c-0.1,0.1,0.3,0,0.3,0.1c-0.1-0.1-0.6-0.4-0.7-0.5
			c-0.4-0.3-0.7-0.6-1-1c-1.2-1.3-2.2-2.7-3.1-4.3c-1.1-1.6-1.8-3.3-2.3-5.1c-0.5-2-0.2-4.2,0.8-6c0.5-0.8,1.2-1.4,2-1.9
			c0.4-0.2,0.8-0.4,1.2-0.5c0.4-0.1,1.1,0.1,0.4-0.2c0.4,0.1,2.4,0.8,2.6,0.2S400.8,340.5,400.5,340.5L400.5,340.5z"></path></g><path class="st1" d="M145.4,198.6c0.4,5.8,0,11.7-0.1,17.5c-0.2,7.6-0.5,15.3-0.6,22.9c0,2.7-0.1,5.4,0.1,8c0,1.3,0.7,2.4,1.8,3
		c0.6,0.4,1.4,0.2,1.8-0.4c0.1-0.2,0.2-0.5,0.2-0.8c-0.4-5.8,0-11.7,0.1-17.5c0.2-7.6,0.5-15.3,0.6-22.9c0-2.7,0.1-5.4-0.1-8.1
		c0-1.3-0.7-2.4-1.8-3c-0.6-0.4-1.4-0.2-1.8,0.4C145.5,198,145.4,198.3,145.4,198.6L145.4,198.6z" fill="#000005"></path><path class="st1" d="M160.3,165.1c0,0,19.4-11.6,10.6-29.2s-35.7-21.8-51.8-4.4s4.3,38.1,4.3,38.1L160.3,165.1z" fill="#000005"></path><path class="st1" d="M161.8,165.6c9-5.4,16.2-15.9,13.1-26.6c-2.2-7.4-7.9-13.3-14.8-16.6c-7.4-3.4-15.7-4.1-23.6-2.2
		c-8.5,2-16.9,7-21.9,14.3c-4.5,6.7-4.9,14.6-2.1,22.1c1.9,4.9,4.7,9.3,8.2,13.2c0.3,0.4,0.7,0.7,1.3,0.8c0.6,0,1.2,0,1.7-0.1
		l4.8-0.6l30.7-3.7l0.7-0.1c0.8-0.1,2.6-0.5,2.8-1.4s-1.5-0.8-2-0.8l-32.3,3.9l-4.6,0.6l1.9,0.2c-4.4-4.5-7.6-10-9.3-16
		c-1.5-4.8-1.3-9.9,0.6-14.6c2.2-5.4,6.8-9.8,11.8-12.7c8.6-5,19.2-5.2,28.1-0.7c8.6,4.4,15.8,14.3,13.6,24.4
		c-1.1,4.4-3.5,8.5-6.8,11.6c-1.1,1.1-2.2,2.1-3.5,3c-0.4,0.3-0.8,0.6-1.2,0.8c-0.2,0.1-0.9,0.6,0,0c-0.6,0.4-1.5,1-0.5,1.5
		S161,166.1,161.8,165.6z" fill="#000005"></path><path class="st0" d="M147.6,179.6c10.4-2.1,24.3-28.6,24.3-28.6c1.1-8.8-21.1-21.1-21.1-21.1c-2.1,8-10.9,16.9-10.9,16.9
		c2-7.1-5.9-9.8-9.8-4.5s0.9,11.8,0.9,11.8s-10.6,9.5-11.8,11.9s5.9,13.2,15.7,11.6C134.9,177.5,138.5,181.4,147.6,179.6z" fill="#FFFFFF"></path><path class="st1" d="M149,181.7c2.3-0.6,4.4-1.8,6.1-3.4c2.2-2,4.3-4.1,6.1-6.5c3.6-4.6,6.8-9.4,9.7-14.4c0.8-1.3,1.6-2.6,2.2-3.9
		s0.1-2.9-0.4-4.2c-2.4-5.8-7.3-10.5-12.2-14.3c-3.4-2.6-7.1-5-10.9-7.1h-0.1c-1.3,4.2-3.4,8.1-6.2,11.4c-1.4,1.9-3,3.7-4.6,5.4
		l2.7,4.2c0.8-2.9-0.1-5.1-1.7-7.5c-1.3-2-2.9-3.9-5.4-4c-2.3,0-4.5,1.3-5.7,3.3c-1.4,2.5-1.6,5.4-0.5,8.1c0.9,2.3,2.1,4.5,3.6,6.5
		l-1.9-3.3c-3.8,3.2-7.3,6.6-10.6,10.3c-0.6,0.6-1.1,1.3-1.3,2.1c0,1,0.2,1.9,0.7,2.7c1.5,3.4,3.8,6.5,6.6,9c3,2.8,7.2,4.1,11.3,3.5
		l-0.3-0.2C139.1,182.8,144.9,182.5,149,181.7c-0.4-0.7-0.7-1.5-1.2-2.2c-0.2-0.3-1.1-2-1.6-2c-3.9,0.7-8.4,0.9-11.8-1.4
		c-0.2-0.1-0.3-0.2-0.4-0.3c-0.2-0.1-0.1-0.1-0.1-0.1c-0.1-0.1,0.1-0.2-0.2-0.2c-0.6,0-1.2,0-1.8,0.1c-2.3,0-4.6-0.5-6.6-1.7
		c-1.7-0.9-3.2-2.1-4.4-3.6c-0.2-0.3-0.4-0.5-0.1,0s0.1,0.3,0,0c-0.2-0.5-0.3-1-0.4-1.6c0-1,1-1.8,1.6-2.5c1.2-1.3,2.5-2.6,3.7-3.8
		c2.2-2.1,4.4-4.2,6.6-6.2c0.4-0.3-1.6-3-1.9-3.3c0.2,0.3,0.5,0.7,0.7,1c0.2,0.4,0,0-0.1-0.3c-0.5-1.1-0.8-2.2-1-3.4
		c-0.4-2.7,0.6-5.5,2.7-7.2c1.5-1.3,3.5-1.7,5.4-1.2c0.5,0.1,0.9,0.4,1.3,0.6c0.2,0.2,0.3,0.3,0.5,0.4l-1.4-2.1
		c0,0.1,0.1,0.2,0.1,0.3c0.3,1.2,0.2,2.5-0.1,3.6c-0.2,0.7,2.6,4.3,2.7,4.2c1.8-1.8,3.4-3.8,4.9-5.8c1.3-1.8,2.6-3.6,3.6-5.6
		c0.5-1,1-2,1.5-3.1c0.1-0.2,0.8-2.4,0.8-2.4c0.2-0.1,1.1,0.6,1.3,0.8c0.9,0.5,1.8,1.1,2.7,1.7c2.7,1.7,5.3,3.5,7.9,5.5
		c1.4,1.1,2.7,2.2,3.9,3.4c0.5,0.5,1.1,1.1,1.6,1.6l0.6,0.8c0.3,0.4-0.1-0.3-0.3-0.4c0.5,0.9,0.8,1.9,0.8,3c0,0.4-0.1,0.9-0.4,1.2
		c-2.6,4.7-5.4,9.3-8.5,13.7c-2.2,3.3-4.8,6.3-7.6,9.2c-2.2,2.2-4.8,4.5-7.9,5.1c-0.2,0,1,2.1,1.1,2.2
		C147.6,180.1,148.5,181.8,149,181.7z" fill="#000005"></path><path class="st0" d="M150,164.7c0,0,11.2,11.2,18.3,6.4s0.4-14.7-10.7-14.5" fill="#FFFFFF"></path><path class="st1" d="M147.7,163.9c1.4,1.4,3,2.7,4.7,3.9c3.6,2.6,7.7,4.5,12.1,5.4c3.3,0.6,7-0.5,8.5-3.7c1.4-2.9-0.1-6.1-2.3-8.1
		c-2-1.8-4.4-3.1-6.9-4c-2.7-1.1-5.5-1.7-8.4-1.7c-0.3,0,0.2,0.3,0.1,0.3c0.4,0.3,0.9,0.5,1.3,0.7c0.9,0.5,1.9,0.9,2.9,1
		c1,0,1.9,0.1,2.9,0.2c0.4,0.1,0.8,0.1,1.2,0.2l0.3,0.1c0.6,0.1-0.2-0.1-0.3-0.1c-0.3-0.1,0.2,0.1,0.2,0.1c0.3,0.2,0.7,0.4,1,0.6
		c0.6,0.4,1.2,0.9,1.6,1.5c1.7,1.9,2.7,4.6,1.6,7c-1.3,2.6-4,4.2-6.8,4c-0.5,0-1.1-0.1-1.6-0.2c0,0-0.6-0.1-0.3-0.1
		c-0.6-0.1,0.4,0.2-0.2-0.1c0.5,0.2,0.2,0.1,0.1,0c0.3,0.1,0.3,0.1,0.1,0c0.2,0.1,0.2,0.1,0,0l-0.6-0.3c-0.3-0.1-0.6-0.3-0.9-0.5
		c-0.6-0.4-1.2-0.8-1.7-1.2c-1.5-1-2.9-2.2-4.2-3.5c-0.8-0.6-1.8-1.1-2.8-1.3c-0.5-0.2-0.9-0.4-1.4-0.4
		C148,163.7,147.5,163.6,147.7,163.9L147.7,163.9z" fill="#000005"></path><path class="st1" d="M160.2,152.3c-0.7-0.3-1.4,0-1.7,0.7c0,0.1-0.1,0.1-0.1,0.2c-0.4,1.4,1.3,1.9,2,0.8c0.4-0.4,0.4-1.1-0.1-1.6
		C160.3,152.4,160.2,152.4,160.2,152.3z" fill="#000005"></path><path class="st1" d="M152.2,146.8c-0.7-0.3-1.4,0-1.7,0.7c0,0.1-0.1,0.1-0.1,0.2c-0.4,1.4,1.3,1.9,2,0.8c0.4-0.4,0.4-1.1-0.1-1.6
		C152.3,146.9,152.3,146.8,152.2,146.8z" fill="#000005"></path><path class="st1" d="M139.1,161.6c0.3,0.3,0.6,0.6,0.9,1l-0.4-0.4c0.2,0.3,0.5,0.7,0.7,1c0.2,0.3,0.4,0.5,0.6,0.6
		c0.2,0.2,0.5,0.4,0.8,0.5c0.3,0.1,0.6,0.2,0.9,0.3c0.3,0.1,0.6,0.1,0.9,0c0.5,0,0.9-0.3,1.1-0.8l0.1-0.4c0-0.3-0.1-0.7-0.3-0.9
		c-0.1-0.2-0.3-0.4-0.4-0.7c-0.2-0.3-0.4-0.6-0.6-0.9c-0.3-0.3-0.6-0.6-0.9-1c-0.2-0.2-0.5-0.4-0.8-0.6c-0.3-0.2-0.6-0.3-0.9-0.4
		c-0.3-0.1-0.6-0.1-0.9-0.1c-0.3,0-0.5,0-0.8,0.2l-0.4,0.2c-0.2,0.2-0.4,0.5-0.4,0.8l0.1,0.5C138.7,161,138.8,161.3,139.1,161.6
		L139.1,161.6z" fill="#000005"></path><path class="st1" d="M232.8,265.6c-5.5-21.7-11.2-44.1-8.8-66.7c0.9-10.3,3.9-20.3,8.7-29.5c4-7.5,10.7-15.4,20-14.8
		c1.8,0,3.5,0.5,5,1.4c1.1,1,1.9,2.3,2.2,3.7c0.9,3.5-0.9,7.5-3.7,9.6c-1.4,1.2-3.2,1.7-5,1.5c-0.4-0.1-0.8-0.2-1.2-0.4
		c-0.3-0.1,0.1,0.1,0.1,0.1c0.3,0.2-0.3-0.3-0.3-0.4c-0.7-0.8-1.3-1.8-1.9-2.7c-2.6-4.7-4.2-9.9-4.5-15.3
		c-0.4-9.4,4.8-17.6,11.6-23.6c7.3-6.4,16.1-10.2,24.8-14.1s18.2-8.2,24.8-15.4c5.7-6.3,9.8-15,8.5-23.6c-0.3-2.1-0.9-4.1-1.9-5.9
		c-0.6-0.9-1.3-1.6-2.3-2.1c-0.2-0.1-2.1-1-1.8-0.5c4.2,8.6,1.4,18.5-4,26c-6.2,8.5-15.7,13.4-25,17.6s-19,8.1-26.9,14.9
		c-7.3,6.3-12.6,14.9-11.9,24.8c0.5,5.6,2.2,10.9,5.1,15.7c1.3,2.2,3.1,4.1,5.2,5.6c1.9,1.3,4.1,2.5,6.4,2.3
		c3.8-0.3,6.9-3.7,7.8-7.2c1.1-4.3-1.1-8-4.3-10.6c-6.9-6.4-17.6-5.9-24,0.9c-3.5,3.6-6.4,7.8-8.4,12.4c-2.4,5-4.2,10.2-5.4,15.6
		c-5.3,23-0.8,46.6,4.8,69.1c0.7,3,1.5,6,2.2,8.9c0.2,0.9,1.5,1.7,2.3,2.1C231.2,265.3,233,266.3,232.8,265.6L232.8,265.6z" fill="#000005"></path><path class="st1" d="M331.9,99.4c3.8-11.1,2.9-23.3-2.5-33.7c-0.6-1.1-5.1,0.7-4.8,1.2c5.4,10.3,6.3,22.3,2.5,33.3
		c-0.2,0.8,1.6,0.4,1.9,0.4C329.6,100.5,331.6,100.2,331.9,99.4L331.9,99.4z" fill="#000005"></path><path class="st0" d="M155.4,245.7c-4.5,1.4-3,6.4-9.2,9.3c-5.4,2.4-6.8-1.1-6.8-1.1c-5.4,4.5-9-0.7-9-0.7c-9.6,3.6-3-13.8-3-13.8
		c-3,1.8-12.4,12.1-16.8,10.1c-3.8-1.7,6.9-20.2,27-25.8c7.1-2.1,14.8-1,21.1,2.9c5.3,3.4,9.7,9.1,6.3,18.4" fill="#FFFFFF"></path><path class="st1" d="M153.2,244.6c-3.4,1.1-3.9,4.9-6.2,7.2c-0.9,0.8-1.9,1.5-3,2c-1,0.4-2.1,0.7-3.2,0.8c-0.2,0.1-0.1,0-0.2,0
		c0.2-0.4,1.9,1.4,1.6,0.7c0,0.1-0.1-0.1-0.2-0.2c-0.1-0.2-0.2-0.3-0.3-0.5c-0.3-0.7-1.8-1.2-2.4-1.4s-1.7-0.8-2.2-0.3
		c-0.9,0.7-1.9,1.3-3,1.6c-0.4,0-0.8,0.1-1.3,0.1c-0.3,0.1,1.1,0.4,1,0.5s-1-0.9-1.2-1.1c-0.6-0.6-1.3-1-2.1-1.3
		c-0.6-0.2-1.7-0.8-2.4-0.6c-0.5,0.2-1,0.3-1.5,0.4c-1.1,0.2-1.1-0.4,1,0.6c0.9,0.4,0.8,0.6,0.4,0c-0.1-0.2-0.3-0.5-0.3-0.8
		c-0.4-1.6-0.4-3.3,0-4.9c0.4-2.4,1.1-4.8,2-7.2c0.3-0.7-3.9-2.4-4.5-2c-4.7,3-8.2,8-13.6,10c-0.5,0.2-1,0.2-1.5,0.4
		c-0.1,0-0.3,0-0.4,0s2.4,1,2.5,1.1c0.2,0.2,0.2,0.3,0.2,0.1c-0.1-0.5-0.2-1-0.1-1.5c0.4-1.8,1.1-3.6,2.2-5.1
		c3.5-5.4,8.2-10,13.8-13.3c7.1-4.4,16.2-7.6,24.6-5.4c3.8,1,7,3.3,9.2,6.6c2.6,4,2.3,8.7,0.8,13c-0.3,0.8,4.4,2.6,4.6,1.9
		c1.5-4.2,1.8-8.9-0.5-12.8c-2.1-3.6-5.7-6.2-9.4-8c-4.9-2.5-10.4-3.7-15.9-3.5c-4.8,0.4-9.6,1.8-13.9,4
		c-6.8,3.3-12.7,8.3-17.1,14.5c-1.4,1.8-2.4,3.9-2.9,6.1c-0.4,2.5,1.6,3.4,3.7,4.1c3.8,1.3,7.1-1,10-3.2c1.6-1.2,3.2-2.6,4.7-3.9
		c1.1-1,2.3-2,3.5-2.9l-4.5-2c-0.8,2.1-1.4,4.3-1.8,6.5c-0.6,3-1,6.6,2,8.3c2.2,1.4,4.8,1.8,7.3,1l-4.4-1.9c1.2,1.5,2.8,2.7,4.6,3.4
		c1.4,0.7,3,1,4.6,1c1.6-0.2,3.2-0.9,4.4-1.9l-4.6-1.8c0.7,1.1,1.7,2,2.9,2.5c2.5,1.4,5.5,1.6,8.1,0.5c2.3-1,4.2-2.8,5.4-5
		c1-1.8,1.9-3.6,4-4.3c0.6-0.2-1.2-1.2-1.4-1.3C155.5,245.1,154.1,244.3,153.2,244.6L153.2,244.6z" fill="#000005"></path><path class="st1" d="M136.8,233.5c-1.3,1.4-2.4,2.9-3.5,4.5c-2.1,2.8-3.7,5.9-4.7,9.3c-0.5,1.8-0.5,3.8,0.1,5.6
		c0.4,1,1.2,2.3,2.4,2.5s1.4-1,1.1-1.9c-0.1-0.2-0.1-0.4-0.2-0.6s0-0.2,0,0.1c0-0.1,0-0.2,0-0.3s0-0.4,0-0.7s0-0.2,0,0v-0.3
		c0.1-1,0.3-1.9,0.7-2.9c0.7-1.9,1.7-3.7,2.8-5.4c1.4-2.2,3-4.3,4.7-6.3c0.3-0.3,0.2-1.1,0.1-1.4c-0.2-0.6-0.5-1.2-1-1.7
		C138.6,233.3,137.6,232.7,136.8,233.5L136.8,233.5z" fill="#000005"></path><path class="st1" d="M145.3,235.6c-1.8,1.8-3.4,3.8-4.8,6c-2.2,3.4-4.4,7.6-3.5,11.8c0.1,0.5,2,0.8,2.4,0.9c0.2,0,2.6,0.4,2.5,0.2
		c-0.9-4.1,1.3-8.4,3.5-11.7c1.4-2.2,3-4.2,4.8-6c-0.8-0.4-1.5-0.7-2.4-0.9c-0.6-0.1-1.2-0.2-1.7-0.3
		C145.8,235.5,145.5,235.4,145.3,235.6L145.3,235.6z" fill="#000005"></path><path class="st2" d="M131.9,382.7c16.2-16.7,32.7-33.1,49.5-49.2c4.8-4.5,9.5-9,14.4-13.5c0.7-0.8,0.7-2.1-0.1-2.8
		c-0.1-0.1-0.1-0.1-0.2-0.2c-1.1-0.7-2.6-0.5-3.5,0.4c-17,15.9-33.7,32.1-50.1,48.6c-4.6,4.7-9.2,9.4-13.8,14.1
		C125.9,382.3,130,384.6,131.9,382.7L131.9,382.7z" fill="#59BE4C"></path><path class="st2" d="M177.4,385.6c21.7-18,42.4-37.1,62.1-57.2c5.6-5.7,11-11.5,16.4-17.4c1.9-2.1-2.3-4.8-4-2.9
		C233,328.8,213,348.4,192,366.9c-5.8,5.1-11.8,10.2-17.8,15.2c-0.9,0.6-1.1,1.8-0.5,2.7c0.1,0.1,0.1,0.2,0.2,0.3
		C174.7,385.8,176.4,386.4,177.4,385.6L177.4,385.6z" fill="#59BE4C"></path><path class="st2" d="M140.3,317.6c12.9,23.3,25.1,46.9,36.6,70.9c3.3,6.8,6.5,13.7,9.6,20.6c0.8,1.8,5.7,0.9,4.7-1.3
		c-11-24.2-22.8-48-35.3-71.5c-3.6-6.7-7.2-13.3-10.9-20C144,314.5,139.2,315.5,140.3,317.6L140.3,317.6z" fill="#59BE4C"></path><path class="st2" d="M188.7,298.1c14.2,25.4,27.4,51.4,39.5,77.8c3.4,7.4,6.7,14.9,10,22.4c0.4,0.9,1.5,2,2.6,1.5s0.7-2.1,0.3-3
		c-11.6-26.7-24.2-52.9-37.8-78.7c-3.8-7.2-7.7-14.4-11.7-21.5c-0.5-0.8-1.5-2-2.6-1.5S188.3,297.3,188.7,298.1L188.7,298.1z" fill="#59BE4C"></path><path class="st2" d="M306.9,335c10.9,15,21.5,30.1,31.9,45.5c3,4.4,5.9,8.8,8.8,13.2c0.7,1,1.5,1.8,2.5,2.5c0.7,0.4,1,0.3,0.5-0.5
		c-10.2-15.5-20.7-30.7-31.4-45.8c-3.1-4.3-6.2-8.6-9.3-12.9c-0.7-1-1.5-1.8-2.5-2.5C306.7,334.1,306.3,334.2,306.9,335L306.9,335z" fill="#59BE4C"></path><path class="st2" d="M301.8,367.1l40.5-34.5c0.7-0.6,0.5-1-0.4-0.9c-1.2,0.1-2.3,0.6-3.3,1.4l-40.5,34.5c-0.7,0.6-0.5,1,0.4,0.9
		C299.7,368.3,300.9,367.9,301.8,367.1z" fill="#59BE4C"></path><path class="st2" d="M318.1,401.7c13.4-14.1,27.1-28,41-41.6c0.7-0.6,1-1.7,0-2.2s-2.6,0.3-3.3,1c-13.9,13.6-27.6,27.5-41,41.6
		c-0.6,0.7-1,1.7,0,2.2C315.9,403,317.2,402.6,318.1,401.7z" fill="#59BE4C"></path><path class="st2" d="M425.3,305.2c5.2-5.7,10.7-11.3,16.3-16.6c0.7-0.6-1-1.3-1.4-1.5c-0.7-0.2-2.5-0.8-3.1-0.1
		c-5.6,5.3-11.1,10.9-16.3,16.6C419.9,304.5,424.4,306.2,425.3,305.2z" fill="#59BE4C"></path><path class="st2" d="M422.3,288.1c6.4,7.8,12.5,15.9,18.2,24.2c0.6,1.1,1.9,1.5,2.9,0.9c1.1-0.6,1.5-1.9,0.9-2.9
		c-0.1-0.2-0.2-0.4-0.4-0.5c-5.7-8.3-11.8-16.4-18.2-24.3c-0.6-1.1-1.9-1.4-3-0.9s-1.4,1.9-0.9,3C422,287.9,422.1,288,422.3,288.1
		L422.3,288.1z" fill="#59BE4C"></path></g></svg>