<svg transform="scale(1)" version="1.1" id="AOki828e2y" xmlns="http://www.w3.org/2000/svg" xmlns:xlink="http://www.w3.org/1999/xlink" x="0px" y="0px" viewBox="0 0 500 500" xml:space="preserve" class="pbimage_pbimage__wrapper__image__0LEis false"><title>Completed Task</title><style type="text/css"> .st0{fill:#FFFFFF;} .st1{fill:#000005;} .st2{fill:#59BE4C;}
 .st2{fill:#59BE4C;}
 .st1{fill:#000005;}
 .st0{fill:#FFFFFF;}</style><g id="screen"><path class="st0" d="M199.8,44.4c0,0,270.8-1.6,268.7,4S430,372.1,424.7,372.2s-272.8-5.6-275.7-7.8S195.7,46.2,199.8,44.4z" fill="#FFFFFF"></path><path class="st1" d="M197.9,45.5h8.5l22.9-0.1c11.1,0,22.1-0.1,33.2-0.1c13.3,0,26.5,0,39.8,0c14.2,0,28.4,0.1,42.7,0.2
		c13.8,0.1,27.7,0.2,41.5,0.4c12.1,0.1,24.2,0.3,36.4,0.6c9.2,0.2,18.3,0.5,27.5,1c4.9,0.3,9.9,0.2,14.6,1.3
		c0.4,0.1,0.8,0.2,1.2,0.4c0,0,0.1,0,0,0.2c-0.2,1.1-0.4,2.2-0.6,3.2c-0.8,5.3-1.5,10.6-2.1,15.9c-1.1,8.8-2.2,17.7-3.3,26.5
		c-1.4,11.6-2.9,23.2-4.3,34.8c-1.6,13.4-3.3,26.8-4.9,40.1c-1.7,14.2-3.5,28.4-5.3,42.6s-3.6,28.4-5.4,42.5
		c-1.7,13.3-3.4,26.6-5.2,39.9c-1.5,11.5-3.1,22.9-4.7,34.3c-1.2,8.7-2.5,17.3-3.9,26c-0.8,5-1.6,10.1-2.9,15
		c-0.1,0.6-0.3,1.1-0.5,1.7c-0.1,0.2-0.2,0.4-0.2,0.5c-0.1,0.4-0.1,0,0,0.1c-0.2-0.5,3.5-1.6,3.8-1.5h-0.8h-1.9
		c-5.8-0.1-11.6-0.2-17.4-0.3l-29.6-0.6l-38.1-0.9c-14.2-0.3-28.4-0.7-42.5-1c-14.4-0.4-28.9-0.7-43.4-1.1
		c-13.3-0.3-26.7-0.7-40-1.1c-11-0.3-22-0.7-33-1.1c-7.3-0.3-14.6-0.5-21.9-1l-3.3-0.2c-0.9-0.1-1.5-0.1-2.1-0.2
		c-0.4,0-0.8-0.1-1.2-0.2c-0.2-0.1-0.1,0.1-0.1-0.3c-0.1-1.1-0.1-2.2,0.1-3.2c0.2-2.2,0.4-4.4,0.7-6.6c0.8-7.3,1.8-14.6,2.8-21.9
		c1.4-10.4,2.9-20.8,4.4-31.2c1.8-12.5,3.7-25,5.6-37.6c2.1-13.8,4.2-27.6,6.4-41.4c2.2-14.2,4.5-28.4,6.7-42.7
		c2.2-13.7,4.4-27.4,6.7-41.1c2-12.2,4-24.4,6.1-36.7c1.7-9.9,3.4-19.8,5.2-29.7c1.2-6.7,2.4-13.4,3.9-20c0.4-1.8,0.8-3.6,1.2-5.3
		c0.1-0.5,0.3-1,0.5-1.5c0.4-1.1,0.3-0.4-1.1,0.3c0.2-0.1,1.9-0.9,1.4-1.3s-2.5,0.5-3,0.8c-1.2,0.5-2.1,1.6-2.2,2.9
		c-0.5,1.8-0.9,3.6-1.3,5.4c-1.4,6.6-2.6,13.3-3.9,19.9c-1.8,9.9-3.5,19.9-5.2,29.8c-2.1,12.3-4.2,24.6-6.2,36.9
		c-2.3,13.7-4.5,27.5-6.7,41.2c-2.3,14.3-4.5,28.6-6.8,42.8c-2.2,13.9-4.3,27.9-6.4,41.9c-1.9,12.6-3.8,25.2-5.6,37.8
		c-1.5,10.4-3,20.8-4.4,31.2c-1,7.2-2,14.4-2.8,21.6c-0.2,2.1-0.5,4.3-0.6,6.4c-0.1,0.7-0.4,2.3-0.1,3s1.2,0.5,1.8,0.6
		c2,0.2,4,0.3,6,0.5c7.4,0.4,14.9,0.7,22.3,1c11.2,0.4,22.3,0.8,33.5,1.1c13.5,0.4,27,0.8,40.4,1.1c14.5,0.4,29,0.7,43.6,1.1l42.7,1
		l38.1,0.9l29.3,0.6l16.4,0.3c1.9,0.2,3.8-0.2,5.5-1.1c1.1-0.6,1.8-1.6,1.9-2.8c1.2-4.7,2.2-9.5,2.8-14.4c1.4-8.5,2.7-17.1,3.9-25.6
		c1.6-11.3,3.2-22.7,4.7-34.1c1.8-13.3,3.5-26.7,5.2-40c1.8-14.3,3.6-28.5,5.4-42.8s3.5-28.6,5.3-43c1.7-13.5,3.3-27,5-40.6
		c1.4-11.7,2.9-23.4,4.3-35.1c1.1-9,2.3-18,3.4-27c0.7-5.4,1.4-10.7,2.2-16.1c0.2-1,0.4-2,0.5-2.9c0-0.8-0.6-0.9-1.4-1.1
		c-4.7-1.1-9.9-1.1-14.8-1.4c-9.2-0.5-18.4-0.8-27.6-1c-12.2-0.3-24.5-0.5-36.7-0.6c-13.9-0.2-27.8-0.3-41.7-0.4
		c-14.3-0.1-28.5-0.1-42.8-0.2c-13.3,0-26.7,0-40,0c-11.1,0-22.3,0-33.4,0.1l-22.6,0.1h-8c-1.2,0.1-2.3,0.5-3.2,1.1
		C198.1,44.6,196.8,45.5,197.9,45.5z" fill="#000005"></path><path class="st1" d="M220.2,70.6h17.1c1.2,0,1.6-1.3,1.3-2.3c-0.4-1.2-1.4-2.1-2.7-2.2h-17.2c-1.2,0-1.6,1.3-1.3,2.3
		C217.9,69.7,219,70.6,220.2,70.6z" fill="#000005"></path><path class="st1" d="M219.7,77.8h17.1c1,0,0.2-1.7,0-2.1c-0.4-0.7-1.3-2.2-2.3-2.2h-17.1c-1,0-0.2,1.7,0,2.1
		C217.8,76.3,218.7,77.8,219.7,77.8z" fill="#000005"></path><path class="st1" d="M289.2,317l-8.9,6.4l-1.3,0.9c-0.4,0.3-0.1,1,0,1.4c0.3,0.7,0.8,1.3,1.4,1.7l9.2,6.5c0.5,0.4,2,1.2,2.3,0.2
		s-0.9-2.3-1.6-2.8l-9.2-6.5l1.4,3.1l8.9-6.4l1.3-0.9c0.3-0.2,0.2-0.9,0.1-1.1c-0.2-0.6-0.6-1.1-1-1.5
		C291.2,317.4,290,316.4,289.2,317L289.2,317z" fill="#000005"></path><path class="st1" d="M301.1,319.1l8.4,8.4l-0.4-2.6l-8.8,6.2c-1.9,1.4,1.9,4.5,3.6,3.3l8.8-6.2c1-0.7,0.2-2-0.4-2.6l-8.4-8.4
		c-0.7-0.7-2.2-1.4-3.2-0.7S300.6,318.5,301.1,319.1L301.1,319.1z" fill="#000005"></path><polygon class="st0" points="252.4,67.8 429.2,70.4 424.7,87.8 248.3,85.5 	" fill="#FFFFFF"></polygon><path class="st1" d="M253.7,69.1l4.7,0.1l12.9,0.2l19,0.3l23.2,0.3l25.5,0.4l25.6,0.4l23.9,0.3l20.3,0.3l14.5,0.2
		c2.3,0,4.6,0.2,6.9,0.1h0.3l-3.7-2.3l-4.5,17.3l1-0.4l-4.7-0.1l-12.9-0.2l-18.9-0.2l-23.2-0.3l-25.4-0.3L312.7,85l-23.9-0.3
		l-20.2-0.3l-14.5-0.2c-2.3,0-4.6-0.2-6.9-0.1h-0.3l3.7,2.3l4.1-17.7c0.4-1.5-4.4-3.2-4.6-1.9l-4,17.7c-0.3,1.4,2.7,2.3,3.7,2.3
		l4.7,0.1l12.9,0.2l18.9,0.2l23.2,0.3l25.4,0.3l25.5,0.3l23.9,0.3l20.2,0.3l14.5,0.2c2.3,0,4.6,0.1,6.9,0.1h0.3c0.2,0,0.9-0.1,1-0.4
		l4.5-17.3c0.4-1.4-2.7-2.3-3.7-2.3l-4.7-0.1l-12.9-0.2l-19-0.3l-23.2-0.3l-25.5-0.4l-25.6-0.4L293,67.1l-20.3-0.3l-14.5-0.2
		c-2.3,0-4.6-0.1-6.9-0.1H251c-1,0-1.2,0.7-0.5,1.3C251.3,68.6,252.5,69.1,253.7,69.1z" fill="#000005"></path><polygon class="st0" points="213.2,110.6 429.7,113.7 420.8,171.4 204.3,168.4 	" fill="#FFFFFF"></polygon><path class="st1" d="M211.9,112.2l5.8,0.1l15.8,0.2l23.3,0.3l28.5,0.4l31,0.4l31.5,0.4l29.3,0.4l24.7,0.3l17.9,0.3
		c2.8,0,5.7,0.3,8.5,0.1h0.4l-1.1-0.9l-3,19.5l-4.8,31l-1.1,7.2l3.6-2.1l-5.8-0.1l-15.8-0.2l-23.3-0.3l-28.5-0.4l-31-0.4l-31.5-0.5
		l-29.3-0.4l-24.7-0.3l-17.8-0.2c-2.8,0-5.7-0.3-8.5-0.1h-0.4l1.1,0.9l3-19.5l4.8-31.1l1.1-7.1c0.3-1.8-4.4-0.5-4.7,1.2l-3,19.6
		l-4.8,31.1l-1.1,7.1c-0.1,0.6,0.6,0.9,1.1,0.9l5.8,0.1l15.8,0.2l23.3,0.3l28.5,0.4l31,0.4l31.5,0.4l29.3,0.4l24.7,0.3l17.8,0.2
		c2.8,0,5.6,0.1,8.5,0.1h0.4c1.2,0,3.4-0.6,3.6-2.1l3-19.4l4.8-31l1.1-7.1c0.1-0.6-0.6-0.9-1.1-0.9l-5.8-0.1l-15.8-0.2l-23.3-0.3
		l-28.5-0.4l-31-0.4l-31.5-0.4l-29.3-0.4l-24.7-0.3l-17.8-0.2c-2.8,0-5.6-0.1-8.4-0.1h-0.4c-1.2,0-2.4,0.5-3.3,1.4
		C210.6,111.2,210.8,112.1,211.9,112.2z" fill="#000005"></path><path class="st1" d="M288.9,148.5c2.7-1.4,5.3-2.9,7.9-4.5c1.9-1.1,3.7-2.4,5.4-3.8c1.2-1,2.6-2.4,2.5-4c-0.1-2.4-3.1-2.9-4.9-2.1
		c-1.7,0.9-2.9,2.4-3.6,4.2c-1.4,3.3-1.8,8.2,1.6,10.4c2.5,1.6,5.6,1.1,8.3,0.4c3.1-0.8,5.9-2.3,8.3-4.4c1.7-1.3,3-3,3.7-4.9
		c0.8-2.5-1.6-3.8-3.8-3.1c-4,1.3-6.4,7.4-3.4,10.6c2.1,2.3,5.6,2.2,8.5,1.7c3.3-0.6,6.5-2.1,9.1-4.2c1.4-1.1,3.6-3.2,3-5.2
		c-0.8-2.7-4.5-1.5-6-0.1c-2.7,2.5-4.9,9.4,0.3,10.4c1.4,0.2,2.8,0,4.1-0.4c1.1-0.4,2.1-1.5,1.7-2.7c-0.5-1.1-1.8-1.6-3-1.2
		c-0.3,0.1-0.6,0.2-0.9,0.2c0.4-0.1-0.1,0-0.2,0s-0.6,0-0.1,0c-0.4,0,0.2,0.2-0.1,0c0.1,0.1,0.3,0.3,0.1,0.1l-0.1-0.1
		c0.2,0.2,0.3,0.2,0.1,0.1c-0.1,0.1,0.2,0.4,0,0c-0.1-0.1-0.1-0.6,0-0.1c0-1.1,0.3-2.1,0.9-3l0.2-0.4c0.3-0.5-0.3,0.3,0.1-0.1
		c0.1-0.1,0.2-0.2,0.2-0.2c0.2-0.3,0.4-0.1,0,0c0.6-0.1-0.4,0.1-0.5,0.1c-0.9,0-1.6-0.6-1.8-1.4c0-0.2,0-0.6,0-0.2
		c0,0.2,0.3-0.4,0-0.1c-0.1,0.1-0.6,0.8-0.2,0.4c-0.3,0.3-0.5,0.6-0.8,0.8c-0.3,0.3-0.6,0.5-0.9,0.7c-1.8,1.3-3.8,2.1-5.9,2.6
		c-1,0.2-1.9,0.3-2.9,0.1c-0.8-0.1,0.3,0.1-0.4-0.1c0,0-0.7-0.3-0.3-0.1c-0.1-0.1-0.2-0.1-0.3-0.2c-0.2-0.2,0.1,0.2-0.2-0.3
		c-0.1-0.1-0.1-0.2-0.2-0.3c0.2,0.4,0,0,0-0.1s-0.1-0.2-0.1-0.3c-0.1-0.5,0,0.4,0-0.1c0-0.3,0-0.6,0-0.9c-0.1,0.4,0.2-0.5,0.2-0.7
		s0.3-0.6,0.1-0.2c0.1-0.1,0.1-0.2,0.2-0.3l0.3-0.4c0.3-0.5-0.2,0.2,0,0l0.3-0.3c0.4-0.4-0.4,0.2,0,0c0.2-0.1,0.2,0-0.2,0.1
		c0.6-0.1-0.5,0-0.2,0c-1,0-1.9-0.4-2-1.4c0,0.3,0.2-0.3,0,0c-0.1,0.1-0.1,0.2-0.1,0.4c0-0.1,0.2-0.5,0-0.1s-0.4,0.6-0.6,0.9
		c0,0-0.4,0.6-0.1,0.2l-0.3,0.3c-0.3,0.3-0.6,0.6-0.9,0.9c-0.7,0.6-1.4,1.2-2.2,1.7c-1.8,1.1-3.8,1.9-5.9,2.1
		c-0.3,0-0.5,0.1-0.8,0.1c-0.8,0,0.2,0-0.2,0l-0.5-0.1c-0.6-0.1,0.4,0.2-0.2,0l-0.3-0.1c-0.5-0.2,0.4,0.2-0.1-0.1
		c-0.1-0.1-0.2-0.1-0.3-0.2c-0.3-0.2,0.2,0.3-0.2-0.2l-0.2-0.3c-0.3-0.4,0.1,0.4,0-0.1c-0.1-0.3-0.2-0.5-0.3-0.8
		c0-0.1-0.1-0.6,0-0.1c0-0.1,0-0.2,0-0.3c0-0.4,0-0.7,0-1.1c0-0.2,0-0.4,0-0.6c0,0,0.1-0.6,0-0.3s0.1-0.3,0-0.3
		c0-0.2,0.1-0.4,0.1-0.5c0.2-0.6,0.4-1.3,0.7-1.9c-0.2,0.5,0.1-0.3,0.2-0.4s0.3-0.4,0.4-0.6c0.3-0.4-0.4,0.4,0,0
		c0.1-0.1,0.1-0.1,0.2-0.2c0.2-0.1,0.5-0.3-0.1,0.1c0.5-0.3-0.4,0.1-0.2,0.1s0.4,0-0.3,0.1c-0.3,0.1-0.5,0-0.8-0.1
		c0.1,0-0.4-0.4-0.4-0.3c-0.2-0.3-0.3-0.7-0.1-1c0,0.1,0,0.1-0.1,0.2c0-0.2,0.3-0.3,0-0.1c-0.1,0.1-0.2,0.2-0.2,0.3
		c0.2-0.3,0.3-0.3,0,0l-0.7,0.7l-0.9,0.7c-0.5,0.4,0.4-0.3-0.1,0.1l-0.5,0.4c-1.5,1.1-3.1,2.1-4.7,3c-2,1.2-4.1,2.4-6.3,3.5
		c-1,0.5-1.5,1.7-1,2.8c0,0.1,0.1,0.1,0.1,0.2c0.8,1.1,2.3,0.9,3.4,0.4L288.9,148.5z" fill="#000005"></path><path class="st1" d="M345.8,146.5c1.6-0.6,3.2-1.3,4.8-2c0.8-0.4,4.6-1.9,4.1-3.2c-0.5-1.1-3.3-0.6-4.1-0.5
		c-1.1,0.1-2.2,0.3-2.7,1.4c-0.8,1.7-0.4,3.7,1,4.9c1.1,0.9,2.9,0.9,4.2,0.8c2.3-0.1,4.5-0.6,6.6-1.4c1.7-0.7,3.3-1.6,4.8-2.7
		c0.5-0.4,2-1.5,2-2.3c0-1.1-2.6-0.7-3.2-0.6c-1.5,0-2.9,0.5-4.1,1.3c-1.4,1.3-1.8,3.6-0.2,4.9c1.4,1.1,3.6,1,5.3,0.9
		c2.6-0.1,5.2-0.6,7.7-1.5c1.2-0.4,3.6-1.4,3.6-3c0-0.4-5-0.3-5,0.5s-0.7,1.3-1.1,1.6c-0.7,0.5-1.5,0.9-2.3,1.1
		c-0.7,0.2-1.3,0.3-2,0.4c0.2,0,0.6,0.1,0.3,0s-0.6-0.1-0.9-0.2c-1.3-0.6-2-2.1-1.4-3.4c0.2-0.7,0.6-1.2,1.2-1.6
		c0.1-0.1,0.2-0.1,0.3-0.2l0.2-0.1c-1.1,0.2-2.2,0.3-3.3,0.2c0,0,0.1,0.3,0,0.4c-0.7,1.8-3.2,3.1-4.8,3.9c-0.6,0.3-1.1,0.5-1.7,0.7
		c-0.4,0.1-0.7,0.2-1.1,0.4c-1.4,0.4,0.4-0.3,0.9,0c-0.6-0.4-1.3-0.4-1.8-1.2c-0.7-1.1-0.8-2.5-0.3-3.7c0.1-0.2,0.2-0.4,0.4-0.6
		c0.1-0.1,0.2-0.1,0.2-0.2c-0.7,0.9-3.6,1-3.9,0.4c0.2,0.4,0.5,0.3,0.2,0.8c-0.5,0.6-1.2,1.1-1.9,1.4c-0.8,0.5-1.7,0.9-2.6,1.3
		c-1.2,0.5-2.5,1-3.7,1.5c-1,0.4,0.8,0.5,0.9,0.5C343.6,147,344.8,146.9,345.8,146.5L345.8,146.5z" fill="#000005"></path><polygon class="st2" points="224.9,127.6 271.9,128.4 267.3,159.5 220.8,158.3 	" fill="#59BE4C"></polygon><path class="st0" d="M236.4,144.2l6,8.1c0.5,0.7,1.8,1.6,2.6,0.7l9.9-12.1l1.4-1.7c0.8-0.9,0.3-2.4-0.3-3.3
		c-0.5-0.7-1.8-1.6-2.6-0.7l-9.9,12.1l-1.4,1.7l2.6,0.7l-6-8.1c-0.6-0.7-1.8-1.6-2.6-0.7S235.7,143.4,236.4,144.2L236.4,144.2z" fill="#FFFFFF"></path><polygon class="st0" points="201.1,192.6 417.6,195.7 408.7,253.4 192.2,250.4 	" fill="#FFFFFF"></polygon><path class="st1" d="M200.3,194.3l5.8,0.1l15.8,0.2l23.3,0.3l28.5,0.4l31,0.4l31.5,0.4l29.3,0.4l24.7,0.4l17.8,0.3
		c2.8,0,5.7,0.2,8.5,0.1h0.4l-1.6-1.3l-3,19.5l-4.8,31l-1.1,7.1l3.2-2l-5.8-0.1l-15.7-0.1l-23.3-0.3l-28.5-0.4l-31-0.4l-31.5-0.4
		l-29.3-0.4l-24.7-0.3l-17.9-0.2c-2.8,0-5.7-0.2-8.5-0.1H193l1.6,1.3l3-19.5l4.8-31.1l1.1-7.1c0.3-2.1-4.5-1.2-4.8,0.7l-3,19.5
		l-4.8,31.1l-1.1,7.1c-0.1,0.9,0.9,1.3,1.6,1.3l5.8,0.1l15.8,0.2l23.3,0.3l28.5,0.4l31,0.4l31.5,0.4l29.3,0.4l24.7,0.3l17.8,0.2
		c2.8,0,5.6,0.1,8.5,0.1h0.4c1.1,0,3-0.6,3.2-2l3-19.5l4.8-31l1.1-7.1c0.1-0.9-0.9-1.3-1.6-1.3l-5.8-0.1l-15.8-0.2l-23.3-0.3
		l-28.5-0.4l-31-0.4l-31.5-0.4l-29.3-0.4l-24.7-0.4l-17.8-0.2c-2.8,0-5.6-0.1-8.4-0.1h-0.4c-1.1,0-2.6,0.5-3.1,1.5
		S199.3,194.2,200.3,194.3z" fill="#000005"></path><path class="st1" d="M278,228.6c2.7-1.4,5.3-2.9,7.9-4.5c1.8-1.1,3.5-2.3,5.1-3.6c0.6-0.5,2.2-1.8,1.7-2.7
		c-0.2-0.4-0.8-0.5-1.3-0.6c-1.7-0.2-3.4,0.1-5,0.7c-1.2,0.7-2,1.8-2.4,3.1c-1.1,2.8-1.5,7.3,2,8.6c1.1,0.3,2.3,0.4,3.5,0.3
		c2.1-0.1,4.1-0.5,6.1-1c2.8-0.7,5.5-2.1,7.7-4c1.1-1,2.8-2.5,3-4.1c0.1-0.5,0-0.7-0.5-0.8c-0.8-0.1-1.7-0.1-2.5,0.1
		c-0.8,0.1-1.7,0.2-2.5,0.5c-3.1,1-4.6,6.2-1.5,8.1c1.1,0.6,2.3,0.8,3.5,0.8c2.2,0,4.4-0.3,6.5-0.7c3-0.6,5.8-1.9,8.2-3.8
		c0.5-0.4,3-2.4,2.1-3.3c-0.2-0.1-0.5-0.2-0.7-0.2c-1.1,0-2.2,0.1-3.3,0.3c-1,0.1-1.9,0.5-2.6,1.1c-1.2,1.2-2,2.9-2.2,4.7
		c-0.1,2.2,1.5,2.7,3.4,2.6c1.8-0.1,3.7-0.3,5.4-0.9c0.9-0.3-0.8-0.2-0.9-0.2c-1.1,0-2.3,0.2-3.4,0.5c-1.7,0.5,0.9-0.7,2-0.1
		c-0.1-0.1-0.3,0-0.5-0.1c-0.2-0.1-0.4-0.3-0.6-0.5c-0.3-0.5-0.5-1.1-0.4-1.7c0.1-1.4,0.6-2.7,1.4-3.8c0.3-0.5,0.7-0.9,1.1-1.2
		c0.1-0.1,0.2-0.1,0.3-0.2l-4,0.4h0.1c0,0.1,0.1,0.2,0.1,0.4c0.1,1.1-1.8,2.5-2.5,3c-1.9,1.4-4.1,2.4-6.4,3c-0.9,0.3,1.3,0.1,0.5,0
		c-0.3-0.1-0.5-0.1-0.8-0.1c-0.4-0.1-0.7-0.2-1.1-0.4c-0.6-0.3-1.2-0.8-1.5-1.5c-0.5-1.3-0.5-2.7,0.1-4c0.2-0.6,0.6-1.1,1-1.5
		c0.3-0.3,0.5-0.5,0.8-0.7c0.1-0.1,0.2-0.1,0.3-0.1c1.1-0.8-3.8,4.4-4,0.4c0,0.2,0.1,0.4,0.1,0.7c-0.1,0.6-0.4,1.1-0.7,1.5
		c-1,1.5-2.3,2.7-3.9,3.7c-0.9,0.6-1.9,1.2-3,1.6c-0.5,0.2-1.1,0.4-1.6,0.6c-0.3,0.1-0.7,0.2-1,0.3c-1.2,0.3,0.1-0.3,0.8,0
		c-0.6-0.1-1.2-0.3-1.9-0.5c-0.6-0.3-1-0.8-1.3-1.4c-1.3-2.2-0.6-5.4,0.5-7.6c0.5-0.8,1.1-1.6,1.8-2.2c-2.5,2.2-4.2,0.1-3.8,0.5
		c0,0,0.1,0,0.2,0.1s0.2,0.2,0.3,0.4c0.1,0.3,0,0.6-0.1,0.9c-0.8,1.2-1.8,2.1-3,2.9c-1.5,1.1-3.2,2.2-4.9,3.1
		c-2.1,1.3-4.3,2.5-6.5,3.6c-0.3,0.1,1.6,0.1,1.8,0.1C276,229.2,277.1,229,278,228.6L278,228.6z" fill="#000005"></path><path class="st1" d="M333.3,229.9c1.7-0.6,3.3-1.3,4.9-2.1c1.4-0.7,5-2.1,4.2-4.3c-0.9-2.6-5.3-3-6.5-0.5c-0.8,2-0.4,4.2,1,5.8
		c2.8,3.1,7.3,2.2,10.7,0.8c1.7-0.7,3.3-1.6,4.7-2.8c0.8-0.7,1.9-1.6,2-2.7c0.2-1.8-2.1-2.8-3.6-2.8c-1.3,0-2.5,0.5-3.5,1.5
		c-1.7,1.7-1.7,4.5,0,6.2c0,0,0,0,0,0c3.2,3.2,8.8,2.1,12.5,0.7c1.5-0.6,3.6-1.9,3.6-3.8s-4.8-3.2-4.8-0.8c0-0.6,0.1-0.2-0.1,0.1
		s0.2-0.2-0.1,0.1c-0.1,0.1-0.6,0.6-0.5,0.5c-1.9,1.2-4.2,1.9-6.5,1.8c0,0-0.9-0.1-0.4,0c-0.1,0-0.5-0.2,0,0
		c-0.5-0.3,0.2,0.3-0.1-0.1c0.4,0.4,0,0-0.1-0.1c0.1,0.5,0-0.1,0-0.1c0,0.4,0-0.2,0-0.2c0-0.2,0-0.5,0.1-0.7c0.1-0.6,0.5-1.1,1-1.5
		c-0.3,0.2,0.6-0.4,0.2-0.1l0.2-0.1c0.3-0.1,0.2-0.1-0.1,0c1.1,0,0.3-0.5-2.5-1.5c-0.1-0.2-0.1-0.4-0.1-0.5c0.1,0.1-0.1,0.2-0.3,0.5
		c-0.2,0.3-0.5,0.5-0.8,0.8c-0.9,0.8-2,1.5-3.1,2c-1.2,0.6-2.5,1.1-3.8,1.4c0.1,0-0.7,0.1-0.6,0.1s-0.8,0.1-0.4,0
		c-0.7,0,0.3,0-0.1,0c-0.2-0.1-0.1,0,0.2,0.1c-0.2-0.1-0.2-0.1,0.1,0.1c-0.5-0.2,0.2,0.3-0.1-0.1c-0.1-0.1-0.3-0.5-0.1-0.1
		c-0.1-0.2-0.1-0.3-0.2-0.5c-0.2-0.5,0,0.3,0-0.2c-0.1-0.5-0.1-1.1,0.1-1.6c0-0.1,0.3-0.9,0.2-0.5l0.1-0.2c0,0-0.2,0,0,0
		c-0.9,0.1-2.5,0.1-2.9-1.1c0-0.1-0.2-0.6-0.1-0.5c-0.1-0.1,0.2-0.2-0.1,0.1c-0.5,0.4-1.1,0.8-1.7,1.1c-0.9,0.5-1.8,0.9-2.6,1.3
		c-1.1,0.5-2.3,1-3.5,1.4s-0.5,1.8,0.1,2.3c0.9,0.8,2.2,1,3.4,0.6L333.3,229.9z" fill="#000005"></path><polygon class="st2" points="213.5,211.7 211.5,211.5 211.9,208.6 214.8,208.6 214.8,210.6 213.6,210.6 	" fill="#59BE4C"></polygon><path class="st2" d="M253.9,211.3l-3.9-0.1v-2l3.9,0.1V211.3z M246.1,211.2l-3.9-0.1v-2l3.9,0.1L246.1,211.2z M238.3,211l-3.9-0.1
		v-2l3.9,0.1L238.3,211z M230.4,210.9l-3.9-0.1v-2l3.9,0.1V210.9z M222.6,210.8l-3.9-0.1v-2l3.9,0.1L222.6,210.8z" fill="#59BE4C"></path><polygon class="st2" points="260.6,212.5 258.6,212.2 258.7,211.4 257.9,211.4 257.9,209.4 261,209.4 	" fill="#59BE4C"></polygon><path class="st2" d="M257.1,235.8l-2-0.3l0.6-3.9l2,0.3L257.1,235.8z M258.2,228l-2-0.3l0.6-3.9l2,0.3L258.2,228z M259.4,220.3
		l-2-0.3l0.6-3.9l2,0.3L259.4,220.3z" fill="#59BE4C"></path><polygon class="st2" points="256.1,242.5 253.2,242.4 253.2,240.4 254.4,240.4 254.5,239.3 256.5,239.6 	" fill="#59BE4C"></polygon><path class="st2" d="M249.3,242.3l-3.9-0.1v-2l3.9,0.1V242.3z M241.6,242.1l-3.9-0.1l0.1-2l3.9,0.1L241.6,242.1z M233.9,241.9
		l-3.9-0.1v-2l3.9,0.1V241.9z M226.1,241.7l-3.9-0.1l0.1-2l3.9,0.1L226.1,241.7z M218.4,241.6l-3.9-0.1l0.1-2l3.9,0.1L218.4,241.6z" fill="#59BE4C"></path><polygon class="st2" points="210.6,241.4 207.5,241.3 207.9,238.2 209.9,238.5 209.8,239.3 210.7,239.4 	" fill="#59BE4C"></polygon><path class="st2" d="M210.4,234.6l-2-0.3l0.5-3.8l2,0.3L210.4,234.6z M211.4,227l-2-0.3l0.5-3.8l2,0.3L211.4,227z M212.4,219.4
		l-2-0.3l0.5-3.8l2,0.3L212.4,219.4z" fill="#59BE4C"></path></g><g id="character"><path class="st1" d="M96.9,433.5c0,0-0.9,21.1-0.4,21.1s9-0.3,9-0.3V446l4.1,9.3l28.2-1.7c0,0,0.9-3.1-5.4-6.5s-16.5-8.2-16.5-8.2
		l-0.2-12.6L96.9,433.5z"></path><path class="st1" d="M96.2,433.4c-0.2,4.3-0.3,8.6-0.5,12.9c-0.1,2.4-0.2,4.8-0.1,7.1c0,0.3,0,0.9,0.2,1.2c0.4,0.5,1.6,0.2,2.1,0.2
		l7.9-0.3c0,0,0.2,0,0.2-0.1v-8.5l-1.2-0.2l4.1,9.3c0.1,0.3,0.8,0.3,1,0.3l24.7-1.5l3.5-0.2c0,0,0.2,0,0.2-0.1
		c0.1-1.1-0.3-2.2-1-3.1c-1.9-2.5-5.1-3.9-7.9-5.3c-4.4-2.2-8.8-4.4-13.3-6.5l0.3,0.2l-0.2-12.6c0-0.3-0.9-0.4-1.1-0.4l-18.7,7.2
		c-0.3,0.1,0.8,0.5,1,0.4l18.7-7.2l-1.1-0.4l0.2,12.6c0,0.1,0.2,0.2,0.3,0.2c4.2,2,8.3,4,12.4,6c2.8,1.4,6.3,2.8,8.3,5.4
		c0.5,0.6,0.9,1.4,1,2.2c0,0.2-0.1,0.9,0.2,0.7c-0.4,0.2-1.6,0.1-2,0.1l-4.9,0.3l-13,0.8l-8.3,0.5l1,0.3l-4.1-9.3
		c-0.1-0.2-1.2-0.5-1.2-0.2v3.4c-0.1,1.6-0.1,3.1,0,4.7c0,0.1,0,0.3,0,0.4c0,0.1,0.3-0.1,0.1,0c-0.6,0.1-1.2,0.1-1.8,0.1l-5.2,0.2
		c-0.5-0.1-1.1-0.1-1.6,0c-0.5,0.1,0.7,0.4,0.8,0.2s0-0.3,0-0.4c0-1.1-0.1-2.1,0-3.2c0-3.5,0.1-6.9,0.3-10.4c0.1-2.3,0.2-4.7,0.3-7
		C97.5,433.4,96.3,433.2,96.2,433.4z"></path><path class="st1" d="M77.2,433.1c0,0,1.1,22.1,0.4,22.1s-10-0.3-10-0.3v-8.8l-4.7,9.7L31.6,454c0,0-1-3.2,6.1-6.8
		s18.4-8.5,18.4-8.5l0.2-13.1L77.2,433.1z"></path><path class="st1" d="M76.6,433.2c0.2,4.1,0.3,8.3,0.5,12.4c0.1,2.6,0.2,5.1,0.1,7.7c-0.1,0.6-0.2,1.2-0.1,1.8c0,0,0.8-0.1,0.5-0.3
		c-0.1,0-0.4,0-0.5,0h-1.6l-7.8-0.2l0.5,0.3V446c0-0.5-1-0.3-1.2,0l-4.6,9.7l0.7-0.3l-27.4-1.5l-4-0.2l0.5,0.3
		c-0.4-1.1,0.7-2.5,1.4-3.3c2.4-2.6,6.1-3.9,9.2-5.4c4.5-2.1,9-4.1,13.5-6.1c0.1-0.1,0.4-0.2,0.4-0.4l0.3-13.2l-1,0.4l18.3,6.6
		l2.6,0.9c0.5,0.2,1.5-0.5,0.8-0.8l-18.3-6.6l-2.6-0.9c-0.3-0.1-1,0-1,0.4l-0.2,13.1l0.4-0.4c-5.1,2.2-10.1,4.5-15.1,6.9
		c-3.1,1.5-6.6,2.9-8.7,5.7c-0.6,0.8-1.4,2.1-1,3.2c0.1,0.2,0.3,0.3,0.5,0.3L59,456l4,0.2c0.3,0,0.5-0.1,0.7-0.3l4.6-9.7H67v8.8
		c0,0.2,0.4,0.3,0.5,0.3l7.3,0.2c1,0.1,2,0.2,2.9,0.1c0.6-0.2,0.6-0.6,0.7-1.1c0.1-2.2,0.1-4.5,0-6.7c-0.1-3.1-0.2-6.2-0.3-9.3
		l-0.2-5.5C77.8,432.4,76.6,432.6,76.6,433.2z"></path><path class="st1" d="M62,254.4c0,0-20,173.5-14.3,178s37.1-2.5,37.1-2.5l3.8-35.9l1.9,39c0,0,24.5,6.3,33.3,3.1
		c0,0,12.6-164.8,12.6-188.7S62,254.4,62,254.4z"></path><path class="st1" d="M59.7,255c-0.2,2.2-0.5,4.3-0.7,6.5c-0.7,5.8-1.3,11.6-1.9,17.4c-0.9,8.3-1.8,16.7-2.7,25
		c-1,9.8-2,19.6-3,29.3c-1,10.1-2,20.2-2.9,30.4c-0.9,9.5-1.7,18.9-2.4,28.4c-0.6,7.7-1.1,15.4-1.4,23.1c-0.3,4.9-0.3,9.7,0,14.6
		c0,1.2,0.2,2.4,0.7,3.4c0.6,0.8,1.5,1.4,2.6,1.6c2.1,0.5,4.2,0.8,6.3,0.8c5.2,0,10.4-0.5,15.5-1.3c4.4-0.7,8.8-1.4,13.2-2.3l2-0.4
		c1-0.2,2.3-1,2.4-2.2l3.3-31.4l0.5-4.5l-4.7,1.2l1.7,34.1l0.2,4.9c0,0.4,0.3,0.8,0.7,0.9c8.8,2.2,17.9,4,27,4.2
		c2.9,0.1,5.9-0.3,8.7-1.2c0.9-0.3,1.6-1,1.8-2c0.2-3.2,0.5-6.4,0.7-9.6c0.6-8.3,1.2-16.7,1.9-25c0.9-11.5,1.7-23,2.5-34.5
		c0.9-12.8,1.8-25.7,2.7-38.5c0.9-12.3,1.7-24.6,2.5-36.9c0.6-9.8,1.2-19.6,1.7-29.4c0.2-3.3,0.3-6.7,0.4-10
		c0.1-2.6,0.4-5.4-0.4-7.9c-2.4-7.9-14.1-7.4-20.5-6.8c-11.2,1-22.1,4.1-32.8,7.6c-7.6,2.4-15.1,5.1-22.5,8.1l-1.1,0.4
		c-0.8,0.3-2.1,1.3-1.7,2.4s2.1,0.7,2.9,0.4c5.2-2.1,10.4-4.1,15.7-5.9l1.7-0.6l0.4-0.1c-0.5,0.2-0.1,0,0.1,0l1-0.4l3.8-1.2
		c2.6-0.8,5.2-1.6,7.9-2.4c5.4-1.6,10.9-2.9,16.4-3.9l0.9-0.1l0.4-0.1h0.2c0.7-0.1,1.4-0.2,2-0.3c1.2-0.2,2.5-0.3,3.8-0.4
		s2.4-0.2,3.6-0.2c0.5,0,1.1,0,1.6,0h0.4h0.9c1,0.1,1.9,0.2,2.9,0.3c0.4,0.1,0.9,0.2,1.3,0.3s-0.3-0.1,0,0l0.3,0.1
		c0.2,0.1,0.5,0.1,0.7,0.2c1.4,0.4,2.7,1.1,3.7,2.2c0.4,0.4,0.8,0.9,1,1.5c0.2,0.3,0.3,0.7,0.4,1c0,0.2,0.1,0.3,0.1,0.5l0.1,0.2
		c0.1,0.4,0-0.2,0,0.1c0.1,1.2,0.2,2.4,0.1,3.6c-0.1,2.9-0.2,5.8-0.3,8.7c-0.4,9-1,18-1.5,27c-0.7,11.8-1.5,23.7-2.3,35.5
		c-0.9,12.8-1.8,25.5-2.7,38.3c-0.8,11.8-1.7,23.7-2.6,35.5c-0.7,9.2-1.3,18.3-2,27.5c-0.3,4.5-0.7,9-1,13.5v0.6l1.8-2
		c0.5-0.2,0,0-0.2,0l-0.7,0.2l-0.6,0.1l-0.7,0.1c-1.2,0.1-2.4,0.2-3.6,0.2c-2.6,0-5.3-0.2-7.9-0.6c-4.9-0.6-9.8-1.5-14.7-2.6
		l-2.3-0.5l-0.6-0.1l0.2,0l0.7,0.9l-1.7-34.1l-0.2-5c-0.1-2.3-4.6-0.6-4.7,1.2L83,425.9l-0.5,4.5l2.4-2.2
		c-7.4,1.7-14.9,2.9-22.5,3.6c-1.3,0.1-2.5,0.2-3.8,0.3c-0.6,0-1.1,0-1.7,0h-1.5c-1,0-2-0.1-3-0.2l-0.7-0.1l-0.4-0.1
		c0,0-0.7-0.2-0.9-0.3l-0.5-0.2c-0.3-0.1,0.3,0.1-0.1,0c-0.1,0-0.2-0.2-0.2-0.2c0.3,0.1,0.1,0.3,0-0.1c-0.1-0.2-0.1-0.4-0.2-0.6
		s0-0.2-0.1-0.4s0.1,0.5,0,0.2v-0.2c-0.4-4.2-0.5-8.5-0.2-12.7c0.2-7.2,0.7-14.4,1.2-21.6c0.7-9.1,1.4-18.3,2.2-27.4
		c0.9-10,1.8-20,2.8-30c1-9.8,2-19.7,3-29.5c0.9-8.7,1.8-17.3,2.8-26c0.7-6.4,1.4-12.8,2.1-19.2c0.3-3.1,0.8-6.2,1-9.2
		c0-0.1,0-0.3,0-0.4C64.6,251.7,59.9,253,59.7,255z"></path><path class="st0" d="M92.9,313.6L92,325.1l-2,27.8l-2.4,33.6l-2.1,29c-0.3,4.7-0.8,9.4-1,14c0,0.1,0,0.1,0,0.2
		c-0.1,1.3,0.5,2.5,1.6,3.2c0.5,0.4,1.2,0.3,1.6-0.2c0.2-0.2,0.3-0.5,0.3-0.8l0.8-11.6l2-27.7l2.4-33.6l2.1-29c0.3-4.7,0.8-9.4,1-14
		c0-0.1,0-0.1,0-0.2c0.1-1.3-0.5-2.5-1.6-3.2c-0.5-0.4-1.2-0.3-1.6,0.2C92.9,313,92.8,313.3,92.9,313.6L92.9,313.6z"></path><path class="st0" d="M54.8,211.4c0,0,28.4-27.7,55.3-17.5s39.3,83.7,34.4,95.5s-98-25.1-103-32.1S54.8,211.4,54.8,211.4z"></path><path class="st1" d="M56.2,213.4c2.4-2.3,5-4.4,7.7-6.3c5.7-4.3,12-7.7,18.7-10.3c7.8-2.8,16.3-4,24.5-1.9c1.6,0.4,3.1,0.9,4.6,1.6
		l0.8,0.4c0.1,0.1,0.7,0.4,0.3,0.2c0.6,0.3,1.1,0.7,1.6,1s1,0.7,1.4,1.1c0.1,0.1,0.9,0.7,0.5,0.4l0.8,0.7c1,0.9,1.9,1.9,2.8,2.9
		c0.1,0.1,0.6,0.7,0.5,0.6s0.4,0.5,0.5,0.6c0.5,0.6,0.9,1.2,1.4,1.8c0.9,1.2,1.7,2.4,2.4,3.7l0.6,0.9l0.2,0.4l0.1,0.2
		c0.4,0.7,0.8,1.5,1.2,2.2c0.8,1.4,1.5,2.8,2.2,4.3c2.9,6.2,5.3,12.6,7.2,19.2c3.7,12.1,6.1,24.6,7,37.3c0.1,2.3,0.2,4.6,0.2,6.9
		c0,0.5,0,0.9-0.1,1.4c0-0.5,0,0.3,0,0.4l-0.1,0.7c-0.1,0.8-0.2,1.5-0.3,2.3c-0.1,0.3-0.1,0.6-0.2,0.9l-0.1,0.4
		c-0.1,0.5,0.2-0.2,0,0.1l-0.3,0.5c-0.2,0.4,0.2-0.1-0.2,0.2c-0.2,0.1-0.4,0.3-0.6,0.4l-0.3,0.1c-0.3,0.2,0.4-0.1-0.1,0
		c-0.5,0.2-1.1,0.3-1.7,0.4c-1.4,0.2-2.9,0.3-4.4,0.1c-2.1-0.1-4.1-0.4-6.1-0.8c-5.2-0.9-10.3-2.1-15.3-3.5
		c-12.2-3.4-24.1-7.6-35.9-12.2c-10-3.7-19.8-8-29.3-12.8c-0.8-0.4-1.5-0.8-2.3-1.2c-0.1-0.1-0.7-0.4-0.1-0.1l-0.5-0.3
		c-0.3-0.2-0.7-0.4-1-0.6c-0.5-0.3-1-0.6-1.5-1l-0.6-0.4c-0.4-0.3,0.5,0.5,0.2,0.1c-0.1-0.1-0.1-0.2-0.2-0.2c-0.1,0-0.1-0.1-0.2-0.2
		c-0.3-0.2,0.5,0.6,0.3,0.3c-0.4-0.5,0.3,0.4,0.1,0.1c0-0.1-0.1-0.1-0.1-0.2c-0.2-0.4,0.1,0.5,0.1,0.1c0-0.2-0.1-0.4-0.1-0.5
		c-0.1-0.4,0,0.4,0-0.2s-0.1-1-0.1-1.5c0-0.4,0-0.8,0-1.2c0.1-0.6,0.1-1.2,0.2-1.9c0.2-1.3,0.5-2.6,0.8-3.9c2.6-11,7.2-21.7,11.9-32
		c0.3-0.7,0.7-1.5,1-2.2c0.3-1.1,0-2.4-0.9-3.1c-0.5-0.5-2-1.4-2.5-0.4c-4.2,8.8-7.8,17.8-10.9,27c-1.7,5.2-3.7,11-3.5,16.6
		c0,2.1,0.8,4.1,2.1,5.7c0.9,0.8,1.8,1.6,2.8,2.2c3.3,2.1,6.8,3.9,10.4,5.5c5,2.4,10.1,4.6,15.2,6.7c12.2,5,24.5,9.6,37.1,13.5
		c5.8,1.8,11.6,3.5,17.5,4.9c4.4,1.1,8.9,1.8,13.5,2.1c2.5,0.1,6,0.2,8-1.6c0.9-1,1.4-2.2,1.6-3.5c0.3-1.9,0.5-3.8,0.5-5.7
		c0.1-5.3-0.3-10.6-1.1-15.8c-0.9-6.7-2.2-13.4-3.8-20c-3.3-13.8-8-27.7-15.6-39.7c-3.1-4.9-7-9.6-11.8-12.9
		c-6.3-4.3-14.3-5.6-21.8-5c-14,1.2-27.3,8.9-37.8,17.9c-0.7,0.6-1.4,1.2-2,1.8c-0.8,0.8-0.4,2.1,0.2,2.9
		C54,212.8,55.4,214.2,56.2,213.4z"></path><path class="st1" d="M86.6,172.7c0,0-15.2,0.8-16.7-5.6s7.7-3.5,7.7-3.5s-9.2-13.9,6.2-13.9c0,0-11.2-11.1-0.1-18.4
		c11.1-7.3,29.9,1.2,29.9,1.2s1.4-13.4,16.5-9.5s10.2,11.4,10.2,11.4s9.7,2.4,9.3,7s-8,5.4-8,5.4s-4.7,12.8-17.8,8.9l-15.3,14.7
		c0,0,3.7,6.7-2.1,12.1S84.7,181.1,86.6,172.7z"></path><path class="st1" d="M85.1,171.1c-3.3,0.2-6.5-0.1-9.7-0.9c-0.6-0.1-1.1-0.3-1.7-0.5c0.3,0.1-0.3-0.1-0.4-0.2
		c-0.5-0.2,0.1,0.1-0.4-0.2s0.1,0.1-0.2-0.1s0.1,0.2-0.2-0.2s0.2,0.2,0,0c-0.1-0.1-0.1-0.2-0.2-0.2c-0.1-0.2-0.2-0.4-0.2-0.6
		c-0.6-1.9,0.3-3.3,2.2-3.5c0.9-0.1,1.9,0,2.8,0.2l0.6,0.1c0.5,0.1-0.2,0,0,0l0.4,0.1c1,0.3,2.2,0,1.3-1.2c-0.1-0.2-0.2-0.4-0.3-0.6
		s-0.3-0.4-0.4-0.7c0.2,0.4-0.2-0.4-0.2-0.5c-0.7-1.4-1.2-2.8-1.4-4.4c-0.3-1.6,0.1-3.2,1.2-4.5c1.7-1.8,4.6-2,7-2
		c1.2,0,0.5-1.3,0-1.8c-0.1-0.1-0.2-0.2-0.3-0.4l-0.4-0.4l-0.2-0.3c-0.3-0.4,0.2,0.2-0.1-0.1c-0.8-1.1-1.6-2.2-2.2-3.4
		c-1.6-3.5-1.6-7.2,1.1-10.1c6-6.5,16.7-5.3,24.3-3.1c1.6,0.4,3.2,1,4.7,1.6l0.7,0.3c-0.7-0.3,0,0,0.2,0.1l0.5,0.2
		c0.5,0.2,2.1,0.8,2.2-0.2c0.4-3.6,2.6-6.8,5.8-8.6c3.7-1.8,8-0.9,11.7,0.3c1,0.3,1.9,0.7,2.8,1.2c0,0,0.6,0.4,0.9,0.5
		c-0.4-0.3,0.9,0.7,0.5,0.4c0.4,0.3,0.8,0.7,1,1.2c-0.1-0.2,0.1,0.4,0.2,0.5s0.2,0.6,0.2,0.6c0.2,1.2,0,2.4-0.6,3.4
		c-0.7,1.1,1.9,2.6,2.7,2.8c0.4,0.1,0.8,0.2,1.1,0.3c0.7,0.2,1.4,0.5,2.1,0.8c0.5,0.2,1,0.5,1.5,0.7c-0.4-0.2,0.3,0.2,0.4,0.2
		c0.5,0.3,0,0,0.4,0.2c0.1,0,0.6,0.5,0.3,0.2c0.2,0.1,0.3,0.3,0.4,0.4c0.2,0.3,0.3,0.6,0.4,0.9c0.6,3.6-4.6,5.2-7.3,5.4
		c-0.2,0-0.4,0.1-0.6,0.3c-1.9,5.1-6.7,9.3-12.3,9.3c-1.1,0-2.2-0.1-3.2-0.4c-0.9-0.2-1.6-0.6-2.4,0c-0.7,0.6-1.3,1.2-1.9,1.8
		l-7.7,7.3l-5.6,5.3c-0.3,0.3,0.1,0.9,0.2,1.1c-0.4-0.7-0.1-0.2,0,0c0.1,0.4,0.3,0.7,0.4,1.1c0.3,1.1,0.5,2.2,0.5,3.3
		c-0.1,3.1-1.7,5.9-4.3,7.5c-2.1,1-4.4,1.2-6.7,0.6c-1.1-0.2-2.2-0.6-3.2-1.1c-0.9-0.4-1.7-0.9-2.4-1.6c-0.2-0.1-0.3-0.3-0.5-0.5
		c-0.2-0.2-0.4-0.5-0.5-0.6c-0.3-0.4-0.6-0.9-0.8-1.4c-0.5-1.1-0.6-2.4-0.3-3.6c0.3-1.4-4-3.8-4.4-2.1c-1.4,6.7,6.5,11.7,11.8,13.4
		c2.9,1.1,6.1,1.3,9.2,0.5c3.3-0.9,5.7-4.1,6.3-7.4c0.5-2.6,0.1-5.3-1.2-7.6l0.2,1l15.2-14.6l-1.6,0.1c5.4,1.5,10.8,1,15-2.9
		c1.9-1.7,3.4-3.8,4.3-6.2l-0.6,0.3c2.9-0.3,6.9-1.4,8.2-4.3c2.2-4.6-3.8-8.3-7.3-9.8c-1.4-0.6-2.8-1.1-4.3-1.5l2.7,2.8
		c3.2-5-2.6-10-6.6-11.9c-7-3.6-18.1-5.6-22.7,2.6c-0.9,1.6-1.5,3.3-1.7,5.1l2.2-0.2c-6.2-2.8-13-4.4-19.8-4.5
		c-4.9,0-9.9,1.1-13.7,4.3c-3.3,2.8-4.4,7.4-2.7,11.4c1.1,2.8,2.7,5.3,4.8,7.4v-1.8c-3.7,0-8.4,0.9-9.4,5.1c-0.6,2.7,0.4,5.6,1.6,8
		c0.4,0.7,0.8,1.5,1.2,2.2l1.3-1.2c-3.1-0.9-10.2-1.9-9.5,3.3c0.8,6.5,9.5,8.3,14.8,8.8c1.9,0.2,3.8,0.2,5.8,0.1
		c1.1-0.1,0.5-1.3,0-1.8C87.3,171.7,86.3,171.2,85.1,171.1z"></path><path class="st0" d="M138.3,191.1c9.8-10.5,1.9-42.1,1.9-42.1c-10.8,1-26.7-11.6-26.7-11.6c4,10.5-7.3,27.7-7.3,27.7
		c-3.4-9.4-13-10.1-13.1-1.1s8.4,10.6,8.4,10.6s-7,27.7-6.4,31.3s20.5,9.7,27.6-7.1C122.7,198.9,129.8,200.2,138.3,191.1z"></path><path class="st1" d="M140.5,192c4.6-5.1,5.2-13,5.2-19.6c-0.1-6.5-0.8-13.1-2.1-19.5c-0.3-1.5-0.6-3-1-4.5
		c-0.2-0.9-1.6-1.4-2.4-1.3c-5.4,0.4-11.2-2.4-16.1-5.1c-3.1-1.8-6.1-3.7-8.9-5.9c-1.3-1.1-5-0.3-4.1,2c2,5.5-0.1,11.8-2.2,16.9
		c-1.3,3.3-3,6.4-4.9,9.3l4.6,0.3c-1.1-3.5-3.6-6.3-6.8-8c-2.8-1.2-6.3-1.1-8.6,0.9c-2.5,2.3-2.9,6-2.3,9.2c0.6,3,2.3,5.7,4.9,7.4
		c1.6,1.1,3.3,1.9,5.2,2.3l-1.8-2.3c-2.1,8.5-4.3,17.1-5.8,25.8c-0.4,1.8-0.7,3.7-0.7,5.6c0.1,1.5,1,2.8,2.3,3.5
		c3.8,2.6,9.1,3.3,13.6,2.8c3.4-0.4,6.7-1.5,9.5-3.4c3.2-2.3,5.7-5.4,7.1-9.1l-3,1.4c2,0.3,4.1,0.1,6-0.5
		C133,198.7,137.1,195.6,140.5,192c0.9-1,0-2.3-1-2.6c-1.2-0.5-2.5-0.2-3.4,0.8c-1.6,1.7-3.4,3.3-5.4,4.5c-1.3,0.8-2.7,1.5-4.2,1.9
		c-0.6,0.2-1.1,0.3-1.7,0.4c0.6-0.1,0,0-0.3,0s-0.4,0-0.6,0s-0.3,0-0.5,0c-0.5,0,0.2,0,0.3,0c-0.1,0-0.2,0-0.3,0
		c-1.2-0.3-2.4,0.3-3,1.4c-1.1,2.7-2.9,5.1-5.2,6.9c-1.9,1.4-4.1,2.3-6.4,2.6l-0.5,0.1h0.1l-0.9,0.1c-0.6,0-1.2,0-1.8,0h-0.8
		c-0.1,0-0.5,0,0,0h-0.4c-0.6-0.1-1.1-0.1-1.7-0.2s-0.9-0.2-1.3-0.3c-0.7-0.1,0.1,0-0.3-0.1l-0.7-0.2c-0.4-0.1-0.8-0.3-1.2-0.5
		l-0.6-0.3c-0.2-0.1,0.2,0.1,0.2,0.1l-0.4-0.2c-0.2-0.2-0.5-0.4-0.7-0.5s0.3,0.4,0,0c-0.1-0.1-0.2-0.2-0.2-0.3
		c-0.2-0.1,0.2,0.5,0.1,0.1s0,0.2,0,0.2c0-0.2,0-0.4,0-0.7c0-0.7,0.1-1.4,0.2-2.1c0.1-0.7,0.2-1.5,0.4-2.6
		c0.9-5.1,2.1-10.1,3.2-15.2c0.8-3.4,1.6-6.9,2.5-10.3c0.3-1.2-0.7-2.1-1.8-2.3H102c-0.7-0.2,0.3,0.1-0.1,0
		c-0.6-0.2-1.3-0.5-1.9-0.8c-0.3-0.2,0.2,0.2-0.2-0.1l-0.5-0.3c-0.4-0.3-0.7-0.5-1.1-0.8c-0.7-0.7-1.3-1.5-1.7-2.3
		c-1.2-2.3-1.3-5-0.3-7.4c0-0.1,0.5-0.8,0.6-0.8s0.3-0.3,0.4-0.3c-0.3,0.2,0.1-0.1,0.3-0.1c0.3-0.1-0.4,0.1,0,0
		c0.1,0,0.2-0.1,0.3-0.1c0.5,0-0.4,0,0.2,0s-0.3-0.1,0.3,0c0.1,0,0.8,0.2,0.4,0c2.5,0.8,4.3,3.5,5.2,6.1c0.6,1.7,3.7,1.8,4.6,0.3
		c2.1-3.3,4-6.9,5.5-10.5c2.3-5.7,4.3-12.6,2-18.7l-4.1,2c3.1,2.4,6.3,4.5,9.7,6.4c5.6,3.1,12.2,6.2,18.8,5.7l-2.4-1.3
		c0.1,0.3,0.1,0.5,0.2,0.8s0.1,0.6,0.2,1l0.1,0.6l0.1,0.3c0.1,0.4,0,0.1,0,0.2c0.5,2.6,1,5.3,1.3,7.9c0.9,6.8,1.5,14,0.3,20.8
		c-0.6,3.4-1.6,6.5-3.9,9c-0.8,0.9,0,2.2,1,2.6C138.2,193.2,139.6,192.9,140.5,192z"></path><path class="st0" d="M129,180.2c0,0,19.2,9.4,26.2,0.1s-5.9-19-20.1-13.9"></path><path class="st1" d="M129.5,182c5.8,2.8,13,5.1,19.5,4.3c4.4-0.5,8.3-3.1,9.6-7.6c1.4-5-2.1-10-6.1-12.8
		c-5.6-3.8-12.7-3.7-18.9-1.6c-1,0.4,1.5,4.5,3.1,4c4.8-1.7,10.7-2,15.4,0.4c0.8,0.4,1.5,0.9,2.1,1.4c0.5,0.4,0.8,0.9,1,1.5
		c0.5,1.6,0.3,3.4-0.5,4.9c-3.6,7.6-13.5,6-20,4.1c-1.6-0.5-3.1-1-4.7-1.7c-0.5-0.2-0.9-0.4-1.4-0.6c-0.2-0.1,0.4,0.2,0,0l-0.1-0.1
		c-0.8-0.4-1.4-0.1-1.2,0.9C127.7,180.4,128.5,181.4,129.5,182L129.5,182z"></path><path class="st0" d="M117.9,181.7c0,0-5.8-2.8-5-8.9"></path><path class="st1" d="M118.9,181c-2.1-1.1-3.7-2.9-4.5-5.2c-0.3-1.1-0.4-2.3-0.3-3.4c0.1-0.6-0.9-0.4-1.2-0.3
		c-0.5,0.2-1,0.6-1.1,1.2c-0.4,3.5,1.4,7,4.4,8.8c0.2,0.2,0.5,0.3,0.7,0.4c0.5,0.2,1.1,0,1.6-0.4C118.8,182,119.4,181.3,118.9,181
		L118.9,181z"></path><path class="st1" d="M125.8,158.5c-0.3,0.8,0.1,1.7,0.9,2c0,0,0.1,0,0.2,0c1.6,0.4,2.1-1.6,0.8-2.4c-0.6-0.4-1.4-0.3-1.8,0.2
		C125.8,158.4,125.8,158.4,125.8,158.5z"></path><path class="st1" d="M132.6,159.6c-0.3,0.8,0.1,1.7,0.9,1.9c0.1,0,0.1,0,0.2,0.1c1.6,0.4,2.1-1.6,0.8-2.4c-0.6-0.4-1.4-0.3-1.8,0.2
		C132.7,159.5,132.6,159.6,132.6,159.6z"></path><path class="st2" d="M81.6,272c0,0,14.1-73.1,16.2-75.2s116,29,119.4,33.1s-20.4,63.3-24.4,68.7S80.1,276.8,81.6,272z"></path><path class="st0" d="M202.8,275.6c0,0,13.2,11.3,7.2,14.7c-3.8,2-8.2,2.5-12.4,1.4c0,0-0.6,14.7-8.8,18s-21.7-4-21.7-4
		s-1.8,4.1-7.9,0c0,0-1.1,3.3-8.2-1.5s-7.4-14-3.1-15s8.7,6,8.7,6s3.4-7.2,8.3,0.3c0.4-2.2,2.6-3.7,4.8-3.2c0.3,0.1,0.5,0.1,0.8,0.2
		c4.6,1.5,5.2,4.8,9.2,5.9s13.1,0.2,13.1,0.2"></path><path class="st1" d="M200.8,276.1c2.2,1.9,4.2,4,6,6.3c1,1.4,2.3,3.1,2.3,4.9c0,0.6-0.2,1.1-0.6,1.6c-1.2,0.9-2.6,1.5-4.1,1.8
		c-1.5,0.3-3.1,0.4-4.7,0.2c-0.3,0-0.6-0.1-1-0.1c0.5,0.1-0.1,0-0.2-0.1c-0.2,0-0.4-0.1-0.6-0.1c-0.6-0.2-2.7-0.4-2.7,0.6
		c-0.1,4.5-1.3,9-3.5,13c-1.6,2.7-3.9,4.7-7.2,5c-3.4,0.2-6.7-0.4-9.9-1.6c-1.5-0.5-3-1.1-4.5-1.8l-0.8-0.4l-0.2-0.1l-0.5-0.2
		c-1-0.5-3.3-1.2-3.9,0.2c0.1-0.2,0.1-0.1-0.1,0.2c-0.2,0.3-0.4,0.5-0.7,0.6c-0.3,0.2-0.2,0.1-0.4,0.2c-0.1,0-0.2,0-0.3,0
		c-0.2-0.1-0.4-0.1-0.7-0.2c-0.6-0.3-1.2-0.6-1.7-1c-0.9-0.6-3.4-1.2-3.9,0.2c-0.1,0.2,0.2-0.2,0.1-0.1s-0.2,0.3-0.3,0.4
		c0.3-0.3-0.4,0.3-0.1,0c-0.3,0.2,0.2,0-0.1,0h0.1c-0.3,0-0.1,0,0.1,0c-0.5-0.1-1-0.3-1.4-0.5c-0.9-0.4-1.8-1-2.6-1.6
		c-1.3-0.9-2.3-2-3.2-3.3c-1.5-2.1-2.1-4.7-1.7-7.2c0.1-0.8,0.5-1.6,1.2-2.1c0.4-0.3,0.4-0.3,0.8-0.3c-0.5,0,0.1,0.1-0.1,0
		c0.2,0.1,0.5,0.2,0.7,0.3c1.7,1.2,3.1,2.7,4.1,4.4c0.8,1.2,3.9,2,4.7,0.5c0.1-0.1,0.2-0.3,0,0c0.1-0.2,0.2-0.3,0.3-0.5
		c0.3-0.5,0.8-1,1.2-1.4c0.1-0.1,0.5-0.2,0.7-0.4h-0.1c0.2-0.1,0.2-0.1,0,0H161c0.3,0,0.3,0-0.1-0.1c-0.7-0.2-0.1,0.1-0.2,0
		s0.6,0.5,0.5,0.4c0.6,0.6,1.1,1.2,1.5,1.9c0.6,0.9,4.3,2.2,4.7,0.5c0.2-1.1,1.3-2.6,2.2-2.5c1.5,0.1,2.9,1.5,3.9,2.5
		c1.2,1.2,2.6,2.3,4.2,3c3.1,1.3,6.7,1.3,10,1.3c2,0,4.1-0.1,6.1-0.3c0.9-0.1,1.9-0.5,1.3-1.5s-2.2-1.4-3.2-1.3
		c-1.5,0.1-3,0.2-4.5,0.3c-1.2,0-2.5,0.1-3.7,0c-0.6,0-1.2-0.1-1.8-0.1l-0.8-0.1l-0.4-0.1c-0.5-0.1,0.5,0.1-0.2,0
		c-2.3-0.5-3.8-2.8-5.6-4.1c-2.6-1.8-6.4-3.1-9.5-1.8c-1.5,0.7-2.5,2-2.9,3.6l4.7,0.5c-2-3.1-5.8-6-9.7-4.3
		c-1.5,0.7-2.7,1.9-3.3,3.5l4.7,0.5c-1.5-2.4-3.5-4.4-5.9-5.9c-3-1.7-7.9-2.4-9.7,1.3c-1.4,3-0.3,6.7,1.2,9.4
		c2.5,4,6.4,6.9,10.9,8.1c1.8,0.5,5.4,0.8,6.2-1.5l-3.9,0.2c3,2,9.7,4.4,11.8-0.2l-3.9,0.2c5.7,3.1,12.4,5.4,19,5.5
		c3.8,0,7.6-1.1,10.1-4c2.2-2.7,3.6-5.9,4.3-9.3c0.5-2.1,0.9-4.2,1-6.3l-2.7,0.7c2.5,0.7,5.1,0.9,7.7,0.6c2.1-0.2,4.2-0.8,6.1-1.7
		c1.1-0.4,2.1-1.3,2.6-2.4c0.8-1.9-0.3-4.1-1.3-5.7c-1.3-2-2.8-3.9-4.6-5.6c-1-1.1-2.1-2.1-3.2-3.1c-1-0.8-2.2-1.1-3.4-0.9
		C200.3,274.5,200,275.3,200.8,276.1L200.8,276.1z"></path><path class="st1" d="M163.6,298c-0.3,3.1,0.8,6.2,2.9,8.6c1.1,1.1,2.3,1.9,3.8,2.4c0.9,0.2,1.9-0.1,2.4-0.9
		c0.5-0.5,0.7-1.4-0.1-1.7c-0.6-0.2-1.1-0.5-1.6-0.8c-0.5-0.3-0.9-0.7-1.4-1.1c-0.1-0.1-0.2-0.2-0.3-0.3c-0.1-0.1,0,0,0,0l-0.1-0.2
		c-0.2-0.2-0.3-0.4-0.5-0.6c-0.3-0.4-0.5-0.9-0.7-1.3c-0.2-0.4-0.4-0.9-0.5-1.3l-0.1-0.2v0.1c0-0.1-0.1-0.2-0.1-0.3
		s-0.1-0.4-0.1-0.6c-0.1-0.7-0.2-1.3-0.2-2c0-0.3,0-0.7,0-1c0-0.3-0.3-0.6-0.6-0.7c-0.4-0.1-0.8-0.1-1.2,0.1
		C164.4,296.4,163.7,297.1,163.6,298L163.6,298z"></path><path class="st1" d="M154.8,295.3c-0.5,3.2,0.1,6.5,1.6,9.4c0.7,1.1,1.6,2,2.8,2.6c0.8,0.4,1.8,0.3,2.6-0.2
		c0.5-0.4,1.1-1.2,0.3-1.6c-0.2-0.1-0.4-0.2-0.6-0.4l-0.3-0.2c-0.1-0.1,0,0,0,0l-0.2-0.2c-0.4-0.3-0.7-0.7-1-1.1
		c-0.3-0.4-0.5-0.8-0.6-1.2c-0.2-0.5-0.4-1-0.5-1.5c-0.2-0.9-0.4-1.9-0.5-2.8c0-0.2,0-0.4,0-0.6s0-0.4,0-0.2s0-0.1,0-0.2
		c0-0.3,0-0.6,0-1s0-0.7,0.1-1.1C158.7,293.3,155,293.9,154.8,295.3L154.8,295.3z"></path><path class="st0" d="M54.8,211.4c0,0-30.1,27.3-16.9,48.1S120,288,120,288l-12-8.7c0,0,27.6,20.6,26.6,13.8s-19.2-24.9-19.2-24.9
		s17.7-3.7,12.6-9.2c-3.4-3.6-21.4-1.8-21.4-1.8s-9.5-11.2-22.5-4L67,242.8C67,242.8,63.7,213.5,54.8,211.4z"></path><path class="st1" d="M52.6,211.2c-6,5.5-11,11.8-15,18.9c-3,5.3-5.3,11.2-5.5,17.3c-0.2,5.6,1.8,11.1,5.5,15.3
		c3.3,3.4,7.1,6.2,11.4,8.3c5.1,2.6,10.3,4.8,15.7,6.5c11.2,3.6,22.5,6.4,34.1,8.4c6.5,1.2,13.1,2.4,19.7,3h0.3
		c0.9,0.1,1.9-0.1,2.7-0.4c0.2-0.1,1.3-0.6,0.8-1l-12-8.7c-1-0.5-2.1-0.6-3.1-0.2c-0.3,0.1-2.3,0.8-1.6,1.3c2.6,1.9,5.2,3.8,7.8,5.6
		c4.4,3.2,9,6,13.8,8.4c1.8,1,3.7,1.5,5.7,1.6c1.6,0,4.4-0.5,4.1-2.6c-0.2-2.3-1.9-4.6-3.2-6.5c-1.9-2.7-3.9-5.2-6-7.7
		c-3.2-3.8-6.6-7.4-10.1-10.9l-1.6,1.3c2.2-0.5,4.4-1.1,6.5-1.8c2.8-1,6.6-2.2,8.2-4.9s-1.4-4.8-3.7-5.4c-3.8-1.1-8-1.1-11.9-1
		c-2.9,0-5.8,0.2-8.8,0.5l2.5,0.3c-6.6-7.7-18.2-8.5-26.7-3.8l3.9-0.3l-17.2-10.6l0.4,0.4c-0.4-3.5-1-6.9-1.7-10.3
		c-1.2-5.7-2.6-11.7-5.6-16.8c-1.3-2.2-3.1-4.2-5.7-4.8c-1.2-0.2-2.4-0.1-3.5,0.5c-0.8,0.5-0.8,1,0.2,1.3c0.3,0.1-0.1-0.1,0.2,0.1
		c0.2,0.1,0.3,0.1,0.5,0.2c0.3,0.2,0.6,0.4,0.9,0.6c0.7,0.6,1.3,1.3,1.8,2c1.3,1.8,2.3,3.8,3,5.9c1.7,4.6,2.9,9.4,3.7,14.2
		c0.3,1.8,0.6,3.6,0.9,5.4c0,0.8,0.1,1.6,0.3,2.4c0.3,0.7,1.7,1.2,2.3,1.6l5.3,3.3l10,6.1c1,0.6,3,0.1,3.9-0.3
		c2.6-1.6,5.7-2.2,8.7-1.6c2.4,0.6,4.7,1.6,6.7,3.1c1,0.8,1.9,1.8,2.9,2.6c0.8,0.5,1.8,0.6,2.7,0.4l0.6-0.1h-0.1l0.7,0
		c4.7-0.4,9.5-0.6,14,0.1c1.6,0.3,3.5,0.7,4.2,2.4s-0.7,2.8-1.9,3.5c-2,1.2-4.1,2-6.3,2.6c-0.1,0.1-0.3,0.1-0.4,0.1l-0.7,0.2
		l-1.2,0.3l-1.1,0.3c-0.3,0.1-2.3,0.7-1.6,1.3c2.6,2.6,5.1,5.3,7.6,8c2.1,2.3,4.1,4.7,6.1,7.2c1.7,2.1,3.2,4.4,4.5,6.8
		c0.4,0.8,0.7,1.7,0.9,2.6c0,0.2,0,0.7,0,0.5c0,0-0.1,0.2-0.1,0.2s0.4-0.3,0.3-0.2c0.6-0.2,1.2-0.4,1.8-0.4c-0.3,0,0.6,0,0.3,0
		s-0.1-0.1,0,0s0.2,0,0,0h-0.2l-0.5-0.1c0.4,0.1-0.2-0.1-0.3-0.1l-0.6-0.2c-0.4-0.2-0.9-0.4-1.3-0.6c-4.4-2.2-8.6-4.8-12.6-7.7
		c-2.9-2-5.8-4-8.6-6.1l-4.7,1.1l12,8.7l3.5-1.5c-1.4-0.2-2.9-0.4-4.3-0.5c-0.3,0,0.4,0,0.1,0h-0.3l-0.5-0.1l-1.2-0.2l-2.7-0.4
		c-2.1-0.3-4.2-0.7-6.3-1c-11.1-1.8-22-4.3-32.8-7.5c-5.5-1.6-10.8-3.6-16.1-5.9c-4.5-1.9-8.7-4.5-12.5-7.6
		c-3.9-3.2-6.5-7.7-7.3-12.7c-1-6,0.6-12,3.1-17.4c3.8-8.2,9.7-15.6,16.2-21.9l0.4-0.3c0.8-0.7-0.5-1-1-1.1
		C54.8,210.3,53.6,210.6,52.6,211.2z"></path><path class="st0" d="M134.5,250c1.9,3.1,4,6.1,6.2,9c0.5,0.8,1.2,1.6,2.1,2.1c1.6,0.7,3.4,0.7,5,0.1c1.9-0.6,3.7-2.2,5.4-3.4
		c6.3-4.4,12.3-9,18.2-13.9c1.4-1.2,2.3-3.8,0.1-4.8s-5.1-0.3-6.8,1.2c-3.3,2.8-6.8,5.6-10.3,8.3c-0.9,0.7-1.8,1.3-2.6,2l-1.1,0.8
		l-0.8,0.6c0.4-0.3,0.3-0.2-0.1,0.1c-1.7,1.3-3.5,2.5-5.3,3.6l2.5-0.9h-0.3l3.3,0.4c0.4,0.3,0.4,0.3,0-0.1l-0.6-0.7l-0.8-1.1
		c-0.6-0.9-1.3-1.7-1.9-2.6c-1.2-1.8-2.4-3.6-3.6-5.4c-0.5-0.8-2.1-1-2.8-1c-1.3,0-2.6,0.3-3.7,1C134.5,246.2,133.1,248,134.5,250
		L134.5,250z"></path><path class="st2" d="M210.7,271.8c1.4,6.9,6.3,14.1,13.4,15.8c5.8,1.2,11.9-0.3,16.6-4.1c3.7-3.2,6.4-7.3,8-11.9
		c1.2-3.3,2.4-7.4,1.8-10.9c-0.8-4.3-6.4-0.9-8.3,0.9c-2.8,2.7-4.3,7.9-0.8,10.7c2,1.6,4.9,1.6,7.3,1.2c3.7-0.5,7.1-1.9,10.1-4.1
		c6.9-5.6,5.5-16.6,3.2-24.2l-0.2-0.6c-0.3-0.9-5,0.8-4.6,1.8c0.7,2.1,1.2,4.3,1.5,6.6c0.6,4.1,0.8,8.6-0.8,12.5
		c-0.7,1.8-1.8,3.4-3.4,4.6c-0.3,0.2-0.5,0.3-0.8,0.5c-0.6,0.3-1.3,0.5-2,0.6c-1.1,0.2-2.3,0.3-3.4,0.1c-3.9-0.7-5.2-4.7-3.7-8.1
		c0.4-0.9,0.9-1.6,1.6-2.3c0.3-0.3,0.7-0.5,1-0.9c-0.2,0.2-0.2,0.1-0.5,0.3c-0.5,0.3-1.1,0.4-1.7,0.5c-0.3,0-0.3-0.1-0.1,0
		s0.2,0.1,0.3,0.2c0.3,0.3,0.4,0.7,0.5,1.1c0.7,2.9-0.2,6.4-1.1,9.2c-1.2,4-3.2,7.7-6,10.9c-0.6,0.7-1.4,1.4-2.1,1.9
		c-0.3,0.2-0.7,0.5-1,0.6c-0.2,0.1-0.5,0.3-0.8,0.4c-0.2,0.1-0.4,0.2-0.6,0.2c-0.5,0.1-1,0.2-1.5,0.2c-1.3,0.1-2.6,0-3.9-0.2
		c-7.6-1.4-11.3-8.5-13.4-15.1c-0.1-0.1-0.1-0.3-0.1-0.5C215.2,269.1,210.4,270.5,210.7,271.8L210.7,271.8z"></path></g></svg>